<svg xmlns="http://www.w3.org/2000/svg" width="34" height="34" viewBox="0 0 34 40" fill="none"><script xmlns=""/>
<path d="M0.5 28.4933V14.5053C0.5 14.1876 0.651002 13.8887 0.906801 13.7003L17.9068 1.17394C18.5671 0.687426 19.5 1.15885 19.5 1.97899V15.9933C19.5 16.3118 19.3482 16.6113 19.0914 16.7997L12 22L14.8883 24.4756C15.2453 24.7817 15.7675 24.7976 16.1425 24.5138L32.3966 12.2134C33.0552 11.715 34 12.1848 34 13.0108V26.4805C34 26.8062 33.8414 27.1114 33.5749 27.2987L16.0874 39.5872C15.7363 39.8339 15.2671 39.8292 14.9211 39.5755L0.908636 29.2997C0.651761 29.1113 0.5 28.8118 0.5 28.4933Z" fill="#000"/>
</svg>