<?xml version="1.0" standalone="no"?>
<!DOCTYPE svg PUBLIC "-//W3C//DTD SVG 20010904//EN"
 "http://www.w3.org/TR/2001/REC-SVG-20010904/DTD/svg10.dtd">
<svg version="1.0" xmlns="http://www.w3.org/2000/svg"
 width="820.000000pt" height="980.000000pt" viewBox="0 0 820.000000 980.000000"
 preserveAspectRatio="xMidYMid meet">

<g transform="translate(0.000000,980.000000) scale(0.100000,-0.100000)"
fill="#fff" stroke="none">
<path d="M2625 9381 c-103 -31 -216 -91 -283 -150 -78 -69 -186 -229 -218
-325 -46 -133 -20 -395 52 -538 14 -27 24 -65 24 -88 0 -28 8 -52 24 -73 13
-18 32 -52 42 -77 32 -82 115 -220 170 -283 95 -107 101 -125 107 -322 3 -108
10 -189 20 -223 8 -28 11 -50 6 -47 -5 4 -6 -8 -3 -25 5 -23 2 -34 -10 -43
-36 -26 -38 -110 -7 -272 l10 -50 -4 65 c-2 36 -7 88 -11 117 -9 72 2 122 29
132 34 12 408 -3 435 -17 13 -8 22 -22 22 -37 0 -22 -4 -25 -42 -26 -39 -1
-40 -2 -13 -8 37 -8 45 -36 13 -46 l-23 -8 23 -4 c19 -4 50 -40 40 -48 -2 -1
-25 -7 -53 -13 -43 -8 -45 -10 -17 -11 44 -1 72 -17 72 -41 0 -16 -7 -20 -31
-20 l-32 0 26 -20 c18 -14 28 -35 33 -68 l8 -47 8 55 c12 83 9 178 -6 213 -5
10 -2 31 9 53 13 29 15 42 6 60 -6 13 -15 24 -21 24 -39 0 68 142 150 197 50
33 75 65 86 107 3 14 31 46 61 72 55 48 97 63 174 64 23 0 39 6 43 15 3 10 -1
15 -13 15 -10 0 -47 9 -81 20 -34 11 -66 20 -71 20 -5 0 -24 -15 -42 -32 -104
-100 -129 -120 -162 -129 -33 -9 -36 -13 -30 -36 3 -13 3 -33 0 -44 -9 -27
-89 -79 -106 -68 -23 15 -29 10 -29 -21 0 -37 -30 -41 -53 -7 l-16 22 0 -29
c-1 -36 -15 -26 -42 31 l-17 38 -1 -63 c-1 -85 -12 -102 -61 -102 -22 0 -40 2
-40 4 0 2 9 24 19 49 18 42 43 167 35 176 -2 2 -9 -9 -16 -25 -13 -33 -37 -64
-48 -64 -4 0 -10 9 -13 20 -4 16 -14 20 -46 20 -27 0 -48 7 -67 23 -25 22 -28
31 -32 113 -3 63 -8 92 -19 101 -8 6 -12 16 -8 22 3 6 1 11 -4 11 -16 0 -13
53 5 78 19 27 21 27 64 1 l34 -21 -21 -18 c-22 -17 -22 -17 10 -16 47 1 45
-17 -2 -28 -41 -10 -50 -19 -31 -31 6 -3 10 -18 10 -32 0 -22 2 -24 15 -13 13
10 19 10 35 -5 19 -18 20 -17 20 4 0 20 25 40 36 29 12 -13 -11 -71 -32 -80
-32 -15 -30 -28 2 -28 16 0 36 11 50 25 29 31 54 33 54 3 1 -21 1 -22 11 -5
10 18 12 18 35 -4 l24 -22 0 27 0 28 64 -4 c45 -3 71 -10 85 -22 16 -15 21
-16 21 -5 1 8 11 1 25 -16 18 -21 25 -25 25 -14 0 9 7 20 16 23 24 9 6 26 -27
26 -36 0 -89 21 -108 43 -12 15 -10 18 10 26 17 6 29 5 40 -5 27 -24 89 -17
142 16 67 42 58 56 -13 20 -33 -16 -67 -30 -75 -30 -26 0 -113 41 -119 55 -2
7 -40 57 -84 111 -53 67 -83 113 -89 141 l-10 41 86 7 c111 9 216 49 311 118
58 41 87 73 149 162 42 60 86 126 98 145 31 53 57 207 57 345 l1 120 -43 85
c-24 47 -59 103 -78 125 -33 39 -33 37 16 -60 28 -55 53 -116 56 -135 5 -30
-1 -24 -36 40 -50 87 -102 155 -133 171 l-22 12 21 -24 c63 -70 123 -241 92
-261 -7 -4 -16 -8 -19 -8 -10 0 -241 101 -263 115 -105 67 -343 116 -569 119
-135 1 -146 0 -232 -31 -49 -17 -91 -30 -92 -29 -9 9 99 143 154 191 94 83
155 120 259 155 163 55 342 36 526 -56 93 -47 96 -42 9 15 -99 66 -197 91
-353 90 -78 0 -132 -6 -173 -18z m148 -367 c161 -32 268 -80 467 -214 101 -67
143 -90 168 -90 17 0 32 -2 32 -6 0 -3 -10 -23 -22 -44 -18 -31 -37 -45 -83
-66 -53 -23 -83 -28 -255 -39 -177 -12 -214 -11 -400 7 -168 15 -225 25 -317
53 -120 36 -190 75 -204 113 -5 13 -9 49 -10 80 0 41 -3 51 -9 37 -12 -29 -12
-1 1 32 52 139 323 198 632 137z m-646 -216 c-3 -8 -6 -5 -6 6 -1 11 2 17 5
13 3 -3 4 -12 1 -19z m131 -557 c10 -28 7 -41 -9 -41 -6 0 -29 53 -29 66 0 2
6 4 14 4 8 0 19 -13 24 -29z m195 -118 c8 -27 18 -61 21 -77 4 -16 16 -41 27
-54 10 -14 19 -29 19 -35 0 -6 11 -24 24 -41 26 -35 56 -90 56 -105 0 -5 -11
-6 -27 -2 -23 6 -28 13 -28 39 0 27 -4 32 -23 32 -18 0 -27 11 -43 48 -12 26
-21 58 -21 72 0 14 -6 32 -13 40 -17 20 -54 117 -47 124 3 4 13 6 23 6 11 0
21 -15 32 -47z m403 -291 c59 -73 58 -72 42 -72 -14 0 -108 105 -108 121 0 18
31 -5 66 -49z m-96 -13 c0 -36 -2 -40 -15 -29 -11 9 -12 16 -5 25 8 10 4 15
-19 20 -47 10 -47 25 -2 25 l41 0 0 -41z"/>
<path d="M3355 7763 c-44 -11 -37 -23 13 -23 57 0 143 -36 160 -66 13 -24 26
1 13 25 -24 43 -127 79 -186 64z"/>
<path d="M3210 7634 c-28 -20 -31 -24 -14 -24 20 0 62 35 53 44 -2 2 -20 -7
-39 -20z"/>
<path d="M2551 6697 c-1 -54 12 -87 34 -87 19 0 19 -4 -1 -214 -19 -198 -14
-491 10 -621 23 -121 48 -335 43 -356 -7 -27 0 -24 16 6 13 26 13 26 31 6 16
-18 17 -25 5 -70 -11 -45 -15 -50 -35 -45 -19 5 -22 2 -17 -14 3 -12 11 -23
19 -26 8 -3 14 -17 14 -32 0 -19 -4 -25 -15 -20 -20 7 -19 -12 4 -56 12 -24
20 -71 25 -140 10 -151 22 -227 72 -483 104 -528 130 -619 256 -889 38 -82
101 -221 140 -310 l70 -160 -4 -233 c-2 -128 1 -233 6 -233 4 0 5 -8 0 -17 -8
-20 -14 -203 -6 -203 3 0 23 17 46 38 23 20 62 51 86 68 32 22 63 59 108 131
94 153 212 380 212 410 0 15 11 39 26 54 24 25 25 30 15 61 -6 18 -21 44 -32
58 -11 14 -18 19 -14 11 4 -7 9 -33 10 -57 3 -33 0 -44 -11 -44 -11 0 -14 11
-13 38 1 20 -2 72 -6 115 -7 67 -6 77 8 77 10 0 21 -17 30 -47 l15 -48 1 60
c1 34 7 67 13 73 10 10 10 17 1 31 -9 14 -9 21 0 30 8 8 2 18 -23 40 l-35 29
-28 -20 c-28 -20 -28 -38 1 -38 12 0 9 -6 -11 -18 -15 -9 -26 -21 -24 -27 2
-5 -15 -15 -37 -22 l-41 -11 35 -1 c46 -2 63 -13 54 -36 -6 -14 -4 -17 9 -12
13 5 17 1 17 -21 l-1 -27 -29 35 c-35 41 -38 27 -9 -39 18 -42 19 -54 9 -91
-6 -23 -14 -40 -17 -37 -2 3 -10 29 -17 59 -12 50 -14 51 -23 28 -9 -21 -11
-14 -18 50 -5 56 -13 85 -32 113 -28 40 -36 47 -26 20 6 -16 5 -16 -10 -4 -29
24 -21 44 16 39 17 -3 39 -8 48 -12 11 -5 19 -2 22 9 5 11 -6 21 -38 37 -31
15 -44 27 -40 38 14 47 7 122 -20 198 l-28 81 -76 13 c-68 13 -78 17 -98 47
-28 42 -28 48 -2 56 26 9 17 17 -41 38 l-45 17 -34 132 c-43 166 -58 328 -44
476 9 102 9 109 -13 147 l-23 39 20 32 20 32 -62 -14 c-64 -15 -73 -13 -88 15
-7 12 -4 26 11 49 19 30 22 32 38 17 26 -24 73 -18 118 15 23 17 44 30 48 30
3 0 2 -56 -2 -125 -6 -113 -5 -127 11 -145 10 -11 29 -20 42 -20 20 0 23 -5
23 -41 0 -28 -4 -38 -12 -33 -8 5 -9 -2 -4 -27 3 -19 9 -52 13 -74 3 -25 19
-57 43 -85 38 -46 105 -168 97 -177 -3 -2 -22 17 -42 42 -21 25 -39 44 -41 42
-2 -2 21 -72 51 -156 30 -84 55 -155 55 -157 0 -3 -15 -3 -32 1 l-33 7 37 -28
c62 -45 133 -158 162 -258 14 -49 27 -90 28 -91 7 -6 108 -55 113 -55 3 0 5
19 6 43 0 23 4 51 8 62 5 13 3 28 -7 43 -13 20 -13 25 4 43 18 20 17 21 -18
53 -35 32 -36 35 -43 127 -4 52 -17 173 -30 269 -22 167 -27 186 -103 398 -68
188 -122 312 -136 312 -2 0 14 -48 37 -107 111 -300 179 -538 176 -626 -1 -22
-6 -10 -16 38 -25 120 -133 465 -165 528 -16 33 -36 80 -43 103 -7 24 -29 63
-49 87 -37 45 -52 92 -21 67 20 -17 19 -7 -5 40 -11 22 -20 48 -20 59 0 11
-15 34 -33 50 -24 23 -37 48 -52 101 -17 63 -21 69 -33 53 -7 -10 -10 -29 -7
-44 4 -19 1 -28 -11 -33 -41 -16 -54 51 -16 82 14 10 13 12 -7 12 -30 0 -24
27 12 53 34 26 47 16 71 -58 9 -27 26 -66 37 -85 11 -19 17 -26 14 -15 -39
119 -55 215 -55 334 0 69 -5 176 -10 236 -11 117 -60 313 -93 380 -17 32 -22
65 -25 169 -4 123 -3 130 17 145 19 15 21 22 14 61 l-8 45 -5 -40 c-6 -47 -3
-46 -119 -11 -96 29 -166 33 -237 11 -27 -8 -63 -15 -81 -15 -29 0 -33 3 -38
38 -10 59 -13 61 -14 9z m304 -63 c37 -5 55 -13 68 -30 18 -23 17 -25 -6 -57
-24 -31 -57 -90 -57 -101 0 -3 18 -15 40 -26 22 -11 40 -25 40 -30 0 -5 -17
-43 -37 -84 l-36 -74 38 -86 c30 -66 42 -83 52 -75 25 21 41 0 58 -75 14 -62
15 -89 6 -162 -9 -77 -15 -92 -41 -119 -16 -17 -30 -34 -30 -38 0 -3 14 -22
31 -42 24 -27 29 -38 20 -49 -8 -10 -8 -21 -1 -40 15 -41 14 -44 -32 -64 l-43
-19 32 -19 32 -20 -25 -32 c-27 -34 -82 -47 -70 -16 5 13 -1 14 -37 9 -39 -6
-45 -4 -60 19 -16 24 -16 25 16 47 17 12 34 24 36 26 2 1 -9 13 -25 25 -59 47
-64 55 -64 115 0 52 3 60 36 94 l37 38 -36 88 c-30 75 -36 108 -46 222 -8 101
-8 155 1 216 11 79 11 84 -23 199 -29 101 -31 119 -19 126 8 5 24 16 35 24 22
17 38 19 110 10z m65 -1330 c0 -10 -6 -14 -15 -11 -8 4 -17 2 -20 -3 -10 -17
-25 -11 -25 10 0 16 7 20 30 20 21 0 30 -5 30 -16z m-169 -275 c6 -12 9 -39 6
-60 -3 -22 -2 -41 3 -44 4 -3 8 -32 9 -64 1 -63 23 -181 90 -471 22 -96 47
-225 56 -287 24 -167 71 -280 177 -430 80 -113 88 -129 127 -253 22 -73 41
-139 41 -146 0 -10 14 -14 49 -14 55 0 70 10 44 31 -14 13 -13 15 13 19 50 9
43 37 -15 62 -42 17 -51 25 -51 45 0 16 5 23 13 20 54 -20 58 -19 51 7 -6 24
-5 25 27 16 56 -16 65 -13 39 15 l-23 25 35 0 c32 0 38 -4 46 -32 6 -18 13
-59 16 -91 6 -53 4 -59 -14 -64 -11 -3 -23 -16 -26 -29 -4 -15 -13 -24 -26
-24 -17 0 -19 -5 -14 -25 7 -26 8 -25 -56 -30 -30 -1 -30 -13 1 -31 36 -21 36
-24 15 -65 -18 -36 -14 -45 14 -30 36 19 52 14 52 -19 0 -25 4 -30 25 -30 22
0 25 -4 25 -34 0 -34 -1 -35 -47 -38 l-48 -3 32 -20 c38 -23 41 -35 14 -59
-18 -17 -22 -17 -64 2 l-44 19 -13 108 c-15 132 -34 124 -24 -12 3 -50 3 -97
-1 -103 -11 -18 -34 27 -35 67 0 60 -14 72 -22 18 -3 -27 -5 13 -3 90 2 77 0
160 -6 185 -5 25 -65 158 -133 295 -68 138 -140 294 -160 347 -48 129 -196
816 -210 978 -14 154 -15 180 -6 180 5 0 14 -10 21 -21z m628 -301 c37 -159
37 -155 -4 -168 -31 -10 -39 -10 -56 6 -19 17 -19 19 -3 31 16 12 16 14 0 38
-10 14 -24 29 -32 32 -10 4 -14 23 -14 72 0 55 4 73 26 105 l27 39 19 -36 c10
-20 27 -74 37 -119z m-142 -1905 c-2 -21 -4 -6 -4 32 0 39 2 55 4 38 2 -18 2
-50 0 -70z m-10 -185 c-3 -7 -5 -2 -5 12 0 14 2 19 5 13 2 -7 2 -19 0 -25z"/>
<path d="M4772 4555 c83 -17 137 -45 205 -103 75 -65 90 -109 17 -51 -169 134
-319 137 -571 10 -88 -45 -203 -125 -203 -141 0 -6 -11 -15 -23 -21 -37 -17
-67 -89 -67 -160 0 -46 -5 -67 -20 -86 -28 -35 -25 -51 4 -24 28 26 46 28 104
12 38 -11 41 -14 32 -31 -13 -24 -18 -24 -39 -6 -48 42 -96 17 -107 -54 l-7
-45 22 23 c12 12 31 22 42 22 19 0 19 -1 5 -22 -21 -29 -20 -67 1 -75 9 -4 18
-2 21 5 2 6 11 8 20 5 9 -2 24 -7 32 -10 12 -3 10 -8 -9 -24 -33 -27 -67 -24
-112 12 -35 27 -39 28 -39 11 0 -10 10 -27 21 -38 41 -36 52 -81 57 -242 5
-150 5 -152 26 -146 31 9 37 18 38 55 0 19 5 42 10 52 8 16 7 17 -11 8 -30
-16 -31 -15 -25 37 4 27 15 55 27 67 20 20 20 17 2 -28 -5 -13 -3 -18 6 -17
31 5 39 -1 39 -30 0 -22 10 -41 36 -66 29 -30 33 -38 22 -51 -18 -22 -19 -43
-1 -43 9 0 38 -16 66 -36 29 -21 47 -30 43 -20 -3 9 -9 23 -12 31 -4 10 3 18
21 25 23 9 30 7 40 -7 13 -17 14 -17 33 0 19 17 52 14 52 -4 0 -23 -45 -69
-67 -69 -36 0 -18 -24 40 -51 28 -13 98 -52 156 -86 58 -35 109 -63 114 -63 4
0 38 17 76 39 37 21 89 46 114 56 26 10 47 19 47 21 0 3 -18 1 -40 -2 -50 -8
-55 2 -45 93 6 61 10 69 47 102 22 20 51 54 63 76 26 45 61 171 70 255 3 30
10 71 15 90 5 19 11 47 14 61 3 15 21 37 41 50 32 22 35 28 34 69 l-1 45 -10
-37 c-6 -23 -23 -47 -45 -63 -33 -26 -44 -27 -88 -9 -19 8 -19 7 -3 -18 18
-27 16 -82 -3 -94 -5 -3 -30 12 -54 34 -25 22 -60 43 -79 46 -39 8 -155 -7
-186 -24 -12 -6 -24 -9 -28 -6 -17 18 116 76 174 76 40 0 106 -38 130 -75 9
-14 20 -25 25 -25 16 0 9 34 -11 60 -12 16 -20 41 -20 67 0 23 -5 45 -11 48
-5 4 -14 18 -19 31 -11 28 -37 31 -56 7 -11 -15 -16 -16 -33 -5 -27 16 -46 15
-82 -4 -23 -12 -34 -13 -44 -4 -11 9 -15 7 -21 -14 -7 -30 1 -44 30 -56 19 -7
18 -10 -19 -24 -22 -9 -50 -21 -63 -26 -30 -13 -38 -36 -22 -65 17 -31 7 -54
-29 -66 -16 -6 -37 -21 -45 -34 -15 -22 -19 -23 -140 -20 -153 3 -161 7 -152
81 3 29 9 61 13 71 6 16 5 16 -10 4 -15 -12 -20 -11 -37 4 -31 28 -26 80 13
145 31 52 36 55 77 58 24 2 62 -4 84 -12 23 -8 70 -18 106 -21 l65 -6 -50 19
c-27 10 -69 29 -92 41 -27 13 -64 22 -101 23 -65 2 -97 -14 -149 -72 -26 -29
-34 -33 -45 -22 -14 14 4 33 96 103 24 18 33 29 23 29 -23 0 -22 5 16 57 19
27 70 72 126 111 l94 65 106 1 c96 0 115 -3 196 -33 58 -22 115 -35 159 -38
59 -4 75 -9 109 -36 22 -18 53 -52 69 -76 15 -25 28 -37 28 -28 0 31 -54 106
-94 129 -22 13 -79 60 -127 106 -101 95 -151 121 -246 127 l-68 4 67 -14z
m-503 -683 c0 -24 -1 -25 -9 -7 -12 28 -12 47 0 40 6 -3 10 -18 9 -33z m666
-47 c22 -8 49 -15 61 -15 11 0 29 -6 39 -14 18 -13 17 -14 -8 -31 -26 -16 -28
-16 -54 0 -33 22 -157 33 -168 16 -3 -7 -1 -18 5 -26 10 -12 9 -16 -4 -21 -25
-10 -19 -24 12 -24 15 0 40 -11 56 -24 l30 -23 -25 -15 c-21 -13 -67 -16 -141
-10 -10 1 -25 16 -34 34 -15 29 -15 32 0 43 20 15 21 25 1 25 -24 0 -17 17 18
44 69 53 141 66 212 41z"/>
<path d="M4440 4499 c-75 -38 -119 -67 -166 -114 -35 -34 -64 -69 -64 -76 0
-7 30 16 68 53 53 52 92 79 187 127 67 33 110 60 98 60 -11 1 -67 -22 -123
-50z"/>
<path d="M4756 4386 c8 -22 -32 -49 -64 -43 -59 12 -122 -13 -195 -79 -12 -10
-22 -13 -29 -6 -20 20 111 112 162 112 11 0 20 5 20 10 0 13 -24 13 -71 -2
-41 -12 -164 -122 -154 -137 3 -5 -12 -23 -33 -40 l-37 -30 61 -1 c45 0 83 -9
150 -35 52 -21 106 -35 132 -35 50 0 135 37 128 56 -3 7 2 18 10 25 47 39 57
113 19 149 l-25 23 -39 -27 c-21 -15 -41 -35 -44 -45 -4 -15 -13 -17 -59 -13
-42 3 -64 -1 -96 -17 -53 -27 -56 -27 -35 7 25 39 31 42 101 42 53 0 70 5 103
28 42 29 46 50 12 63 -16 6 -21 5 -17 -5z m-61 -184 c-18 -4 -20 -18 -4 -28
20 -12 -15 -24 -46 -16 -40 11 -42 28 -4 51 26 16 35 17 51 8 15 -10 16 -13 3
-15z"/>
<path d="M5035 4298 c-25 -14 -35 -28 -35 -50 0 -27 23 -22 55 12 16 17 36 30
44 30 14 0 14 1 1 10 -20 13 -40 12 -65 -2z"/>
<path d="M5133 4231 c7 -35 -2 -40 -21 -11 -16 26 -54 26 -77 0 -20 -23 -25
-82 -7 -88 7 -2 12 -14 12 -27 0 -24 26 -42 32 -23 6 17 28 0 28 -22 0 -22
-23 -32 -40 -17 -10 10 -10 7 -1 -10 14 -27 79 -73 103 -73 27 0 58 37 57 68
0 15 -3 21 -6 15 -2 -7 -8 -13 -13 -13 -4 0 -2 21 6 47 8 25 14 56 14 67 0 27
-44 92 -72 107 -20 11 -21 9 -15 -20z"/>
<path d="M4855 4157 c-26 -30 -65 -63 -86 -72 -22 -10 -38 -20 -36 -21 10 -10
72 19 127 60 42 31 69 45 81 41 16 -5 18 -3 10 17 -15 42 -45 34 -96 -25z"/>
<path d="M3620 4078 c0 -8 36 -46 81 -83 116 -98 183 -186 265 -348 39 -78 76
-143 83 -145 17 -6 9 22 -40 126 -51 110 -130 221 -226 313 -119 117 -163 153
-163 137z"/>
<path d="M3726 3900 c4 -8 24 -40 44 -70 35 -52 90 -153 90 -165 0 -3 -9 -1
-19 5 -30 15 -33 13 -26 -22 l7 -32 -33 29 -34 28 -3 -35 c-2 -22 7 -57 23
-93 14 -32 23 -60 21 -62 -2 -3 -14 1 -27 7 -15 9 -9 -3 21 -39 36 -43 41 -54
30 -61 -8 -6 -19 -10 -24 -10 -4 0 -6 -6 -3 -14 4 -9 -5 -16 -26 -20 -30 -6
-31 -8 -12 -18 11 -6 21 -12 23 -13 2 -2 -8 -15 -23 -30 -14 -16 -23 -30 -20
-33 7 -8 70 25 91 49 29 32 89 59 132 59 l39 0 0 44 c0 25 7 56 16 69 9 14 13
27 9 29 -4 2 -18 28 -31 58 -41 98 -119 224 -167 270 -35 34 -44 39 -35 20 8
-17 -1 -10 -29 20 -23 25 -38 38 -34 30z"/>
<path d="M3940 3321 c-11 -22 -14 -42 -2 -25 4 6 21 18 37 27 l30 16 -27 1
c-17 0 -31 -7 -38 -19z"/>
<path d="M4285 3303 c-22 -1 -72 -8 -111 -13 -53 -8 -83 -8 -119 1 -45 11 -49
11 -67 -11 -11 -14 -18 -38 -18 -66 0 -24 -4 -44 -10 -44 -5 0 -26 -14 -46
-32 -26 -23 -40 -29 -51 -22 -12 7 -41 -17 -130 -106 -90 -91 -124 -134 -158
-198 -24 -46 -71 -120 -103 -165 -33 -45 -67 -96 -75 -112 -8 -17 -59 -70
-113 -119 -82 -75 -99 -86 -104 -71 -4 10 -9 14 -12 9 -10 -18 -39 -225 -74
-534 -48 -430 -109 -880 -139 -1029 -19 -95 -25 -155 -25 -258 l0 -133 1013 0
1013 0 17 118 c9 64 19 162 23 216 5 85 14 123 60 255 30 86 70 181 89 212 19
31 49 96 66 145 49 142 112 248 199 339 43 44 85 96 95 115 16 32 12 30 -46
-27 -46 -44 -72 -62 -94 -64 -56 -4 -75 1 -75 18 0 9 -22 50 -48 92 -85 133
-187 400 -208 545 -6 45 -14 56 -78 117 -39 37 -91 83 -116 104 -25 20 -51 48
-57 60 -7 13 -31 34 -53 46 -29 16 -40 29 -40 46 0 16 -6 23 -20 23 -12 0 -33
7 -48 17 -69 42 -102 67 -102 76 0 6 8 3 18 -6 14 -13 21 -14 30 -5 8 8 15 8
28 -3 9 -7 28 -12 42 -10 13 1 28 -3 33 -11 5 -7 18 -13 30 -13 12 0 24 -6 26
-12 3 -8 -4 -13 -16 -13 -29 0 -26 -14 10 -44 33 -28 34 -29 98 -26 35 1 54
10 89 38 50 41 124 144 118 164 -2 7 -7 25 -10 40 -9 41 -56 61 -141 60 -61
-2 -72 1 -90 22 -26 30 -108 80 -85 51 12 -15 12 -19 2 -23 -10 -3 -6 -13 14
-33 33 -35 21 -36 -61 -6 -45 17 -60 27 -60 41 0 13 -10 22 -29 27 -17 5 -34
15 -38 24 -10 17 -54 20 -64 4 -4 -7 -25 -9 -58 -6 -31 3 -72 -1 -104 -10 -29
-8 -59 -13 -66 -10 -7 3 -18 -4 -24 -14 -17 -26 -106 -27 -121 -1 -8 13 -10
14 -11 2 0 -24 13 -36 44 -44 16 -4 41 -19 56 -34 43 -43 146 -112 168 -112
11 0 25 -7 32 -15 6 -8 37 -21 68 -30 32 -9 65 -19 76 -22 44 -13 -11 -26
-128 -31 -111 -4 -132 -2 -184 17 -91 34 -156 134 -150 233 3 51 3 51 48 65
40 12 118 30 235 53 22 5 67 17 99 28 51 16 57 21 40 29 -44 23 -73 24 -94 3
-16 -16 -24 -18 -47 -9 -19 7 -35 7 -55 -2 -27 -11 -69 -9 -115 6 -18 6 -26 1
-40 -24 -10 -17 -26 -31 -36 -31 -11 0 -21 -9 -24 -20 -3 -12 -19 -24 -42 -31
-23 -7 -43 -22 -53 -40 -9 -15 -28 -31 -41 -34 -17 -5 -27 -16 -30 -35 -8 -37
-35 -46 -61 -21 -18 18 -18 23 -6 45 7 14 22 28 32 32 11 3 17 8 14 12 -6 5
46 44 152 113 34 23 62 45 62 50 0 5 14 16 30 24 25 13 50 15 128 10 108 -7
142 3 107 29 -11 9 -24 15 -30 14 -5 -1 -28 -3 -50 -5z m-449 -346 c17 -10 18
-33 3 -43 -19 -11 -38 19 -32 51 4 18 8 24 11 15 3 -8 11 -19 18 -23z m74
-252 c57 -19 108 -39 113 -44 4 -4 -9 -24 -29 -43 -32 -32 -40 -35 -68 -27
-17 5 -36 9 -43 9 -9 0 -211 -165 -258 -212 -5 -5 54 31 131 82 133 85 144 91
179 84 21 -4 45 -14 55 -24 11 -11 23 -14 38 -9 26 10 154 -13 289 -52 122
-35 138 -35 182 -8 47 29 105 21 137 -18 13 -15 23 -22 24 -15 0 16 59 42 94
42 17 0 30 -10 43 -30 19 -33 29 -36 56 -15 29 21 47 9 40 -28 -6 -33 -49 -97
-64 -97 -4 0 -24 14 -44 31 -45 40 -47 17 -2 -37 44 -52 77 -107 77 -129 0
-17 1 -17 20 0 11 10 22 26 25 36 8 23 33 25 42 4 13 -35 -20 -109 -71 -160
-90 -89 -160 -106 -247 -58 -81 43 -129 121 -129 206 0 37 -5 59 -15 67 -21
18 -25 11 -35 -59 -5 -33 -11 -64 -14 -69 -3 -5 -57 -13 -121 -17 -109 -7
-116 -6 -152 16 -27 17 -60 26 -111 30 -39 3 -75 9 -79 12 -9 10 18 57 34 57
8 0 13 13 13 35 l0 36 -25 -18 c-13 -10 -23 -22 -21 -28 2 -5 -6 -22 -16 -37
-25 -36 -67 -37 -150 -3 -34 14 -66 25 -72 24 -6 0 -25 -19 -41 -42 -38 -53
-56 -55 -192 -27 -58 12 -115 19 -125 16 -69 -17 -44 65 51 174 79 90 202 211
253 250 37 27 37 28 17 41 -20 14 -20 15 17 57 43 51 38 51 194 -3z m-377
-691 l129 -29 93 -106 c52 -58 97 -117 100 -130 4 -15 -2 -42 -14 -69 -11 -25
-21 -60 -21 -77 0 -24 -8 -40 -30 -59 l-30 -27 21 -34 c18 -28 20 -43 14 -96
-11 -104 -34 -190 -58 -215 -12 -13 -42 -36 -67 -50 -25 -14 -72 -50 -105 -80
l-60 -53 -60 5 c-33 3 -92 11 -132 18 l-71 12 -31 77 -30 78 19 113 c10 62 20
129 22 148 2 25 7 34 18 31 8 -2 44 -11 79 -20 65 -16 74 -24 95 -93 6 -21 48
-24 64 -5 6 7 12 25 14 41 3 30 -3 35 -59 56 -17 7 -34 18 -37 27 -6 15 20
146 36 176 7 13 21 17 61 17 51 0 54 1 70 35 22 47 21 61 -5 79 -38 27 -61 20
-92 -30 -29 -45 -30 -46 -70 -40 -42 7 -76 30 -76 52 0 7 9 28 20 46 23 40 55
211 40 216 -18 6 -11 25 8 20 9 -3 75 -18 145 -34z m553 -113 c5 -5 72 -23
149 -41 l140 -33 76 -81 c41 -44 95 -103 119 -129 l44 -48 -23 -97 c-19 -81
-28 -101 -54 -123 l-30 -26 22 -32 23 -32 -32 -117 c-17 -64 -33 -124 -36
-133 -2 -9 -66 -53 -140 -98 -159 -95 -162 -95 -313 -48 l-104 32 -35 80 -35
80 23 122 c13 68 27 128 31 134 8 14 93 0 153 -25 31 -13 36 -19 36 -48 0 -42
15 -58 56 -58 36 0 51 14 60 57 6 29 3 32 -32 43 -70 22 -84 36 -84 82 0 23 7
68 16 100 15 52 19 58 43 58 14 0 41 -4 59 -9 31 -9 34 -8 52 22 11 18 20 41
20 53 0 27 -31 54 -65 57 -24 2 -30 -4 -43 -40 -9 -23 -22 -45 -29 -47 -20 -8
-136 41 -150 63 -9 15 -6 38 18 117 16 55 29 113 28 129 -1 17 -1 33 0 38 1
10 25 9 37 -2z"/>
<path d="M4158 2375 l-46 -24 10 -41 c6 -23 14 -38 18 -33 35 40 88 123 78
123 -7 -1 -34 -12 -60 -25z"/>
<path d="M4532 2365 c-9 -20 -9 -25 2 -25 23 0 38 26 23 39 -11 8 -16 5 -25
-14z"/>
<path d="M3725 2355 c-34 -28 -31 -31 13 -12 19 8 28 17 24 24 -6 9 -16 5 -37
-12z"/>
<path d="M4347 2352 c-25 -27 -21 -35 13 -28 17 3 30 3 30 0 0 -3 -11 -25 -25
-49 -27 -44 -60 -63 -73 -40 -15 28 -45 21 -59 -13 l-14 -34 58 7 c90 11 126
42 139 121 5 37 4 42 -17 47 -33 9 -34 9 -52 -11z"/>
<path d="M4613 2279 c-32 -20 -33 -27 -10 -56 7 -10 14 -7 28 10 19 21 20 21
32 3 7 -11 24 -33 39 -50 21 -24 29 -28 39 -19 9 9 1 25 -37 72 -27 34 -51 61
-54 61 -3 0 -20 -10 -37 -21z"/>
<path d="M3535 2270 c3 -5 16 -10 28 -10 18 0 19 2 7 10 -20 13 -43 13 -35 0z"/>
<path d="M4650 2085 c7 -8 17 -15 22 -15 6 0 5 7 -2 15 -7 8 -17 15 -22 15 -6
0 -5 -7 2 -15z"/>
<path d="M3840 3257 c0 -22 -39 -67 -58 -67 -10 0 -22 -10 -27 -22 -7 -16 -21
-25 -45 -28 -27 -4 -31 -7 -17 -13 64 -25 152 11 192 79 29 50 31 58 9 50 -8
-3 -24 -1 -35 4 -14 8 -19 7 -19 -3z"/>
<path d="M5165 3133 c-41 -8 -111 -37 -154 -61 l-44 -26 29 -10 c16 -6 49 -24
73 -40 l44 -28 19 25 c28 39 133 70 215 65 58 -4 69 -8 92 -34 14 -17 31 -39
37 -50 14 -23 28 -13 20 13 -13 39 -48 63 -134 89 -48 15 -104 35 -124 45 -21
11 -41 18 -45 18 -4 -1 -17 -3 -28 -6z"/>
<path d="M5275 3006 c-23 -14 -47 -36 -54 -50 -15 -28 -17 -27 76 -98 55 -43
62 -61 53 -134 -13 -107 -99 -231 -209 -301 -31 -19 -58 -37 -60 -39 -2 -2 15
-24 38 -50 29 -33 48 -69 65 -123 36 -114 73 -196 129 -293 l51 -88 45 0 c35
0 51 6 73 27 15 15 28 34 28 42 1 42 16 44 81 11 35 -18 76 -41 91 -52 23 -16
35 -17 90 -10 l63 10 -62 1 c-34 0 -65 6 -68 11 -8 12 -199 110 -216 110 -10
0 -88 65 -196 164 -51 47 -109 143 -101 166 2 6 23 -15 46 -47 44 -60 87 -93
356 -269 105 -69 136 -84 167 -84 22 0 39 -4 39 -9 0 -33 139 7 153 44 4 8 18
15 34 15 l27 0 -29 -30 c-35 -36 -29 -37 34 -5 40 20 52 32 65 67 16 42 16 44
-8 90 -13 26 -30 70 -37 98 -13 50 -25 63 -31 35 -2 -13 -10 -11 -40 10 -21
14 -38 30 -38 35 0 17 40 11 47 -7 5 -14 8 -11 15 12 8 33 -22 89 -100 185
-24 30 -49 64 -54 75 -8 19 -145 115 -162 115 -13 0 -279 112 -294 123 -27 21
-1 15 108 -29 63 -24 120 -42 128 -39 8 3 10 0 6 -7 -5 -8 -2 -9 9 -5 16 6 66
-10 77 -24 3 -3 23 -16 45 -27 71 -36 159 -125 199 -201 20 -39 43 -88 51
-108 l14 -38 0 40 c1 32 -12 62 -68 155 -38 63 -76 141 -85 173 -26 91 -64
141 -150 197 -88 57 -198 114 -156 81 14 -11 64 -44 112 -73 93 -56 122 -94
92 -119 -8 -6 -14 -17 -14 -24 0 -48 -182 17 -192 69 -3 13 -1 31 4 40 8 14 2
16 -36 16 -57 0 -76 8 -76 31 0 15 -7 19 -32 19 -18 0 -48 9 -66 20 -18 11
-46 20 -62 20 -38 0 -46 14 -14 29 32 14 79 14 121 -1 46 -17 60 -1 39 41 -15
29 -20 31 -69 31 -37 0 -64 -7 -92 -24z m225 -348 l35 -19 -39 5 c-22 3 -49
15 -60 27 l-21 21 25 -7 c14 -4 41 -16 60 -27z m213 -73 c46 -26 74 -52 65
-60 -11 -11 -114 18 -135 38 -30 27 -22 32 19 11 l33 -17 -24 27 c-31 33 -16
33 42 1z"/>
</g>
</svg>
