<?xml version="1.0" standalone="no"?>
<!DOCTYPE svg PUBLIC "-//W3C//DTD SVG 20010904//EN"
 "http://www.w3.org/TR/2001/REC-SVG-20010904/DTD/svg10.dtd">
<svg version="1.0" xmlns="http://www.w3.org/2000/svg"
 width="425.000000pt" height="676.000000pt" viewBox="0 0 425.000000 676.000000"
 preserveAspectRatio="xMidYMid meet">

<g transform="translate(0.000000,676.000000) scale(0.100000,-0.100000)"
fill="#552583" stroke="#552583">
<path d="M4195 3640 c0 -1708 1 -2406 2 -1553 2 854 2 2252 0 3105 -1 854 -2
156 -2 -1552z"/>
<path d="M1865 6540 c-174 -12 -254 -43 -354 -136 -117 -108 -173 -277 -142
-424 23 -109 112 -237 184 -263 89 -32 387 -127 401 -127 8 0 16 6 19 13 5 16
37 -9 37 -29 0 -8 9 -14 19 -14 10 0 29 -8 41 -18 21 -17 22 -25 21 -129 -2
-110 -2 -112 24 -125 14 -7 61 -41 105 -76 l81 -63 -7 125 c-3 69 -3 126 2
126 4 0 33 -9 64 -20 l57 -20 35 32 c19 18 38 42 42 53 4 12 10 15 14 9 17
-26 113 -89 196 -129 86 -41 146 -83 146 -103 0 -4 -16 -14 -35 -21 -34 -12
-45 -33 -25 -46 11 -7 4 -25 -9 -25 -4 0 -12 9 -17 20 -6 14 -13 17 -23 11
-12 -8 -12 -12 -2 -25 11 -13 11 -16 -2 -16 -8 0 -17 6 -20 13 -3 9 -9 9 -28
0 -13 -6 -55 -26 -94 -44 -38 -18 -114 -57 -168 -86 -54 -29 -107 -53 -117
-53 -24 0 -26 -23 -4 -44 14 -14 24 -11 105 30 l91 45 41 -37 c23 -20 48 -44
54 -52 11 -14 18 -13 58 8 35 18 45 29 45 48 0 24 0 25 20 7 11 -10 22 -16 25
-14 5 6 -53 69 -64 69 -12 0 -22 30 -15 41 3 5 29 -11 58 -36 56 -48 76 -55
76 -29 0 12 6 15 25 10 19 -5 25 -2 25 9 0 13 4 14 23 4 19 -11 20 -10 10 2
-10 13 -6 15 30 14 63 -2 74 14 66 88 -4 34 -11 72 -14 83 -7 24 -18 17 435
252 86 44 178 93 205 109 153 91 424 259 453 280 62 46 52 54 -170 123 -112
35 -210 63 -218 62 -8 0 -163 -53 -345 -117 -529 -187 -669 -237 -679 -246 -5
-4 18 -7 51 -6 52 2 63 -2 98 -29 22 -17 46 -29 52 -27 7 3 17 -7 23 -21 5
-14 16 -26 25 -26 20 0 245 90 390 156 25 11 113 44 119 44 1 0 2 -11 1 -25 0
-13 -10 -32 -23 -42 -13 -10 -36 -29 -52 -43 -16 -14 -47 -38 -69 -54 -23 -17
-41 -33 -41 -38 0 -4 -6 -8 -12 -8 -7 0 -24 -10 -38 -21 -14 -11 -19 -17 -11
-13 8 4 33 7 55 6 24 -1 36 2 28 6 -9 6 -7 14 9 31 12 12 24 19 28 15 3 -4 0
-9 -6 -11 -27 -10 -12 -24 17 -18 36 8 37 3 8 -25 -12 -11 -17 -20 -10 -20 11
0 67 22 105 42 11 5 21 7 23 5 6 -6 -60 -47 -75 -47 -6 0 -11 -5 -11 -11 0 -6
-7 -8 -17 -5 -10 4 -14 4 -11 0 4 -3 -7 -14 -25 -23 -18 -10 -70 -38 -117 -63
-47 -25 -119 -64 -161 -86 l-77 -40 -22 23 c-12 13 -54 33 -93 45 -40 12 -93
29 -119 37 -52 16 -132 75 -171 126 -18 24 -26 48 -27 78 -3 96 -12 141 -26
135 -12 -5 -12 0 1 24 13 25 14 41 4 94 -15 90 -12 98 28 81 29 -12 32 -17 24
-38 l-9 -23 46 22 c26 12 62 25 81 29 18 4 49 18 68 31 41 28 120 34 129 10 3
-8 13 -12 26 -8 17 4 20 2 15 -12 -4 -10 -7 -20 -7 -22 0 -9 -29 -3 -32 7 -3
8 -14 6 -36 -5 -18 -9 -32 -19 -32 -21 0 -3 21 -2 48 1 33 5 56 15 77 35 l30
29 -27 0 c-26 0 -45 24 -28 35 5 3 25 3 45 -1 23 -4 35 -2 35 5 0 6 -7 11 -15
11 -8 0 -15 4 -15 10 0 5 7 7 16 3 13 -5 15 -2 9 18 -9 29 -60 106 -89 135
-30 29 -119 134 -129 150 -4 8 -34 31 -65 53 -49 33 -69 40 -127 45 -64 6 -68
5 -50 -8 62 -46 63 -48 25 -42 -21 4 -49 21 -71 42 -33 32 -45 37 -115 45
-104 13 -124 18 -124 29 0 5 19 10 42 12 l42 3 -84 33 c-92 35 -120 37 -335
22z m385 -180 c0 -29 -38 -46 -58 -26 -13 12 -13 18 -2 30 19 24 60 21 60 -4z
m471 -82 c16 -18 25 -34 19 -36 -9 -3 -70 53 -70 64 0 14 25 -1 51 -28z m-724
-162 c43 -49 115 -209 138 -309 8 -36 18 -73 21 -81 10 -25 -12 -19 -59 17
-24 17 -79 57 -121 87 -249 176 -269 197 -249 257 17 50 65 73 154 73 l77 0
39 -44z m177 -5 c17 -19 17 -19 -1 -15 -11 3 -20 12 -20 20 0 18 0 18 21 -5z
m231 -60 c3 -5 2 -12 -3 -15 -5 -3 -9 1 -9 9 0 17 3 19 12 6z m5 -56 c0 -8 -4
-15 -9 -15 -13 0 -22 16 -14 24 11 11 23 6 23 -9z m134 -54 c11 -12 17 -23 15
-26 -7 -6 -110 22 -122 34 -11 11 0 34 14 26 5 -4 12 1 15 9 5 14 9 14 33 -3
14 -10 35 -28 45 -40z m-594 -183 c0 -6 -6 -5 -15 2 -8 7 -15 14 -15 16 0 2 7
1 15 -2 8 -4 15 -11 15 -16z m-90 -19 c0 -6 -4 -7 -10 -4 -5 3 -10 11 -10 16
0 6 5 7 10 4 6 -3 10 -11 10 -16z m68 2 c3 -8 -1 -12 -9 -9 -7 2 -15 10 -17
17 -3 8 1 12 9 9 7 -2 15 -10 17 -17z m91 -27 c14 -12 -19 -1 -35 12 -18 14
-18 14 6 3 14 -6 27 -13 29 -15z m-182 -20 c-9 -10 -38 16 -31 28 4 6 13 4 22
-6 9 -8 13 -19 9 -22z m73 26 c11 -7 12 -12 3 -21 -13 -13 -33 -4 -33 17 0 16
9 18 30 4z m71 -11 c11 -5 17 -14 14 -19 -6 -10 -45 9 -45 22 0 11 8 10 31 -3z
m94 -39 c12 -19 -12 -10 -31 11 -19 22 -19 22 3 10 12 -6 25 -16 28 -21z
m-187 -3 c2 -10 -3 -17 -12 -17 -9 0 -16 2 -16 4 0 2 -3 12 -6 21 -5 13 -2 16
12 13 10 -2 20 -11 22 -21z m77 10 c25 -19 11 -41 -15 -24 -20 12 -28 37 -12
37 5 0 16 -6 27 -13z m83 -25 c2 -7 -2 -10 -12 -6 -9 3 -16 11 -16 16 0 13 23
5 28 -10z m-98 -29 c0 -7 -6 -13 -14 -13 -18 0 -39 26 -31 39 8 13 45 -9 45
-26z m90 -3 c0 -16 -17 -19 -35 -6 -24 18 -11 40 16 26 10 -6 19 -15 19 -20z
m81 13 c13 -16 12 -17 -3 -4 -17 13 -22 21 -14 21 2 0 10 -8 17 -17z m-1 -33
c0 -5 -2 -10 -4 -10 -3 0 -8 5 -11 10 -3 6 -1 10 4 10 6 0 11 -4 11 -10z m-35
-13 c10 -8 15 -19 11 -26 -6 -9 -13 -8 -27 5 -33 30 -20 47 16 21z m85 -22 c7
-8 8 -15 2 -15 -5 0 -15 7 -22 15 -7 8 -8 15 -2 15 5 0 15 -7 22 -15z m-26
-21 c17 -6 23 -34 8 -34 -5 0 -17 9 -27 20 -18 20 -11 25 19 14z m73 -80 c-10
-10 -48 27 -41 38 4 6 16 1 27 -11 12 -11 18 -24 14 -27z m-79 25 c-2 -6 -8
-10 -13 -10 -5 0 -11 4 -13 10 -2 6 4 11 13 11 9 0 15 -5 13 -11z m46 -34 c15
-11 17 -18 8 -27 -13 -13 -42 6 -42 28 0 18 10 17 34 -1z m66 -62 c0 -16 -10
-16 -31 0 -9 7 -14 17 -12 24 6 16 43 -6 43 -24z m-30 -33 c0 -5 -4 -10 -10
-10 -5 0 -10 5 -10 10 0 6 5 10 10 10 6 0 10 -4 10 -10z m728 -195 c7 -14 12
-37 12 -51 0 -22 -3 -23 -20 -14 -15 8 -19 20 -18 50 2 46 10 51 26 15z m-50
-9 c3 -12 -1 -17 -10 -14 -7 3 -15 13 -16 22 -3 12 1 17 10 14 7 -3 15 -13 16
-22z m-163 -104 c-3 -3 -11 0 -18 7 -9 10 -8 11 6 5 10 -3 15 -9 12 -12z m90
-3 c11 -17 -1 -21 -15 -4 -8 9 -8 15 -2 15 6 0 14 -5 17 -11z m-41 -15 c19 -7
21 -34 3 -34 -8 0 -22 9 -32 20 -16 17 -16 20 -2 20 8 0 22 -3 31 -6z m-114
-39 c16 -19 3 -40 -16 -24 -15 13 -19 39 -5 39 5 0 14 -7 21 -15z m-14 -62
c-7 -7 -26 7 -26 19 0 6 6 6 15 -2 9 -7 13 -15 11 -17z"/>
<path d="M709 5941 l-12 -58 -90 -7 c-50 -3 -137 -6 -194 -6 -83 0 -103 -3
-103 -14 0 -8 7 -21 15 -29 41 -41 586 -352 845 -482 162 -81 432 -217 598
-302 243 -123 307 -152 318 -142 22 18 18 49 -6 49 -17 0 -435 207 -750 372
-264 139 -308 162 -339 181 -19 11 -29 23 -22 25 7 2 23 14 37 27 21 20 30 22
57 14 41 -12 70 -12 63 0 -3 5 -16 7 -27 4 -17 -5 -20 -2 -15 13 5 15 -5 28
-45 58 -38 28 -49 43 -47 59 2 16 9 22 28 21 21 -1 349 -127 403 -155 11 -6
17 -5 17 1 0 5 7 10 16 10 9 0 14 6 11 13 -2 6 -17 11 -33 10 -16 0 -24 1 -17
4 18 7 4 33 -17 33 -27 0 -70 66 -75 113 -1 16 4 18 29 14 17 -3 42 -8 56 -12
44 -14 15 5 -41 26 -141 53 -249 92 -304 109 -33 10 -120 39 -194 64 -74 25
-138 46 -142 46 -5 0 -14 -26 -20 -59z m238 -397 c-3 -3 -12 -4 -19 -1 -8 3
-5 6 6 6 11 1 17 -2 13 -5z"/>
<path d="M2710 5836 c0 -8 -3 -23 -7 -33 -5 -14 -1 -13 20 6 32 29 34 41 7 41
-11 0 -20 -6 -20 -14z"/>
<path d="M1460 5740 c0 -5 5 -10 11 -10 5 0 7 5 4 10 -3 6 -8 10 -11 10 -2 0
-4 -4 -4 -10z"/>
<path d="M4105 5601 c-6 -5 -100 -52 -210 -104 -343 -163 -691 -336 -679 -336
6 -1 38 11 70 25 33 14 70 26 84 26 14 0 52 8 85 18 97 30 125 34 125 17 0 -9
5 -17 12 -19 23 -8 -18 -38 -87 -64 -18 -6 -18 -8 -2 -11 9 -3 17 -11 17 -19
0 -8 5 -14 10 -14 22 0 8 -20 -39 -57 -49 -38 -73 -67 -47 -57 19 7 25 -6 31
-62 2 -26 9 -50 15 -54 7 -4 2 -22 -15 -53 -21 -36 -25 -54 -19 -82 5 -30 9
-34 21 -23 12 10 18 9 29 -6 13 -18 15 -18 51 9 21 15 -31 -42 -114 -126 -84
-85 -153 -160 -153 -167 0 -7 -4 -10 -10 -7 -5 3 -10 1 -10 -4 0 -6 -7 -11
-15 -11 -9 0 -18 -7 -22 -16 -3 -8 -16 -19 -28 -24 -25 -10 -154 7 -270 34
-38 9 -101 24 -140 33 -65 16 -165 67 -428 219 -32 19 -60 34 -63 34 -2 0 -4
-11 -4 -25 0 -19 18 -40 76 -87 93 -76 92 -77 -117 -54 -78 9 -168 16 -200 16
-33 0 -59 4 -59 9 0 5 20 25 45 45 31 26 45 45 45 62 0 30 -11 30 -60 -1 -22
-14 -42 -25 -44 -25 -2 0 -35 -18 -74 -40 -49 -28 -81 -40 -109 -40 -61 0
-350 -28 -418 -40 -33 -6 -108 -23 -168 -37 l-108 -25 -52 49 c-149 141 -179
173 -165 173 9 0 24 -12 33 -27 16 -23 18 -24 27 -9 5 10 7 20 4 23 -3 4 -6 1
-6 -6 0 -7 -5 -9 -10 -6 -16 10 -1 25 26 25 16 0 24 -6 24 -17 0 -12 3 -14 11
-6 7 7 6 20 -5 44 -21 47 -63 120 -76 133 -16 16 -12 46 6 46 13 0 15 7 10 30
-3 17 -1 42 5 56 8 23 5 34 -23 74 -18 27 -35 46 -37 44 -6 -6 -31 17 -31 28
0 6 11 7 25 4 31 -8 36 19 5 29 -11 3 -20 13 -20 21 0 8 -8 14 -18 14 -10 0
-22 3 -26 8 -4 4 -11 7 -14 8 -20 2 -65 27 -56 30 7 3 8 23 4 55 -4 29 -2 52
3 56 6 3 7 1 3 -5 -5 -8 2 -12 18 -12 17 0 26 -5 26 -16 0 -10 6 -14 14 -11
14 5 80 -13 92 -26 4 -4 14 -7 23 -6 9 0 -40 27 -109 61 -335 162 -543 258
-548 254 -9 -10 113 -459 135 -497 9 -16 102 -106 207 -201 324 -294 461 -423
461 -432 0 -5 -23 -17 -51 -26 -79 -27 -115 -49 -160 -98 -159 -171 -30 -462
204 -462 28 0 78 -13 132 -35 108 -43 329 -151 353 -172 16 -15 16 -14 8 13
-6 16 -17 68 -26 117 -17 93 -14 107 25 142 l23 20 -7 -22 c-7 -23 7 -32 19
-13 3 6 21 10 39 10 17 0 38 6 45 13 18 18 301 11 339 -9 40 -20 61 -17 72 11
11 28 24 30 143 18 57 -5 70 -10 77 -27 5 -12 9 -16 9 -10 1 18 202 5 321 -20
29 -7 198 -36 205 -36 3 0 5 -8 6 -17 0 -16 2 -15 15 3 13 18 20 20 62 13 81
-13 275 -10 363 7 301 57 428 296 294 557 -19 38 -51 89 -70 114 -19 25 -35
51 -35 58 0 7 51 59 113 116 293 270 390 366 409 403 18 35 128 451 128 483 0
15 -12 17 -25 4z m-3767 -83 c18 -18 15 -27 -8 -21 -11 3 -20 12 -20 19 0 17
12 18 28 2z m-11 -50 c-3 -8 -6 -5 -6 6 -1 11 2 17 5 13 3 -3 4 -12 1 -19z
m54 -5 c13 -16 12 -17 -3 -4 -17 13 -22 21 -14 21 2 0 10 -8 17 -17z m-12 -72
c0 -20 -3 -29 -6 -21 -3 8 -11 18 -17 22 -8 5 -7 8 2 8 6 0 12 5 12 11 0 6 -7
9 -15 5 -9 -3 -15 0 -15 8 0 9 7 12 20 9 16 -4 20 -13 19 -42z m70 26 c13 -17
4 -27 -23 -26 -21 0 -21 1 -1 9 11 5 14 9 8 9 -14 1 -18 21 -4 21 5 0 14 -6
20 -13z m41 -47 c0 -5 -7 -7 -15 -4 -8 4 -15 8 -15 10 0 2 7 4 15 4 8 0 15 -4
15 -10z m0 -42 c0 -11 -8 -10 -31 3 -11 5 -17 14 -14 19 6 10 45 -9 45 -22z
m68 -18 c24 -21 41 -43 38 -48 -8 -13 -117 -75 -122 -69 -2 2 13 16 33 30 32
23 34 27 16 27 -16 0 -23 8 -28 32 -5 20 -3 34 3 36 6 2 8 10 5 18 -9 24 10
15 55 -26z m-98 -124 c0 -2 -8 -10 -17 -17 -16 -13 -17 -12 -4 4 13 16 21 21
21 13z m3125 -46 c-3 -5 -11 -10 -16 -10 -6 0 -7 5 -4 10 3 6 11 10 16 10 6 0
7 -4 4 -10z m-48 -202 c-3 -8 -6 -5 -6 6 -1 11 2 17 5 13 3 -3 4 -12 1 -19z
m-2627 -28 c0 -5 -4 -10 -10 -10 -5 0 -10 5 -10 10 0 6 5 10 10 10 6 0 10 -4
10 -10z m980 -525 c0 -11 -28 -4 -40 10 -20 24 -1 39 21 16 10 -11 19 -23 19
-26z m1475 35 c-3 -5 -16 -15 -28 -21 -22 -12 -22 -12 -3 10 19 21 43 30 31
11z m-1648 -19 c7 -10 9 -22 6 -25 -9 -9 -44 25 -37 35 8 14 18 11 31 -10z
m322 -2 c11 -19 11 -21 -4 -15 -9 3 -19 6 -21 6 -2 0 -4 7 -4 15 0 21 13 19
29 -6z m-482 4 c-4 -3 -1 -13 6 -22 11 -14 10 -14 -5 -2 -16 12 -16 31 -1 31
4 0 3 -3 0 -7z m271 -21 c2 -8 -8 -12 -27 -12 -33 0 -51 -17 -27 -26 17 -7 22
-24 7 -24 -5 0 -17 7 -26 16 -15 15 -15 18 2 34 33 30 63 35 71 12z m160 -1
c3 -8 -4 -10 -23 -5 -21 5 -27 3 -32 -15 -6 -22 -23 -29 -23 -10 0 16 42 47
59 44 8 -1 17 -7 19 -14z m-323 -1 c3 -5 -1 -10 -10 -10 -9 0 -13 5 -10 10 3
6 8 10 10 10 2 0 7 -4 10 -10z m-285 -24 c0 -2 -7 -7 -16 -10 -8 -3 -12 -2 -9
4 6 10 25 14 25 6z m230 -5 c0 -5 9 -13 20 -16 11 -3 20 -13 20 -21 0 -13 -4
-12 -30 1 -28 15 -42 45 -20 45 6 0 10 -4 10 -9z m-343 -17 c-3 -3 -12 -4 -19
-1 -8 3 -5 6 6 6 11 1 17 -2 13 -5z m103 -48 c0 -5 -9 -1 -20 9 -11 10 -20 22
-20 26 0 5 9 1 20 -8 11 -10 20 -22 20 -27z m130 22 c0 -13 -23 -5 -28 10 -2
7 2 10 12 6 9 -3 16 -11 16 -16z m228 4 c2 -7 -6 -12 -18 -12 -16 0 -20 -4
-16 -15 6 -17 -9 -21 -19 -4 -8 12 24 51 39 46 5 -2 12 -9 14 -15z m152 10 c0
-4 -9 -13 -20 -20 -22 -13 -27 -3 -8 16 14 14 28 16 28 4z m-305 -11 c3 -6 -2
-14 -12 -19 -14 -9 -15 -13 -4 -26 18 -21 -3 -21 -24 0 -15 15 -15 18 1 35 19
21 30 24 39 10z m-495 -11 c0 -5 -4 -10 -10 -10 -5 0 -10 5 -10 10 0 6 5 10
10 10 6 0 10 -4 10 -10z m163 -14 c4 -10 1 -13 -9 -9 -7 3 -14 9 -14 14 0 14
17 10 23 -5z m187 4 c0 -5 -8 -10 -17 -10 -15 0 -16 2 -3 10 19 12 20 12 20 0z
m753 -5 c-3 -9 -8 -14 -10 -11 -3 3 -2 9 2 15 9 16 15 13 8 -4z m-873 -5 c0
-5 -5 -10 -11 -10 -5 0 -7 5 -4 10 3 6 8 10 11 10 2 0 4 -4 4 -10z m340 -20
c0 -5 -4 -10 -10 -10 -5 0 -10 5 -10 10 0 6 5 10 10 10 6 0 10 -4 10 -10z
m130 0 c0 -5 -5 -10 -11 -10 -5 0 -7 5 -4 10 3 6 8 10 11 10 2 0 4 -4 4 -10z
m717 -12 c-3 -8 -6 -5 -6 6 -1 11 2 17 5 13 3 -3 4 -12 1 -19z m153 -13 c0 -8
-4 -15 -10 -15 -5 0 -10 7 -10 15 0 8 5 15 10 15 6 0 10 -7 10 -15z m-185 -5
c3 -5 1 -10 -4 -10 -6 0 -11 5 -11 10 0 6 2 10 4 10 3 0 8 -4 11 -10z m329
-49 c-7 -9 -24 13 -24 32 0 21 1 21 13 -3 8 -14 12 -27 11 -29z m-186 14 c-3
-3 -9 2 -12 12 -6 14 -5 15 5 6 7 -7 10 -15 7 -18z m137 -5 c3 -5 -3 -10 -15
-10 -12 0 -18 5 -15 10 3 6 10 10 15 10 5 0 12 -4 15 -10z m-890 -20 c3 -5 1
-10 -4 -10 -6 0 -11 5 -11 10 0 6 2 10 4 10 3 0 8 -4 11 -10z m159 -5 c-4 -8
-8 -15 -10 -15 -2 0 -4 7 -4 15 0 8 4 15 10 15 5 0 7 -7 4 -15z m163 -10 c0
-8 -4 -15 -9 -15 -4 0 -8 7 -8 15 0 8 4 15 8 15 5 0 9 -7 9 -15z m156 -10 c-3
-9 -8 -14 -10 -11 -3 3 -2 9 2 15 9 16 15 13 8 -4z m187 11 c0 -3 -4 -8 -10
-11 -5 -3 -10 -1 -10 4 0 6 5 11 10 11 6 0 10 -2 10 -4z m-30 -20 c0 -3 -4 -8
-10 -11 -5 -3 -10 -1 -10 4 0 6 5 11 10 11 6 0 10 -2 10 -4z"/>
<path d="M495 5300 c-8 -13 3 -30 21 -30 18 0 18 14 0 29 -10 8 -16 9 -21 1z"/>
<path d="M1495 5550 c-19 -7 -19 -7 3 -14 26 -9 41 -1 26 13 -5 5 -18 5 -29 1z"/>
<path d="M1650 5470 c8 -5 20 -10 25 -10 6 0 3 5 -5 10 -8 5 -19 10 -25 10 -5
0 -3 -5 5 -10z"/>
<path d="M2080 5259 c0 -5 5 -7 10 -4 6 3 10 8 10 11 0 2 -4 4 -10 4 -5 0 -10
-5 -10 -11z"/>
<path d="M2092 5215 c0 -16 2 -22 5 -12 2 9 2 23 0 30 -3 6 -5 -1 -5 -18z"/>
<path d="M3150 5140 c-8 -5 -12 -11 -9 -14 3 -3 14 1 25 9 21 16 8 20 -16 5z"/>
<path d="M3070 5100 c-8 -5 -10 -10 -5 -10 6 0 17 5 25 10 8 5 11 10 5 10 -5
0 -17 -5 -25 -10z"/>
<path d="M2095 3767 c0 -127 1 -132 23 -142 26 -11 24 -26 -5 -39 -18 -9 -20
-18 -19 -105 l1 -96 -102 -34 c-56 -19 -100 -37 -97 -42 2 -4 11 -6 19 -2 30
11 14 -17 -17 -32 l-33 -15 32 6 c17 3 34 1 37 -4 9 -15 -18 -32 -60 -39 -33
-5 -37 -4 -31 11 4 10 7 24 7 31 0 8 6 20 14 27 11 12 11 17 0 33 -12 16 -14
16 -14 2 0 -9 -7 -20 -16 -25 -8 -5 -16 -17 -18 -28 -2 -10 -14 -25 -27 -31
-33 -17 -52 -16 -45 2 3 8 9 22 12 30 3 8 2 15 -3 15 -14 0 -39 -31 -47 -57
-5 -17 -49 -43 -72 -43 -19 0 24 70 43 70 14 1 56 40 50 46 -3 4 -13 -1 -22
-10 -22 -21 -28 -20 -22 4 4 17 1 19 -19 14 -19 -5 -24 -1 -29 23 -4 15 -13
48 -21 72 -8 25 -14 56 -14 70 -1 14 -7 40 -15 56 l-14 30 5 -45 c2 -25 13
-99 22 -166 15 -101 16 -126 5 -152 -7 -18 -19 -32 -26 -32 -6 0 -23 -3 -37
-6 l-25 -6 24 21 c27 24 21 26 -22 7 -18 -7 -54 -22 -82 -31 -93 -33 -165 -74
-159 -90 11 -27 116 14 111 44 -1 7 4 16 11 18 6 3 12 -2 12 -11 0 -20 4 -20
41 0 34 17 45 14 36 -11 -6 -14 -16 -17 -64 -19 -10 -1 -22 -6 -28 -12 -5 -6
-32 -17 -59 -23 -27 -7 -58 -19 -70 -27 -23 -16 -36 -18 -36 -6 0 5 12 13 28
19 24 9 25 11 9 18 -22 9 -64 -28 -107 -96 -65 -101 -19 -213 120 -291 25 -14
108 -49 185 -78 77 -28 164 -61 193 -72 29 -11 55 -18 58 -15 5 4 -33 279 -39
282 -1 0 -21 9 -44 20 -48 20 -53 30 -20 39 39 10 57 7 57 -11 1 -17 1 -17 14
0 24 31 327 115 380 105 19 -4 27 0 31 13 3 10 20 22 38 28 33 10 155 41 163
41 2 0 5 -39 5 -87 1 -49 4 -101 8 -118 l6 -30 22 45 c12 25 36 80 54 124 30
74 34 79 83 102 54 25 76 30 76 15 0 -5 19 -2 42 6 30 10 43 11 48 3 4 -7 10
-12 13 -12 46 0 60 -28 27 -51 -11 -8 -17 -17 -13 -20 3 -4 -4 -7 -16 -7 -17
0 -22 -4 -17 -16 3 -9 6 -18 6 -20 0 -2 7 -4 15 -4 17 0 20 -16 6 -24 -5 -4
-11 -1 -13 6 -4 10 -10 10 -29 2 -15 -7 -33 -8 -48 -2 -28 10 -40 3 -23 -14 7
-7 12 -21 11 -33 -1 -17 -2 -16 -8 5 -6 19 -10 4 -19 -60 -27 -202 -62 -601
-61 -690 0 -47 2 -51 10 -30 6 14 9 39 7 57 -3 24 1 33 14 36 21 6 28 0 29
-27 1 -40 20 23 49 164 16 74 33 146 38 160 5 14 19 88 31 165 12 77 28 181
37 230 8 50 17 105 20 123 4 27 9 33 27 30 18 -2 24 4 32 39 6 23 13 45 17 48
8 9 77 22 176 35 84 11 118 27 167 77 41 42 71 128 61 176 -23 115 -102 175
-241 184 -44 3 -98 0 -120 -6 -108 -28 -211 -57 -220 -62 -5 -3 -39 -14 -75
-23 -36 -10 -83 -24 -105 -31 -22 -8 -57 -17 -77 -21 -45 -7 -42 -21 -38 163
l2 131 -32 17 c-18 9 -62 38 -99 64 -36 26 -70 50 -76 53 -6 4 -10 -40 -10
-125z m89 -53 c9 -3 16 -10 16 -15 0 -14 -26 -10 -40 6 -13 16 -3 20 24 9z
m-25 -33 c11 -7 12 -15 5 -32 -9 -20 -11 -20 -27 -5 -9 9 -14 23 -11 31 7 17
13 18 33 6z m45 -56 c-4 -8 -10 -12 -15 -9 -11 6 -2 24 11 24 5 0 7 -7 4 -15z
m-14 -49 c0 -24 -26 -38 -40 -22 -6 9 -9 20 -5 26 9 15 45 12 45 -4z m60 -20
c0 -2 -3 -11 -6 -20 -9 -23 -24 -20 -24 4 0 11 7 20 15 20 8 0 15 -2 15 -4z
m-90 -40 c0 -3 -4 -8 -10 -11 -5 -3 -10 -1 -10 4 0 6 5 11 10 11 6 0 10 -2 10
-4z m-27 -186 c22 0 21 -1 -3 -20 -34 -26 -40 -25 -40 8 0 32 13 52 18 28 2
-9 13 -16 25 -16z m115 21 c11 -7 11 -9 -1 -14 -16 -6 -27 0 -27 15 0 10 11
10 28 -1z m-230 -33 c-37 -13 -36 -27 1 -22 16 3 32 0 36 -6 9 -15 3 -20 -31
-24 -16 -2 -36 -6 -44 -8 -10 -2 -15 5 -15 22 0 36 13 50 49 49 l31 -1 -27
-10z m-198 -104 c0 -8 -9 -14 -19 -14 -11 0 -23 -4 -26 -10 -3 -5 -15 -10 -26
-10 -33 0 -18 32 21 45 39 14 50 11 50 -11z m-118 -29 c0 -6 -6 -13 -14 -16
-7 -3 -23 -11 -35 -17 -29 -15 -33 -15 -33 3 0 8 15 21 33 29 35 16 48 16 49
1z m-207 -34 c-6 -5 -23 -12 -40 -16 l-30 -6 25 15 c28 17 60 22 45 7z m90
-10 c-25 -24 -79 -38 -73 -19 6 16 47 38 73 38 19 0 19 0 0 -19z m-250 -51
c-3 -5 -12 -10 -18 -10 -7 0 -6 4 3 10 19 12 23 12 15 0z"/>
<path d="M3496 3663 c5 -31 4 -33 -23 -34 -15 0 -38 -2 -50 -5 -22 -4 -32 9
-15 19 4 2 1 2 -5 1 -7 -2 -13 3 -13 11 0 8 -5 15 -10 15 -7 0 -7 -6 -1 -19
12 -21 9 -25 -53 -56 -55 -28 -96 -87 -96 -139 1 -32 3 -37 11 -24 7 13 21 16
57 14 40 -2 47 -6 50 -24 4 -27 22 -29 22 -3 0 27 39 71 77 87 56 24 127 -3
163 -62 13 -20 26 -31 29 -25 7 11 49 9 70 -3 10 -7 11 -3 6 13 -9 30 0 26 24
-11 19 -30 21 -31 21 -10 0 12 -10 41 -21 64 l-21 42 29 25 c41 37 54 55 63
96 9 40 4 46 -9 12 -8 -20 -17 -24 -65 -26 -36 -1 -56 2 -56 9 0 7 -9 5 -22
-4 -27 -19 -66 -20 -105 -4 -15 6 -31 11 -35 10 -5 -1 -7 1 -6 6 0 4 -4 18
-10 32 -12 24 -12 23 -6 -7z m275 -70 c-12 -20 -14 -14 -5 12 4 9 9 14 11 11
3 -2 0 -13 -6 -23z"/>
<path d="M3695 3650 c-3 -5 -1 -10 4 -10 6 0 11 5 11 10 0 6 -2 10 -4 10 -3 0
-8 -4 -11 -10z"/>
<path d="M2825 3640 c-3 -5 -1 -10 4 -10 6 0 11 5 11 10 0 6 -2 10 -4 10 -3 0
-8 -4 -11 -10z"/>
<path d="M1560 3603 c0 -4 5 -15 10 -23 8 -13 10 -13 10 2 0 9 -4 20 -10 23
-5 3 -10 3 -10 -2z"/>
<path d="M1026 3480 c4 -8 19 -30 32 -48 14 -18 21 -36 16 -41 -40 -33 -86
-61 -93 -57 -5 3 -11 28 -13 56 -6 60 -12 68 -38 52 -11 -7 -27 -12 -35 -12
-8 0 -15 -8 -16 -17 -1 -12 -4 -10 -9 7 -5 16 -8 19 -9 8 -1 -12 -6 -15 -17
-11 -9 3 -12 9 -7 12 5 3 1 14 -9 24 -17 16 -18 16 -18 -10 0 -16 7 -75 15
-133 15 -105 16 -106 81 -198 1 -2 56 35 122 82 65 47 123 86 128 86 14 0 74
-98 81 -131 3 -17 11 -28 18 -26 6 3 48 31 94 63 87 62 85 59 36 92 -17 12
-85 100 -85 110 0 5 23 20 50 33 42 20 64 39 45 39 -13 0 -83 -40 -94 -54 -17
-20 -50 -20 -75 -1 -23 17 -56 20 -56 5 0 -5 -14 -10 -31 -10 -26 0 -30 3 -25
23 3 12 3 16 0 10 -10 -22 -32 -14 -65 25 -17 20 -28 30 -23 22z"/>
<path d="M1843 3402 c0 -12 5 -22 9 -22 11 0 10 12 -2 30 -7 12 -9 10 -7 -8z"/>
<path d="M360 3373 c-81 -28 -167 -95 -213 -166 l-18 -28 52 -71 53 -70 12 40
c27 93 94 162 156 162 65 0 74 -43 39 -174 -11 -44 -21 -94 -20 -110 l1 -31
11 33 c7 18 17 36 23 40 6 4 14 14 17 22 4 10 6 7 6 -8 1 -19 5 -22 30 -17 27
5 29 2 36 -38 7 -33 9 -37 12 -17 2 14 18 70 35 125 36 120 35 171 -8 239 -21
33 -42 51 -76 66 -55 24 -87 25 -148 3z"/>
<path d="M3730 3272 c0 -6 -15 -25 -32 -42 -25 -24 -27 -29 -10 -21 25 13 58
58 48 68 -3 3 -6 1 -6 -5z"/>
<path d="M3620 3180 c-8 -5 -10 -10 -5 -10 6 0 17 5 25 10 8 5 11 10 5 10 -5
0 -17 -5 -25 -10z"/>
<path d="M800 2983 c0 -6 -3 -20 -6 -30 -6 -14 -4 -16 6 -6 10 9 17 7 32 -10
17 -20 18 -20 9 -2 -15 32 -40 61 -41 48z"/>
<path d="M741 2910 c-13 -11 -19 -20 -14 -20 6 0 20 9 33 20 30 26 12 26 -19
0z"/>
<path d="M873 2883 c6 -10 -72 -73 -180 -146 -22 -15 -47 -35 -55 -45 -11 -15
-11 -16 2 -6 8 6 68 48 133 93 64 45 117 86 117 91 0 5 -5 12 -12 16 -6 4 -8
3 -5 -3z"/>
<path d="M2080 2731 c0 -12 -6 -29 -14 -37 -16 -15 -42 -19 -48 -6 -4 9 -65
52 -74 52 -4 0 -4 -20 -1 -45 7 -49 -7 -70 -23 -33 -18 41 -2 -213 36 -569 9
-84 17 -178 18 -210 l1 -58 -155 -2 c-297 -4 -324 -9 -357 -77 -31 -66 8 -123
140 -207 307 -194 459 -317 498 -402 35 -78 26 -138 -44 -289 -44 -94 -56
-148 -34 -148 16 0 93 142 133 248 39 102 29 200 -30 276 -26 35 -26 35 -26
221 l0 186 118 -2 c141 -1 274 14 362 43 78 25 134 77 175 164 24 51 27 66 23
128 -3 44 -14 92 -29 126 -26 60 -80 149 -90 150 -4 0 -12 -39 -19 -87 -23
-169 -38 -246 -52 -258 -17 -16 -117 -37 -200 -43 l-68 -4 5 93 c3 61 10 97
19 108 8 9 18 37 21 61 4 25 3 40 -2 34 -4 -6 -16 -13 -26 -17 -21 -8 -20 -30
-18 331 0 139 -3 222 -9 222 -6 0 -10 -36 -10 -85 0 -62 -3 -85 -13 -85 -7 0
-48 18 -91 40 -43 22 -82 40 -87 40 -5 0 -9 -55 -9 -122 l0 -123 98 -50 97
-50 0 -205 0 -205 -90 -7 c-49 -4 -93 -4 -96 0 -4 4 -10 212 -14 462 -4 250
-9 457 -11 459 -2 2 -4 -6 -4 -18z m-120 -201 c0 -5 -4 -10 -10 -10 -5 0 -10
5 -10 10 0 6 5 10 10 10 6 0 10 -4 10 -10z m-5 -30 c3 -5 1 -10 -4 -10 -6 0
-11 5 -11 10 0 6 2 10 4 10 3 0 8 -4 11 -10z m14 -92 c0 -28 -2 -30 -9 -13
-12 28 -12 45 0 45 6 0 10 -15 9 -32z m25 -373 c-4 -8 -11 -12 -16 -9 -6 4 -5
10 3 15 19 12 19 11 13 -6z m16 -87 c0 -7 -5 -20 -10 -28 -8 -12 -10 -9 -10
13 0 15 5 27 10 27 6 0 10 -6 10 -12z m50 -97 c0 -10 -24 -21 -46 -21 -12 0
-13 3 -2 15 14 16 48 20 48 6z m-490 -60 c0 -6 -4 -13 -10 -16 -5 -3 -10 1
-10 9 0 9 5 16 10 16 6 0 10 -4 10 -9z m70 0 c0 -6 -4 -13 -10 -16 -5 -3 -10
1 -10 9 0 9 5 16 10 16 6 0 10 -4 10 -9z m80 0 c0 -14 -18 -23 -30 -16 -6 4
-8 11 -5 16 8 12 35 12 35 0z m110 -146 c157 -15 270 -31 237 -34 -10 0 -15
-5 -12 -11 9 -14 -29 -12 -43 2 -9 9 -12 1 -12 -38 0 -28 3 -54 7 -57 3 -4 7
-30 8 -58 1 -27 8 -55 15 -62 10 -10 12 -7 7 12 -3 13 0 32 6 42 9 15 9 21 1
27 -17 11 -16 92 1 92 11 0 14 -19 14 -82 -1 -105 -1 -106 11 -88 7 11 10 8
10 -16 0 -17 -7 -37 -15 -44 -18 -15 -12 -44 15 -73 19 -19 32 -77 19 -77 -4
0 -34 32 -66 72 -32 39 -82 98 -110 130 -29 32 -53 64 -53 71 0 7 -56 55 -125
106 -121 90 -141 113 -93 104 13 -2 93 -10 178 -18z"/>
<path d="M583 2654 l-28 -26 33 22 c29 20 39 30 28 30 -3 0 -18 -12 -33 -26z"/>
<path d="M525 2619 c-11 -17 1 -21 15 -4 8 9 8 15 2 15 -6 0 -14 -5 -17 -11z"/>
<path d="M2402 2465 c0 -16 2 -22 5 -12 2 9 2 23 0 30 -3 6 -5 -1 -5 -18z"/>
<path d="M2380 2353 c0 -5 5 -15 10 -23 8 -12 10 -11 10 8 0 12 -4 22 -10 22
-5 0 -10 -3 -10 -7z"/>
<path d="M2371 2248 c0 -28 2 -30 9 -13 12 28 12 45 0 45 -5 0 -10 -15 -9 -32z"/>
<path d="M2342 1955 c0 -16 2 -22 5 -12 2 9 2 23 0 30 -3 6 -5 -1 -5 -18z"/>
<path d="M2302 1318 c-1 -76 2 -138 7 -138 10 0 23 41 16 49 -3 2 -6 -2 -7
-10 -1 -8 -5 42 -8 111 l-6 125 -2 -137z"/>
<path d="M335 531 c-18 -7 -15 -10 19 -25 21 -9 43 -16 49 -16 6 0 18 -7 27
-15 9 -8 41 -19 71 -25 30 -6 56 -15 57 -20 5 -12 27 -13 50 -1 19 10 211 31
287 31 28 0 68 5 90 10 22 5 130 16 240 25 110 8 220 19 245 23 40 6 33 8 -55
13 -145 10 -1056 9 -1080 0z"/>
<path d="M2835 530 l-160 -5 130 -13 c72 -7 175 -17 230 -22 282 -28 320 -33
323 -41 2 -5 23 -9 46 -9 24 0 58 -5 76 -11 25 -9 34 -9 40 2 7 11 13 11 36
-1 42 -23 137 -20 166 5 28 25 97 59 158 77 l45 13 -75 6 c-89 8 -788 7 -1015
-1z"/>
</g>
</svg>
