<?xml version="1.0" encoding="UTF-8"?>
<svg xmlns="http://www.w3.org/2000/svg" xmlns:xlink="http://www.w3.org/1999/xlink" width="506.44pt" height="475.98pt" viewBox="0 0 506.44 475.98" version="1.1">
<defs>
<clipPath id="clip1">
  <path d="M 386 161 L 506.441406 161 L 506.441406 392 L 386 392 Z M 386 161 "/>
</clipPath>
<clipPath id="clip2">
  <path d="M 0 411 L 49 411 L 49 475.980469 L 0 475.980469 Z M 0 411 "/>
</clipPath>
<clipPath id="clip3">
  <path d="M 49 411 L 96 411 L 96 475.980469 L 49 475.980469 Z M 49 411 "/>
</clipPath>
<clipPath id="clip4">
  <path d="M 98 411 L 144 411 L 144 475.980469 L 98 475.980469 Z M 98 411 "/>
</clipPath>
<clipPath id="clip5">
  <path d="M 146 411 L 193 411 L 193 475.980469 L 146 475.980469 Z M 146 411 "/>
</clipPath>
<clipPath id="clip6">
  <path d="M 220 411 L 266 411 L 266 475.980469 L 220 475.980469 Z M 220 411 "/>
</clipPath>
<clipPath id="clip7">
  <path d="M 269 411 L 322 411 L 322 475.980469 L 269 475.980469 Z M 269 411 "/>
</clipPath>
<clipPath id="clip8">
  <path d="M 312 411 L 364 411 L 364 475.980469 L 312 475.980469 Z M 312 411 "/>
</clipPath>
<clipPath id="clip9">
  <path d="M 353 411 L 406 411 L 406 475.980469 L 353 475.980469 Z M 353 411 "/>
</clipPath>
<clipPath id="clip10">
  <path d="M 406 411 L 457 411 L 457 475.980469 L 406 475.980469 Z M 406 411 "/>
</clipPath>
<clipPath id="clip11">
  <path d="M 459 411 L 505 411 L 505 475.980469 L 459 475.980469 Z M 459 411 "/>
</clipPath>
</defs>
<g id="surface1">
<path style=" stroke:none;fill-rule:nonzero;fill:rgb(13.699341%,12.199402%,12.5%);fill-opacity:1;" d="M 253.730469 282.847656 C 253.53125 280.476563 253.441406 278.839844 253.238281 277.21875 C 253.164063 276.644531 252.878906 276.066406 252.554688 275.582031 C 252.453125 275.433594 251.621094 275.535156 251.609375 275.597656 C 251.367188 277.164063 250.859375 278.800781 251.128906 280.289063 C 251.292969 281.191406 252.683594 281.875 253.730469 282.847656 Z M 175.15625 172.734375 C 177.085938 174.703125 180.058594 174.480469 180.863281 172.71875 C 181.164063 172.054688 181.101563 171.078125 180.832031 170.386719 C 180.734375 170.132813 179.445313 170.046875 178.914063 170.308594 C 177.667969 170.929688 176.554688 171.808594 175.15625 172.734375 Z M 137.175781 228.8125 C 135.195313 228.527344 133.707031 229.367188 133.960938 231.367188 C 134.183594 233.132813 134.273438 236.03125 136.808594 235.695313 C 138.234375 235.507813 140.035156 233.320313 140.453125 231.714844 C 140.882813 230.078125 139.472656 228.464844 137.175781 228.8125 Z M 245.875 336.257813 C 245.484375 338.710938 245.195313 340.382813 244.964844 342.058594 C 244.902344 342.492188 244.855469 343.074219 245.082031 343.382813 C 245.710938 344.230469 246.621094 345.699219 247.171875 345.597656 C 248.210938 345.402344 249.558594 344.453125 249.902344 343.5 C 250.425781 342.058594 250.835938 339.933594 250.132813 338.851563 C 249.1875 337.390625 247.671875 335.164063 245.875 336.257813 Z M 140.085938 185.457031 C 137.699219 180.46875 131.199219 174.582031 125.800781 172.886719 C 126.496094 174.328125 126.726563 175.601563 127.488281 176.238281 C 131.359375 179.484375 135.367188 182.566406 139.34375 185.6875 C 139.421875 185.746094 139.671875 185.59375 140.085938 185.457031 Z M 376.390625 205.894531 C 376.269531 205.890625 376.144531 205.890625 376.023438 205.886719 C 375.132813 208.707031 374.300781 211.550781 373.332031 214.347656 C 372.738281 216.050781 371.703125 217.625 371.304688 219.359375 C 371.035156 220.535156 371.527344 221.882813 371.679688 223.148438 C 372.636719 222.628906 373.9375 222.332031 374.464844 221.527344 C 375.363281 220.148438 376.191406 218.484375 376.308594 216.882813 C 376.574219 213.238281 376.390625 209.558594 376.390625 205.894531 Z M 270.378906 214.632813 C 270.546875 214.578125 270.714844 214.527344 270.882813 214.472656 C 270.273438 212.425781 269.769531 210.34375 269.027344 208.347656 C 268.289063 206.351563 267.113281 207.050781 266.179688 208.207031 C 264.234375 210.621094 264.164063 214.863281 266.140625 217.410156 C 266.925781 218.421875 268.132813 219.105469 269.144531 219.9375 C 269.554688 218.628906 270 217.332031 270.359375 216.011719 C 270.476563 215.582031 270.378906 215.09375 270.378906 214.632813 Z M 283.964844 306.8125 C 284.210938 306.960938 284.457031 307.105469 284.707031 307.25 C 285.3125 306.816406 285.996094 306.460938 286.515625 305.941406 C 289.253906 303.207031 291.996094 300.476563 294.621094 297.636719 C 295.222656 296.984375 295.371094 295.914063 295.726563 295.035156 C 294.652344 295.257813 293.46875 295.269531 292.53125 295.75 C 290.238281 296.929688 287.996094 298.234375 285.871094 299.691406 C 285.042969 300.257813 284.242188 301.292969 284.042969 302.242188 C 283.738281 303.707031 283.964844 305.285156 283.964844 306.8125 Z M 212.519531 309.25 C 212.695313 308.394531 212.773438 307.957031 212.878906 307.527344 C 213.144531 306.429688 213.421875 305.332031 213.695313 304.238281 C 214.691406 304.90625 215.742188 305.503906 216.671875 306.257813 C 218.433594 307.683594 220.125 309.199219 221.976563 310.792969 C 222.390625 309.953125 222.523438 309.796875 222.539063 309.628906 C 222.910156 305.585938 217.628906 300.285156 213.503906 301.058594 C 212.128906 301.3125 210.5 303.167969 210.058594 304.617188 C 209.601563 306.113281 210.128906 308.179688 212.519531 309.25 Z M 379.863281 170.75 C 375.429688 170.0625 372.015625 172.164063 368.59375 173.964844 C 365.976563 175.34375 364.6875 177.902344 364.238281 180.820313 C 364.121094 181.578125 364.089844 182.351563 364.015625 183.121094 C 364.742188 182.789063 365.832031 182.652344 366.132813 182.09375 C 368.761719 177.183594 373.582031 175.027344 378.011719 172.355469 C 378.699219 171.9375 379.25 171.289063 379.863281 170.75 Z M 233.242188 194.53125 C 232.085938 192.417969 230.824219 189.734375 229.167969 187.320313 C 228.6875 186.621094 227.070313 186.699219 225.976563 186.421875 C 225.949219 188.035156 222.78125 188.730469 224.8125 191.054688 C 226.226563 192.675781 227.089844 194.765625 228.410156 196.484375 C 229.230469 197.550781 230.441406 198.308594 231.476563 199.199219 C 231.96875 197.898438 232.460938 196.597656 233.242188 194.53125 Z M 298.570313 307.949219 C 301.183594 308.066406 303.421875 308.042969 300.976563 304.808594 C 300.25 303.847656 299.921875 302.507813 299.664063 301.285156 C 299.152344 298.867188 297.929688 299.367188 296.9375 300.703125 C 295.214844 303.019531 293.65625 305.476563 292.203125 307.972656 C 290.488281 310.925781 291.394531 312.460938 294.863281 312.808594 C 300.015625 313.320313 300.25 313.050781 298.570313 307.949219 Z M 289.851563 187.074219 C 284.953125 187.003906 282.03125 189.464844 279.394531 192.328125 C 279.183594 192.558594 279.816406 194.191406 280.222656 194.269531 C 283.234375 194.832031 286.292969 195.128906 289.324219 195.585938 C 290.96875 195.835938 292.582031 196.265625 294.222656 196.554688 C 294.625 196.628906 295.070313 196.472656 295.496094 196.421875 C 295.414063 195.9375 295.464844 195.375 295.230469 194.984375 C 293.898438 192.78125 292.527344 190.597656 291.105469 188.449219 C 290.667969 187.785156 290.023438 187.261719 289.851563 187.074219 Z M 239.3125 332.675781 C 235.273438 332.617188 228.945313 336.886719 227.566406 340.921875 C 227.246094 341.859375 228.050781 343.179688 228.335938 344.320313 C 229.257813 343.765625 230.21875 343.257813 231.09375 342.632813 C 231.734375 342.171875 232.253906 341.554688 232.828125 341.007813 C 233.148438 341.667969 233.464844 342.332031 233.78125 342.992188 C 234.039063 343.535156 234.175781 344.371094 234.585938 344.535156 C 234.996094 344.699219 235.851563 344.359375 236.210938 343.96875 C 238.238281 341.75 240.359375 339.578125 242.09375 337.140625 C 243.710938 334.867188 242.246094 332.714844 239.3125 332.675781 Z M 288.695313 182.0625 C 295.890625 179.972656 302.800781 181.746094 309.273438 179.722656 C 309.277344 179.359375 309.28125 178.996094 309.285156 178.636719 C 306.472656 178.0625 303.65625 177.484375 300.09375 176.753906 C 301.554688 175.847656 302.46875 175.355469 303.289063 174.742188 C 303.789063 174.363281 304.144531 173.789063 304.5625 173.304688 C 303.96875 173.050781 303.390625 172.632813 302.777344 172.582031 C 301.328125 172.460938 299.839844 172.351563 298.402344 172.53125 C 295.8125 172.855469 293.105469 173.054688 290.757813 174.046875 C 290 174.371094 290.289063 177.03125 289.976563 178.597656 C 289.804688 179.453125 289.378906 180.257813 288.695313 182.0625 Z M 131.335938 227.832031 C 132.347656 226.308594 132.800781 225.003906 133.289063 224.992188 C 137.121094 224.894531 135.5 223.039063 134.589844 221.359375 C 134.21875 220.667969 133.878906 219.960938 133.359375 218.929688 C 135.691406 218.464844 136.472656 219.914063 137.375 221.191406 C 137.894531 221.929688 138.335938 222.902344 139.058594 223.25 C 139.734375 223.574219 140.742188 223.207031 141.605469 223.144531 C 141.398438 222.4375 141.285156 221.6875 140.96875 221.03125 C 140.113281 219.265625 139.171875 217.539063 138.269531 215.792969 C 137.820313 214.929688 137.574219 213.84375 136.898438 213.238281 C 134.828125 211.386719 132.59375 209.71875 130.167969 207.773438 C 127.886719 211.816406 130.941406 215.351563 130.117188 219.675781 C 128.835938 218.015625 127.828125 216.714844 126.824219 215.414063 C 126.546875 215.5625 126.273438 215.710938 125.996094 215.855469 C 127.710938 219.695313 129.421875 223.539063 131.335938 227.832031 Z M 219.773438 186.566406 C 219.980469 186.441406 220.1875 186.3125 220.394531 186.1875 C 219.960938 185.527344 219.59375 184.8125 219.082031 184.222656 C 217.144531 181.980469 214.5 180.421875 213.539063 177.222656 C 213.222656 176.152344 211.039063 175.527344 209.609375 174.941406 C 208.472656 174.480469 207.191406 174.351563 205.964844 174.132813 C 202.203125 173.464844 197.496094 173.070313 194.578125 176.824219 C 193.140625 178.671875 193.324219 180.140625 195.574219 180.558594 C 198.6875 181.140625 201.855469 181.519531 205.019531 181.742188 C 208.898438 182.015625 212.929688 181.28125 216.128906 184.503906 C 217.074219 185.460938 218.542969 185.894531 219.773438 186.566406 Z M 223.265625 195.808594 C 223.351563 196.160156 223.4375 196.511719 223.523438 196.859375 C 224.035156 196.605469 224.859375 196.453125 224.980469 196.074219 C 225.121094 195.617188 224.84375 194.726563 224.445313 194.445313 C 221.570313 192.429688 218.671875 190.429688 215.640625 188.667969 C 215.199219 188.414063 213.351563 189.351563 213.261719 189.914063 C 212.429688 195.1875 208.847656 196.808594 204.171875 197.390625 C 199.734375 197.941406 195.832031 195.441406 194.515625 191.261719 C 194.164063 190.144531 192.875 189.320313 192.015625 188.363281 C 190.914063 189.429688 189.507813 190.332031 188.835938 191.617188 C 188.457031 192.339844 188.949219 194.066406 189.640625 194.703125 C 194.203125 198.890625 199.871094 199.480469 205.648438 198.757813 C 211.550781 198.023438 217.394531 196.8125 223.265625 195.808594 Z M 276.195313 337.597656 C 276.65625 337.511719 277.121094 337.421875 277.585938 337.335938 C 278.441406 338.84375 279.238281 340.390625 280.171875 341.851563 C 281.011719 343.164063 281.996094 344.386719 282.921875 345.648438 C 283.902344 344.191406 285.242188 342.855469 285.792969 341.246094 C 286.976563 337.78125 286.273438 335 284.394531 333.796875 C 281.144531 331.722656 278.972656 332.074219 276.171875 334.753906 C 275.433594 335.460938 273.847656 336.113281 273.066406 335.789063 C 270.058594 334.546875 267.707031 334.851563 265.359375 337.164063 C 264.261719 338.246094 264.078125 339.054688 265.414063 340.058594 C 267.738281 341.8125 269.988281 343.660156 272.292969 345.4375 C 272.964844 345.957031 273.71875 346.367188 274.4375 346.828125 C 274.730469 346.015625 275.148438 345.222656 275.285156 344.382813 C 275.65625 342.132813 275.902344 339.859375 276.195313 337.597656 Z M 230.886719 281.65625 C 230.570313 282.152344 230.359375 282.363281 230.292969 282.609375 C 229.183594 286.851563 228.671875 286.96875 224.796875 285.296875 C 223.398438 284.695313 221.527344 284.859375 219.957031 285.144531 C 219.203125 285.28125 218.160156 286.503906 218.144531 287.25 C 218.128906 288 219.136719 289.320313 219.855469 289.441406 C 222.488281 289.886719 225.011719 290.71875 227.859375 289.070313 C 230.523438 287.523438 233.9375 286.210938 236.878906 286.46875 C 240.640625 286.796875 244.710938 287.242188 247.765625 290.644531 C 250.785156 294.007813 253.296875 293.363281 256.917969 290.628906 C 259.511719 288.664063 261.574219 285.289063 265.757813 286.039063 C 268.667969 286.558594 271.636719 286.957031 274.578125 286.960938 C 275.621094 286.964844 276.671875 285.636719 277.71875 284.914063 C 276.71875 284.117188 275.746094 282.671875 274.710938 282.625 C 268.546875 282.347656 262.464844 282.085938 256.683594 285.53125 C 254.523438 286.820313 251.214844 288.097656 248.230469 286.371094 C 246.046875 285.109375 243.820313 283.894531 241.769531 282.4375 C 240.074219 281.238281 238.664063 280.496094 237.046875 282.488281 C 235.871094 283.933594 234.464844 284.082031 232.949219 282.84375 C 232.398438 282.394531 231.707031 282.121094 230.886719 281.65625 Z M 233.261719 304.1875 C 233.769531 305.808594 233.914063 307.015625 234.503906 307.9375 C 235.078125 308.828125 236.054688 309.5 236.953125 310.121094 C 237.710938 310.644531 238.570313 311.113281 239.449219 311.328125 C 240.824219 311.664063 242.449219 311.339844 242.734375 313.5 C 242.773438 313.796875 244.847656 314.355469 245.332031 313.972656 C 247.613281 312.183594 248.320313 312.734375 248.839844 315.4375 C 249.238281 317.523438 251.03125 319.183594 253.21875 318.929688 C 255.761719 318.632813 253.730469 316.613281 254.015625 315.414063 C 254.210938 314.585938 254.53125 313.449219 255.136719 313.160156 C 255.644531 312.914063 256.789063 313.527344 257.382813 314.058594 C 257.933594 314.550781 257.964844 315.628906 258.515625 316.117188 C 259.679688 317.152344 261.195313 318.886719 262.273438 318.695313 C 264.691406 318.261719 266.984375 316.925781 269.226563 315.761719 C 270.773438 314.957031 270.75 314.246094 269.164063 313.015625 C 268.214844 312.285156 268.265625 310.261719 267.867188 308.820313 C 268.953125 308.726563 270.039063 308.628906 271.699219 308.484375 C 273.648438 307.109375 276.132813 305.140625 278.835938 303.539063 C 280.710938 302.425781 280.261719 300.828125 280 299.441406 C 279.898438 298.925781 278.324219 298.496094 277.375 298.371094 C 269.351563 297.335938 262.171875 299.855469 255.277344 303.652344 C 252.535156 305.160156 249.710938 304.972656 246.832031 303.78125 C 243.347656 302.339844 239.816406 300.988281 236.238281 299.796875 C 234.367188 299.171875 232.28125 298.457031 230.421875 298.714844 C 227.855469 299.070313 225.414063 300.304688 222.160156 301.421875 C 226.027344 304.070313 229.363281 305.363281 233.261719 304.1875 Z M 310.847656 289.136719 C 310.988281 288.921875 311.582031 288.410156 311.632813 287.847656 C 312.089844 283.074219 312.339844 278.269531 309.890625 273.890625 C 308.125 270.738281 306.070313 267.746094 304.246094 264.628906 C 302.722656 262.019531 303.054688 259.375 304.808594 257.085938 C 307.46875 253.605469 311.070313 251.6875 315.195313 250.613281 C 318.746094 249.691406 320.292969 248.261719 320.382813 244.84375 C 320.488281 240.863281 321.667969 237.148438 323.859375 234.089844 C 327.140625 229.503906 331.003906 225.316406 334.804688 221.132813 C 336.390625 219.390625 336.414063 217.835938 335.976563 215.660156 C 335.390625 212.761719 334.730469 209.476563 335.558594 206.804688 C 336.40625 204.054688 336.621094 201.789063 335.121094 199.566406 C 333.191406 196.695313 333.796875 194.605469 336.222656 192.394531 C 338.484375 190.332031 338.152344 188.222656 335.558594 186.261719 C 330.53125 191.699219 325.605469 197.261719 320.414063 202.558594 C 317.003906 206.03125 312.839844 208.214844 307.722656 208.035156 C 304.128906 207.910156 300.5 208.214844 296.945313 207.8125 C 293.4375 207.414063 289.824219 206.734375 287.398438 203.332031 C 291.183594 202.757813 294.730469 202.328125 298.234375 201.65625 C 301.828125 200.96875 305.867188 200.835938 308.441406 197.988281 C 310.117188 196.136719 312.019531 194.945313 314.027344 193.710938 C 314.414063 193.472656 314.921875 193.175781 315.035156 192.804688 C 315.265625 192.074219 315.617188 190.898438 315.277344 190.570313 C 314.132813 189.464844 312.761719 188.550781 311.34375 187.820313 C 311.09375 187.691406 310.046875 188.675781 309.660156 189.320313 C 308.84375 190.6875 308.183594 192.15625 307.519531 193.613281 C 307.121094 194.492188 306.835938 195.421875 306.5 196.332031 C 305.671875 197.257813 304.238281 198.054688 302.789063 198.089844 C 297.09375 198.222656 291.390625 198.160156 285.691406 198.058594 C 284.472656 198.039063 283.261719 197.550781 282.042969 197.304688 C 280.160156 196.929688 278.21875 196.28125 277.015625 198.636719 C 276.816406 199.019531 276.21875 199.199219 275.804688 199.476563 C 275.570313 199.390625 275.332031 199.308594 275.09375 199.226563 C 275.335938 197.984375 275.316406 196.609375 275.867188 195.53125 C 277.382813 192.5625 279.136719 189.722656 280.796875 186.828125 C 281.789063 185.097656 281.535156 183.507813 279.757813 182.632813 C 278.101563 181.8125 276.25 181.65625 275.433594 183.921875 C 274.917969 185.34375 274.523438 186.839844 274.3125 188.335938 C 273.855469 191.554688 273.40625 194.785156 273.21875 198.027344 C 272.992188 201.972656 273.003906 205.933594 272.996094 209.890625 C 272.996094 210.453125 273.371094 211.101563 273.746094 211.574219 C 276.746094 215.367188 279.617188 219.277344 282.855469 222.855469 C 286.679688 227.082031 287.425781 231.5 285.097656 236.683594 C 284.351563 238.351563 283.988281 240.328125 283.996094 242.160156 C 284.003906 243.894531 284.90625 245.605469 285.105469 247.359375 C 285.554688 251.265625 284.054688 254.671875 282.269531 258.058594 C 281.339844 259.824219 280.570313 261.917969 280.589844 263.851563 C 280.605469 265.234375 281.960938 266.671875 282.886719 267.960938 C 286.320313 272.714844 290.238281 275.566406 296.320313 272.886719 C 298.90625 271.75 302.445313 273.121094 303.550781 275.023438 C 306.121094 279.449219 308.285156 284.109375 310.847656 289.136719 Z M 197.355469 284.136719 C 198.257813 283.800781 198.738281 283.777344 198.910156 283.535156 C 203.015625 277.804688 209.503906 277.574219 215.535156 276.375 C 218.085938 275.867188 222.636719 271.613281 222.613281 268.941406 C 222.570313 263.046875 223.605469 257.007813 220.511719 251.417969 C 220.074219 250.621094 220.734375 249.21875 220.882813 248.09375 C 221.824219 248.46875 222.976563 248.613281 223.667969 249.257813 C 226.246094 251.652344 229.296875 252.023438 232.730469 251.019531 C 234.53125 250.492188 237.652344 250.425781 238.496094 251.488281 C 240.394531 253.875 242.402344 255.449219 245.199219 256.660156 C 251.949219 259.585938 259.222656 257.480469 263.230469 251.191406 C 264.382813 249.382813 265.796875 247.226563 268.53125 248.3125 C 271.214844 249.378906 273.882813 250.664063 276.710938 249.277344 C 278.3125 248.492188 280.144531 247.414063 280.945313 245.960938 C 281.976563 244.097656 282.273438 241.582031 280.394531 239.816406 C 278.53125 238.058594 276.511719 236.402344 274.351563 235.035156 C 270.417969 232.546875 266.941406 229.652344 265.027344 225.328125 C 264.347656 223.796875 264.242188 222 263.941406 220.3125 C 263.222656 216.292969 262 212.269531 261.972656 208.242188 C 261.921875 201.269531 261.890625 194.410156 259.027344 187.863281 C 256.894531 183.003906 258.316406 178.859375 262.503906 175.746094 C 266.132813 173.042969 269.953125 170.566406 272.246094 166.289063 C 273.535156 163.882813 275.503906 160.976563 277.828125 160.152344 C 283.933594 157.988281 290.386719 156.765625 296.734375 155.3125 C 300.347656 154.484375 304.023438 153.914063 307.679688 153.285156 C 309.742188 152.929688 311.851563 152.8125 313.890625 152.363281 C 316.382813 151.816406 318.796875 150.90625 321.289063 150.386719 C 323.578125 149.90625 326.476563 147.179688 326.238281 145.402344 C 325.589844 140.539063 320.949219 137.828125 316.328125 139.945313 C 312.558594 141.671875 308.675781 142.078125 304.65625 142.082031 C 300.640625 142.085938 296.695313 141.796875 293.050781 139.8125 C 289.78125 138.027344 289.089844 136.394531 290.53125 132.964844 C 292.914063 127.308594 295.667969 121.789063 297.707031 116.011719 C 299.417969 111.175781 299.960938 106.023438 297.320313 101.203125 C 295.417969 97.734375 293.441406 94.277344 291.164063 91.050781 C 288.019531 86.605469 284.605469 82.34375 281.21875 78.074219 C 278.457031 74.589844 275.566406 71.203125 272.332031 67.296875 C 277.941406 64.914063 283.296875 66.375 289.128906 66.023438 C 288.253906 65.082031 287.75 64.292969 287.035156 63.804688 C 281.371094 59.929688 274.699219 59.136719 268.242188 59.007813 C 258.625 58.816406 248.980469 59.652344 239.359375 60.234375 C 237.527344 60.347656 235.667969 61.132813 233.964844 61.921875 C 230.757813 63.410156 230.613281 64.429688 232.34375 67.6875 C 235.464844 73.574219 233.980469 78.996094 226.234375 78.542969 C 221.046875 78.238281 215.964844 79.257813 210.847656 80.605469 C 205.289063 82.070313 198.957031 91.179688 199.554688 96.160156 C 200.082031 100.566406 198.757813 105.007813 200.683594 109.464844 C 201.898438 112.269531 201.46875 115.746094 202.078125 118.863281 C 202.570313 121.386719 203.292969 123.914063 204.300781 126.277344 C 205.839844 129.898438 206.023438 131.644531 203.761719 133.640625 C 201.726563 135.4375 199.429688 136.996094 197.078125 138.367188 C 190.585938 142.148438 183.917969 145.628906 177.507813 149.539063 C 174.941406 151.101563 172.617188 153.277344 171.542969 156.855469 C 172.445313 156.578125 173.085938 156.539063 173.527344 156.226563 C 178.019531 153.027344 182.945313 151.234375 188.507813 151.675781 C 191.5 151.910156 194.511719 152.207031 197.441406 152.8125 C 200.992188 153.546875 204.554688 154.398438 207.953125 155.628906 C 212.660156 157.332031 217.210938 159.460938 221.847656 161.363281 C 227.589844 163.71875 233.472656 165.785156 239.078125 168.429688 C 244.179688 170.839844 244.8125 173.753906 242.890625 179.1875 C 241.628906 182.746094 240.460938 186.472656 240.140625 190.199219 C 239.828125 193.78125 240.699219 197.460938 240.964844 201.101563 C 241.011719 201.769531 240.84375 202.621094 240.445313 203.128906 C 238.382813 205.753906 236.113281 208.226563 234.121094 210.902344 C 233.371094 211.90625 232.816406 213.304688 232.773438 214.542969 C 232.554688 220.894531 232.507813 227.25 227.46875 232.132813 C 226.578125 232.996094 225.703125 233.878906 224.824219 234.75 C 224.507813 233.589844 224.347656 232.355469 223.839844 231.28125 C 222.066406 227.53125 221.507813 223.886719 222.53125 219.636719 C 223.847656 214.1875 224.59375 208.6875 228.148438 204.046875 C 228.777344 203.230469 228.554688 201.621094 228.394531 200.425781 C 228.339844 200.011719 227.296875 199.445313 226.695313 199.4375 C 222.832031 199.386719 218.964844 199.371094 215.105469 199.539063 C 208.902344 199.804688 202.703125 200.21875 196.507813 200.597656 C 196.21875 200.613281 195.945313 200.914063 195.601563 201.117188 C 201.617188 205.507813 208.535156 205.335938 215.480469 205.796875 C 214.046875 206.902344 212.605469 207.570313 211.085938 207.910156 C 208.328125 208.523438 205.378906 208.550781 202.777344 209.527344 C 198.4375 211.164063 194.605469 210.175781 190.664063 208.441406 C 185.875 206.335938 182.933594 202.292969 180.472656 198.105469 C 177.800781 193.546875 174.3125 189.953125 170.289063 186.714844 C 168.273438 185.085938 166.273438 185.328125 165.628906 187.320313 C 163.699219 193.261719 164.683594 199.269531 165.59375 205.164063 C 166.34375 210.039063 167.9375 214.785156 169.152344 219.589844 C 169.621094 221.4375 169.835938 223.390625 170.589844 225.109375 C 172.8125 230.167969 175.847656 234.75 179.824219 238.597656 C 182.492188 241.179688 185.453125 243.457031 188.28125 245.871094 C 189.050781 246.527344 189.742188 247.308594 190.597656 247.8125 C 194.253906 249.960938 195.449219 253.257813 193.984375 257.273438 C 193.742188 257.945313 193.601563 258.722656 193.65625 259.429688 C 194.121094 265.164063 194.5 270.914063 195.214844 276.621094 C 195.523438 279.085938 196.566406 281.453125 197.355469 284.136719 Z M 357.25 241.957031 C 356.4375 244.699219 355.730469 246.9375 355.132813 249.207031 C 354.898438 250.089844 354.878906 251.035156 354.828125 251.953125 C 354.417969 259.882813 354.09375 267.820313 353.570313 275.742188 C 353.429688 277.886719 352.949219 280.082031 352.210938 282.101563 C 349.914063 288.335938 347.761719 294.660156 344.890625 300.632813 C 342.746094 305.097656 339.609375 309.085938 336.863281 313.257813 C 332.316406 320.164063 327.808594 327.101563 323.128906 333.914063 C 320.453125 337.8125 317.636719 341.644531 314.574219 345.242188 C 310.359375 350.191406 305.960938 354.996094 301.433594 359.664063 C 296.824219 364.414063 291.382813 368.070313 285.210938 370.523438 C 281.03125 372.183594 276.785156 373.675781 272.570313 375.234375 C 272.398438 375.300781 272.21875 375.351563 272.039063 375.382813 C 264.246094 376.792969 256.332031 377.097656 248.523438 376.402344 C 243.796875 375.980469 239.070313 374.171875 234.617188 372.324219 C 229.136719 370.050781 223.820313 367.292969 218.667969 364.339844 C 215.230469 362.371094 211.960938 359.960938 209.039063 357.28125 C 200.246094 349.226563 191.605469 341 183.027344 332.710938 C 181.023438 330.773438 179.503906 328.332031 177.78125 326.105469 C 173.769531 320.910156 169.757813 315.714844 165.773438 310.5 C 161.726563 305.214844 159.621094 299.03125 157.894531 292.734375 C 156.847656 288.925781 156.128906 285.019531 155.480469 281.121094 C 154.527344 275.390625 153.726563 269.628906 152.945313 263.871094 C 152.441406 260.179688 152.300781 256.429688 151.613281 252.777344 C 151.085938 249.972656 149.953125 247.277344 148.980469 244.1875 C 146.859375 244.96875 144.898438 245.804688 142.863281 246.40625 C 138.964844 247.558594 132.90625 244.992188 131.039063 241.488281 C 129.21875 238.078125 127.1875 234.75 125.679688 231.203125 C 124.292969 227.929688 123.359375 224.445313 122.445313 220.996094 C 121.339844 216.8125 120.460938 212.570313 119.496094 208.347656 C 119.253906 207.296875 118.921875 206.242188 118.878906 205.179688 C 118.675781 200.117188 118.582031 195.050781 118.398438 189.988281 C 118.1875 184.054688 118.496094 178.171875 120.003906 172.40625 C 120.765625 169.503906 124.691406 167.644531 127.273438 169.074219 C 130.507813 170.859375 133.601563 172.894531 136.808594 174.726563 C 137.792969 175.289063 138.960938 175.53125 140.046875 175.917969 C 140.3125 174.828125 140.867188 173.722656 140.792969 172.65625 C 140.449219 167.730469 140.644531 162.609375 139.265625 157.96875 C 138.046875 153.863281 138.375 149.847656 138.054688 145.832031 C 137.429688 138.0625 137.066406 130.234375 137.273438 122.449219 C 137.46875 115.085938 138.179688 107.707031 140.375 100.566406 C 142.199219 94.632813 143.503906 88.523438 145.617188 82.703125 C 148.117188 75.8125 151.375 69.226563 156.132813 63.503906 C 159.632813 59.300781 162.703125 54.671875 166.601563 50.878906 C 170.675781 46.910156 175.328125 43.453125 180.054688 40.257813 C 185.464844 36.597656 191.066406 33.140625 196.898438 30.203125 C 202.292969 27.488281 208.035156 25.417969 213.734375 23.367188 C 218.9375 21.492188 224.269531 19.960938 229.578125 18.40625 C 231.527344 17.835938 233.574219 17.59375 235.585938 17.246094 C 240.855469 16.328125 246.113281 14.882813 251.40625 14.707031 C 255.566406 14.570313 259.78125 16.003906 263.960938 16.769531 C 266.558594 17.246094 269.175781 17.660156 271.726563 18.316406 C 279.671875 20.367188 287.734375 22.109375 295.484375 24.746094 C 303.902344 27.617188 311.765625 31.890625 319.121094 36.933594 C 323.101563 39.660156 326.953125 42.621094 330.605469 45.773438 C 338.539063 52.625 345.21875 60.5625 350.078125 69.898438 C 353.347656 76.179688 356.644531 82.472656 359.453125 88.960938 C 360.890625 92.28125 361.328125 96.042969 362.136719 99.625 C 363.285156 104.726563 364.355469 109.847656 365.464844 114.960938 C 365.523438 115.226563 365.699219 115.480469 365.710938 115.742188 C 366.136719 127.316406 366.71875 138.890625 366.890625 150.46875 C 366.964844 155.296875 366.0625 160.128906 365.847656 164.96875 C 365.785156 166.34375 366.546875 168.929688 366.988281 168.941406 C 368.652344 168.992188 370.398438 168.351563 372.003906 167.695313 C 373.976563 166.882813 375.746094 165.46875 377.769531 164.898438 C 381.441406 163.867188 385.214844 165.871094 386.554688 169.515625 C 388.179688 173.925781 389.472656 178.476563 389.046875 183.246094 C 388.847656 185.460938 388.261719 187.648438 387.71875 189.816406 C 386.644531 194.109375 385.3125 198.34375 384.398438 202.671875 C 383.671875 206.121094 383.398438 209.667969 382.933594 213.175781 C 382.160156 218.949219 381.542969 224.753906 380.539063 230.488281 C 380.230469 232.253906 379.007813 233.921875 377.972656 235.484375 C 376.765625 237.308594 375.496094 239.164063 373.914063 240.644531 C 371.753906 242.652344 369.300781 244.351563 366.921875 246.117188 C 365.191406 247.402344 363.652344 247.226563 362.074219 245.578125 C 360.898438 244.351563 359.335938 243.492188 357.25 241.957031 "/>
<path style=" stroke:none;fill-rule:nonzero;fill:rgb(13.699341%,12.199402%,12.5%);fill-opacity:1;" d="M 70.003906 345.164063 C 69.609375 345.382813 69.214844 345.601563 68.824219 345.820313 C 68.960938 346.574219 69.027344 347.351563 69.246094 348.082031 C 70.296875 351.609375 71.773438 355.066406 72.363281 358.667969 C 73.132813 363.355469 74.625 367.675781 77.089844 371.660156 C 79.257813 375.171875 82.410156 376.226563 85.480469 374.71875 C 87.515625 373.71875 89.578125 372.757813 91.554688 371.652344 C 92.222656 371.28125 92.988281 370.609375 93.167969 369.929688 C 94.277344 365.691406 93.207031 361.675781 90.367188 358.628906 C 86.402344 354.378906 84.222656 349.515625 83.300781 343.90625 C 83.214844 343.367188 82.496094 342.933594 82.070313 342.445313 C 81.71875 342.992188 81.050781 343.550781 81.070313 344.078125 C 81.160156 346.089844 81.382813 348.101563 81.71875 350.085938 C 82.246094 353.226563 83.007813 356.328125 83.46875 359.476563 C 83.765625 361.488281 82.046875 361.890625 80.597656 362.125 C 79.984375 362.226563 78.839844 361.824219 78.65625 361.363281 C 77.671875 358.925781 77.25 356.207031 76 353.933594 C 74.300781 350.847656 72.03125 348.074219 70.003906 345.164063 Z M 72.6875 261.964844 C 71.492188 261.867188 70.941406 261.722656 70.429688 261.808594 C 69.519531 261.960938 68.628906 262.25 67.730469 262.480469 C 68.21875 263.402344 68.71875 264.3125 69.191406 265.238281 C 69.464844 265.769531 69.886719 266.316406 69.890625 266.855469 C 69.894531 267.261719 69.28125 268.058594 69.039063 268.023438 C 65.09375 267.449219 65.003906 270.71875 64.21875 273.011719 C 63.246094 275.863281 62.484375 276.214844 60.105469 274.449219 C 58.722656 273.421875 57.183594 272.605469 55.074219 271.296875 C 54.792969 272.953125 54.035156 274.441406 54.46875 275.375 C 56.121094 278.925781 56.183594 282.6875 56.800781 286.417969 C 57.367188 289.820313 59.0625 293.074219 60.503906 296.28125 C 62.34375 300.382813 62.449219 300.335938 59.308594 303.703125 C 60.339844 305.675781 61.671875 307.640625 62.425781 309.804688 C 63.535156 312.992188 64.554688 316.285156 65.011719 319.613281 C 65.445313 322.78125 64.832031 326.085938 65.171875 329.28125 C 65.617188 333.46875 66.542969 337.601563 67.273438 341.847656 C 71.132813 340.480469 74.375 339.429688 77.535156 338.167969 C 79.367188 337.4375 80.820313 336.355469 80.664063 333.867188 C 80.597656 332.78125 81.597656 331.628906 82.289063 330.125 C 81.226563 329.386719 79.753906 328.363281 77.601563 326.871094 C 79.046875 326.59375 79.609375 326.394531 80.171875 326.394531 C 87.273438 326.367188 94.382813 326.542969 101.476563 326.28125 C 104.914063 326.15625 104.175781 328.417969 104.464844 330.246094 C 104.796875 332.359375 103.574219 332.679688 101.824219 332.695313 C 99.347656 332.714844 98.421875 334.367188 99.773438 336.804688 C 100.863281 338.769531 102.285156 340.652344 103.914063 342.191406 C 106.0625 344.21875 107.269531 346.238281 106.867188 349.386719 C 106.339844 353.546875 107.253906 357.617188 109.101563 361.402344 C 110.378906 364.019531 112.195313 365.898438 115.515625 365.589844 C 117.4375 365.40625 119.390625 365.453125 121.324219 365.558594 C 123.707031 365.6875 124.628906 364.417969 124.832031 362.289063 C 125.304688 357.332031 124.355469 352.65625 122.285156 348.132813 C 121.203125 345.765625 120.425781 343.257813 119.496094 340.777344 C 117.453125 341.316406 117.710938 341.394531 118.203125 343.40625 C 118.800781 345.84375 118.808594 348.445313 118.859375 350.980469 C 118.863281 351.359375 117.550781 352.214844 117.128906 352.066406 C 116.023438 351.675781 114.496094 351.050781 114.183594 350.152344 C 113.359375 347.785156 113.25 345.175781 112.554688 342.746094 C 111.855469 340.316406 111.023438 337.863281 109.808594 335.664063 C 109.019531 334.238281 109.226563 333.453125 110.328125 332.65625 C 112.089844 331.390625 114.058594 330.367188 115.679688 328.941406 C 119.484375 325.597656 124.015625 326.425781 128.417969 326.421875 C 136.722656 326.414063 145.023438 326.363281 153.328125 326.449219 C 155.71875 326.476563 157.035156 325.925781 156.628906 323.1875 C 156.441406 321.933594 156.628906 320.601563 156.792969 319.328125 C 156.863281 318.78125 157.21875 317.972656 157.617188 317.847656 C 158.035156 317.71875 158.851563 318.125 159.175781 318.542969 C 164.089844 324.859375 168.492188 331.640625 173.929688 337.460938 C 182.1875 346.308594 190.957031 354.710938 199.890625 362.886719 C 204.574219 367.179688 209.992188 370.703125 215.230469 374.351563 C 217.8125 376.152344 220.890625 377.242188 223.449219 379.070313 C 224.773438 380.015625 226.253906 381.839844 226.292969 383.304688 C 226.515625 391.363281 227.414063 391.261719 218.828125 391.257813 C 147.335938 391.222656 75.835938 391.222656 4.339844 391.210938 C 0.179688 391.210938 0.183594 391.207031 0.1875 387.039063 C 0.203125 360.378906 0.476563 333.71875 0.0625 307.066406 C -0.0429688 300.515625 2.4375 295.914063 6.242188 291.265625 C 8.945313 287.96875 11.15625 284.269531 13.65625 280.804688 C 15.355469 278.445313 17.226563 276.210938 18.941406 273.863281 C 21.808594 269.929688 24.558594 265.910156 27.464844 262.007813 C 30.40625 258.050781 33.53125 254.234375 36.480469 250.28125 C 41.175781 243.992188 45.792969 237.644531 50.445313 231.320313 C 51.300781 230.15625 52.0625 228.882813 53.105469 227.910156 C 53.472656 227.566406 54.785156 227.710938 55.234375 228.113281 C 55.851563 228.667969 56.054688 229.679688 56.4375 230.5 C 53.207031 235.964844 53.46875 241.796875 57.125 246.785156 C 58.140625 248.171875 59.140625 249.578125 60.003906 251.0625 C 61.367188 253.394531 59.371094 254.933594 58.519531 256.742188 C 58.136719 257.558594 57.828125 258.40625 57.488281 259.242188 C 58.457031 259.523438 59.410156 259.96875 60.398438 260.054688 C 63.800781 260.347656 66.980469 259.621094 70.164063 258.277344 C 74.296875 256.535156 75.007813 252.839844 75.902344 249.261719 C 76.859375 245.453125 77.671875 241.578125 78.164063 237.6875 C 78.511719 234.914063 78.230469 232.0625 78.230469 228.804688 C 77.347656 229.5 76.570313 229.863281 76.164063 230.476563 C 74.589844 232.839844 73.289063 232.613281 71.976563 230.265625 C 69.726563 226.234375 67.425781 222.234375 65.171875 218.203125 C 65.078125 218.03125 65.273438 217.699219 65.496094 216.714844 C 66.777344 217.832031 67.867188 218.636719 68.773438 219.609375 C 69.761719 220.671875 70.65625 221.839844 71.449219 223.058594 C 73.242188 225.808594 75.808594 224.890625 78.101563 224.871094 C 75.476563 219.15625 72.90625 213.601563 70.375 208.03125 C 69.582031 206.28125 69.734375 204.652344 71.21875 203.253906 C 72.21875 202.3125 73.140625 201.292969 74.097656 200.308594 C 74.820313 201.6875 75.632813 203.027344 76.242188 204.453125 C 77.128906 206.535156 77.679688 208.777344 78.71875 210.769531 C 80.109375 213.433594 81.75 215.800781 84.925781 216.992188 C 88.027344 218.152344 87.925781 219.054688 85.15625 220.808594 C 85 220.90625 84.839844 221 84.6875 221.101563 C 82.464844 222.582031 82.597656 224.0625 84.996094 225.304688 C 89.402344 227.578125 93.796875 229.878906 98.164063 232.226563 C 99.0625 232.710938 99.820313 233.453125 100.644531 234.078125 C 100.53125 234.394531 100.417969 234.707031 100.304688 235.019531 C 98.136719 234.632813 95.972656 234.246094 93.875 233.871094 C 92.203125 236.597656 94.054688 238.507813 94.988281 240.441406 C 96.703125 244.003906 96.652344 244.566406 93.4375 246.703125 C 92.890625 247.070313 92.539063 247.734375 92.097656 248.257813 C 92.644531 248.640625 93.140625 249.234375 93.738281 249.367188 C 95.691406 249.808594 97.671875 250.179688 99.660156 250.394531 C 101.097656 250.550781 102.136719 250.707031 102.03125 252.609375 C 101.988281 253.359375 102.59375 254.453125 103.242188 254.882813 C 106.753906 257.222656 105.40625 260.582031 105.203125 263.664063 C 105.109375 265.074219 104.261719 266.492188 104.386719 267.851563 C 104.757813 272.007813 102.925781 275.121094 100.558594 278.300781 C 95.445313 285.160156 90.636719 292.246094 85.652344 299.203125 C 82.496094 303.609375 79.269531 307.960938 76.007813 312.289063 C 75.707031 312.691406 74.824219 313.050781 74.429688 312.890625 C 74.019531 312.71875 73.660156 311.90625 73.644531 311.367188 C 73.574219 308.230469 73.640625 305.09375 73.605469 301.957031 C 73.550781 297.070313 73.675781 292.164063 73.292969 287.300781 C 72.996094 283.53125 71.878906 279.835938 71.429688 276.070313 C 71.15625 273.738281 71.320313 271.324219 71.535156 268.972656 C 71.742188 266.683594 72.269531 264.425781 72.6875 261.964844 "/>
<g clip-path="url(#clip1)" clip-rule="nonzero">
<path style=" stroke:none;fill-rule:nonzero;fill:rgb(13.699341%,12.199402%,12.5%);fill-opacity:1;" d="M 422.925781 347.054688 C 426.367188 348.238281 427.160156 345.808594 428.023438 343.445313 C 428.617188 341.832031 428.972656 340.03125 429.933594 338.671875 C 431.101563 337.019531 430.28125 336.027344 429.085938 335.660156 C 426.355469 334.816406 423.515625 334.292969 420.683594 333.839844 C 420.085938 333.742188 419.035156 334.328125 418.730469 334.890625 C 416.851563 338.359375 415.109375 341.90625 413.371094 345.445313 C 413.035156 346.128906 412.910156 346.914063 412.683594 347.648438 C 413.515625 347.867188 414.375 348.339844 415.171875 348.25 C 417.777344 347.960938 420.363281 347.464844 422.925781 347.054688 Z M 421.234375 356.308594 C 419.746094 357.648438 418.476563 358.835938 417.164063 359.96875 C 415.886719 361.070313 414.441406 362.007813 413.285156 363.222656 C 411.507813 365.097656 410.007813 366.210938 407.214844 364.523438 C 404.222656 362.722656 403.902344 362.167969 406.460938 359.597656 C 407.285156 358.765625 407.910156 357.730469 408.628906 356.789063 C 408.300781 356.558594 407.972656 356.328125 407.648438 356.097656 C 403.96875 361.097656 397.445313 363.890625 396.242188 370.828125 C 398.234375 371.859375 399.804688 372.71875 401.414063 373.5 C 406.269531 375.863281 411.003906 376.386719 415.363281 372.410156 C 416.371094 371.496094 417.195313 369.816406 418.277344 369.65625 C 422.429688 369.035156 423.621094 365.800781 424.9375 362.730469 C 425.753906 360.820313 426.800781 358.554688 426.4375 356.703125 C 425.867188 353.785156 422.015625 352.714844 418.800781 354.101563 C 419.578125 354.804688 420.304688 355.464844 421.234375 356.308594 Z M 413.546875 253.835938 C 415.125 251.175781 416.707031 248.246094 418.546875 245.492188 C 419.8125 243.597656 421.402344 241.90625 422.929688 240.199219 C 423.214844 239.878906 424.015625 239.664063 424.355469 239.839844 C 424.722656 240.027344 425.074219 240.765625 425.003906 241.195313 C 424.738281 242.90625 424.394531 244.613281 423.914063 246.277344 C 422.664063 250.644531 421.191406 254.953125 420.128906 259.359375 C 419.898438 260.324219 420.796875 262.421875 421.546875 262.621094 C 428.292969 264.433594 435.085938 266.117188 441.941406 267.464844 C 446.253906 268.308594 446.8125 267.667969 449.515625 262.230469 C 451.039063 259.171875 452.839844 256.21875 454.023438 253.03125 C 455.429688 249.246094 456.425781 245.296875 457.367188 241.363281 C 458.179688 237.96875 459.425781 234.644531 461.792969 232.265625 C 465.703125 228.335938 467.070313 223.496094 468.179688 218.414063 C 469.089844 214.261719 469.746094 210.023438 471.007813 205.976563 C 472.527344 201.117188 471.238281 196.824219 469.238281 192.558594 C 467.867188 189.636719 466.597656 186.761719 467.359375 183.390625 C 467.523438 182.648438 467.160156 181.789063 467.042969 180.980469 C 466.707031 178.6875 467.105469 177.023438 469.621094 175.917969 C 472.738281 174.542969 474.617188 171.757813 475.671875 168.535156 C 476.226563 166.828125 476.4375 165.011719 477 163.308594 C 477.25 162.546875 477.972656 161.9375 478.480469 161.257813 C 478.71875 161.308594 478.957031 161.363281 479.191406 161.417969 C 479.289063 162.152344 479.46875 162.886719 479.46875 163.621094 C 479.492188 169.613281 479.578125 175.609375 479.429688 181.597656 C 479.375 183.933594 480.109375 184.558594 482.429688 184.511719 C 490.253906 184.359375 498.082031 184.453125 506.058594 184.453125 C 506.175781 185.324219 506.324219 185.933594 506.324219 186.539063 C 506.332031 204.804688 506.320313 223.066406 506.324219 241.328125 C 506.324219 243.078125 506.425781 244.828125 506.433594 246.578125 C 506.4375 248.511719 505.414063 249.488281 503.503906 249.4375 C 499.46875 249.328125 495.433594 249.066406 491.398438 249.0625 C 487.921875 249.058594 484.433594 249.222656 480.976563 249.582031 C 480.417969 249.640625 479.585938 251.09375 479.578125 251.910156 C 479.464844 263.898438 479.460938 275.890625 479.453125 287.878906 C 479.453125 299.6875 479.585938 311.492188 479.421875 323.296875 C 479.386719 326.046875 480.359375 326.535156 482.757813 326.492188 C 489.671875 326.367188 496.597656 326.5625 503.507813 326.363281 C 505.984375 326.292969 506.453125 327.226563 506.445313 329.382813 C 506.367188 348.105469 506.375 366.828125 506.332031 385.554688 C 506.320313 391.246094 506.285156 391.238281 500.648438 391.238281 C 463.753906 391.238281 426.855469 391.203125 389.960938 391.304688 C 387.085938 391.3125 386.40625 390.488281 386.46875 387.730469 C 386.652344 379.621094 386.59375 371.5 386.492188 363.382813 C 386.464844 360.945313 387.316406 359.871094 389.730469 359.167969 C 391.199219 358.738281 392.660156 357.101563 393.410156 355.640625 C 394.71875 353.09375 395.257813 350.160156 396.511719 347.578125 C 398.175781 344.148438 397.9375 340.339844 395.285156 337.613281 C 393.972656 336.261719 393.496094 335.066406 394.484375 333.214844 C 395.042969 332.171875 394.820313 330.71875 394.964844 329.449219 C 395.195313 327.449219 396.023438 326.238281 398.339844 326.382813 C 400.914063 326.542969 403.511719 326.316406 406.085938 326.472656 C 408.609375 326.625 409.679688 325.582031 409.527344 323.105469 C 409.484375 322.375 409.609375 321.632813 409.609375 320.898438 C 409.617188 299.222656 409.609375 277.542969 409.648438 255.867188 C 409.648438 254.851563 410.054688 253.835938 410.273438 252.816406 C 411.183594 253.101563 412.089844 253.382813 413.546875 253.835938 "/>
</g>
<path style=" stroke:none;fill-rule:nonzero;fill:rgb(13.699341%,12.199402%,12.5%);fill-opacity:1;" d="M 455.777344 81.277344 C 455.714844 81.039063 455.648438 80.800781 455.585938 80.5625 C 454.082031 81.117188 452.53125 81.574219 451.105469 82.277344 C 450.679688 82.488281 450.597656 83.390625 450.359375 83.972656 C 451.003906 83.972656 451.796875 84.214844 452.265625 83.929688 C 453.511719 83.164063 454.617188 82.175781 455.777344 81.277344 Z M 415.003906 73.800781 C 418.367188 78.054688 421.542969 82.070313 424.914063 86.335938 C 425.835938 83.070313 418.628906 74.113281 415.003906 73.800781 Z M 450.410156 85.683594 C 449.3125 86.652344 448.472656 87.339844 447.746094 88.125 C 447.671875 88.207031 448.207031 88.945313 448.546875 89.296875 C 449.683594 90.46875 450.816406 92.46875 452.03125 92.527344 C 453.546875 92.601563 455.125 91.039063 456.703125 90.230469 C 457.640625 89.75 458.625 89.355469 459.589844 88.921875 C 458.441406 88.660156 457.296875 88.386719 456.144531 88.152344 C 455.890625 88.101563 455.582031 88.15625 455.332031 88.253906 C 453.101563 89.132813 451.417969 88.648438 450.410156 85.683594 Z M 461.800781 53.359375 C 461.074219 52.089844 460.441406 51.003906 459.828125 49.910156 C 456.640625 44.234375 453.484375 38.539063 450.226563 32.902344 C 449.816406 32.195313 448.867188 31.796875 447.609375 30.820313 C 451.648438 39.054688 455.203125 46.429688 458.886719 53.738281 C 459.855469 55.660156 460.894531 54.601563 461.800781 53.359375 Z M 424.050781 27.09375 C 425.039063 26.546875 425.839844 26.199219 426.527344 25.695313 C 427.042969 25.320313 427.410156 24.746094 427.84375 24.261719 C 427.234375 23.996094 426.539063 23.394531 426.035156 23.527344 C 422.679688 24.402344 419.125 25.109375 418.4375 29.464844 C 418.355469 29.96875 417.980469 30.433594 417.714844 30.898438 C 412.8125 39.492188 407.835938 48.046875 403.039063 56.699219 C 401.429688 59.601563 400.207031 62.730469 398.988281 65.824219 C 398.714844 66.515625 399.199219 67.503906 399.339844 68.355469 C 400.0625 67.992188 400.957031 67.785156 401.46875 67.230469 C 402.375 66.238281 403.140625 65.085938 403.804688 63.910156 C 405.859375 60.285156 407.777344 56.582031 409.890625 52.992188 C 410.308594 52.28125 411.519531 51.367188 412.089844 51.53125 C 414.292969 52.148438 415.113281 50.53125 415.484375 49.242188 C 415.65625 48.648438 413.984375 47.519531 413.144531 46.640625 C 412.746094 46.226563 412.332031 45.828125 411.921875 45.425781 C 412.410156 44.964844 412.828125 44.339844 413.40625 44.082031 C 413.957031 43.839844 414.769531 44.160156 415.296875 43.894531 C 415.941406 43.570313 416.878906 42.894531 416.878906 42.371094 C 416.867188 39.585938 417.992188 40.085938 419.796875 40.984375 C 423.472656 42.828125 423.320313 42.585938 425.507813 39.1875 C 425.652344 38.960938 425.664063 38.65625 425.789063 38.410156 C 428.816406 32.332031 428.816406 32.335938 424.050781 27.09375 Z M 471.128906 151.558594 C 468.636719 151.683594 467.542969 152.808594 467.054688 155.367188 C 466.78125 156.816406 466.382813 158.816406 464.003906 159.84375 C 462.378906 160.546875 461.589844 163.539063 460.757813 165.640625 C 459.46875 168.898438 458.382813 172.242188 457.386719 175.601563 C 457.132813 176.460938 457.644531 177.519531 457.59375 178.476563 C 457.546875 179.320313 457.449219 180.40625 456.921875 180.90625 C 456.46875 181.328125 455.175781 181.378906 454.617188 181.023438 C 454 180.632813 453.351563 179.492188 453.492188 178.851563 C 454.296875 175.230469 455.105469 171.585938 456.34375 168.101563 C 458.101563 163.164063 460.417969 158.429688 462.160156 153.488281 C 464.34375 147.292969 466.207031 140.988281 468.175781 134.71875 C 469.460938 130.617188 471.152344 126.566406 471.757813 122.359375 C 472.132813 119.765625 470.984375 116.871094 470.191406 114.207031 C 469.335938 111.34375 467.953125 108.636719 467.0625 105.777344 C 466.035156 102.488281 465.085938 102.058594 462.621094 104.277344 C 461.304688 105.464844 459.804688 106.191406 460.152344 108.832031 C 460.324219 110.105469 458.757813 112.222656 458.917969 114.265625 C 458.933594 114.492188 457.652344 115.160156 457.433594 114.996094 C 456.730469 114.472656 456.238281 113.660156 455.46875 112.714844 C 453.347656 113.296875 452.054688 112.746094 452.253906 109.746094 C 452.453125 106.789063 450.316406 105.722656 447.714844 107.242188 C 446.523438 107.941406 445.964844 107.875 445.109375 106.597656 C 442.550781 102.761719 439.761719 99.078125 437.011719 95.371094 C 436.644531 94.875 435.988281 94.589844 435.464844 94.203125 C 435.226563 94.386719 434.992188 94.570313 434.753906 94.753906 C 435.820313 96.789063 436.644531 99.015625 438.027344 100.8125 C 439.324219 102.503906 439.261719 103.644531 437.914063 105.117188 C 437.070313 106.039063 436.488281 107.199219 435.484375 108.707031 C 438.921875 108.914063 442.242188 105.511719 444.828125 108.78125 C 444.503906 110.84375 444.21875 112.648438 443.847656 114.984375 C 445.210938 114.753906 446.042969 114.507813 446.871094 114.511719 C 447.445313 114.511719 448.238281 114.707031 448.511719 115.105469 C 448.71875 115.398438 448.394531 116.289063 448.050781 116.691406 C 446.054688 119.027344 444.070313 118.804688 440.359375 117.042969 C 438.113281 115.976563 435.355469 115.285156 432.921875 115.496094 C 430.257813 115.726563 428.785156 118.148438 427.941406 120.730469 C 427.710938 121.441406 427.054688 122.015625 426.589844 122.652344 C 426.324219 122.621094 426.058594 122.589844 425.792969 122.554688 C 425.714844 121.488281 425.703125 120.410156 425.546875 119.351563 C 425.390625 118.320313 425.25 117.226563 424.789063 116.316406 C 424.539063 115.824219 423.527344 115.300781 423.058594 115.445313 C 422.574219 115.59375 422.144531 116.496094 422.019531 117.132813 C 421.179688 121.378906 420.21875 125.617188 419.734375 129.90625 C 419.464844 132.328125 419.792969 134.894531 420.277344 137.308594 C 420.933594 140.597656 421.164063 143.652344 419.890625 146.953125 C 418.890625 149.535156 418.71875 152.484375 418.4375 155.296875 C 418.03125 159.449219 417.464844 163.648438 417.710938 167.78125 C 417.878906 170.53125 418.523438 173.152344 417.371094 175.835938 C 416.714844 177.355469 412.367188 180.15625 410.800781 179.71875 C 410.339844 179.59375 409.828125 178.902344 409.730469 178.394531 C 409.546875 177.410156 409.617188 176.375 409.617188 175.363281 C 409.589844 148.605469 409.582031 121.851563 409.523438 95.09375 C 409.519531 93.636719 409.144531 92.179688 408.9375 90.722656 C 407.757813 91.644531 406.347656 92.378906 405.429688 93.511719 C 399.371094 100.984375 393.449219 108.570313 387.410156 116.0625 C 384.777344 119.324219 381.996094 122.472656 379.214844 125.609375 C 378.804688 126.074219 378.019531 126.203125 377.40625 126.488281 C 377.179688 125.917969 376.753906 125.347656 376.757813 124.777344 C 376.820313 119.441406 375.796875 114.324219 374.359375 109.191406 C 373.433594 105.890625 373.714844 102.265625 372.957031 98.902344 C 372.070313 94.980469 370.730469 91.148438 369.421875 87.339844 C 367.882813 82.875 366.464844 78.332031 364.449219 74.082031 C 362.246094 69.433594 359.488281 65.035156 356.835938 60.613281 C 355.671875 58.671875 354.046875 57.011719 352.886719 55.066406 C 352.5 54.414063 352.558594 53.003906 353.019531 52.417969 C 356.585938 47.886719 360.332031 43.503906 363.949219 39.015625 C 368.726563 33.09375 373.414063 27.101563 378.179688 21.171875 C 380.234375 18.617188 382.382813 16.140625 384.511719 13.648438 C 387.71875 9.894531 390.824219 6.039063 394.234375 2.476563 C 395.367188 1.289063 397.242188 0.371094 398.871094 0.195313 C 402.15625 -0.152344 405.503906 0.0664063 408.824219 0.0976563 C 411.925781 0.128906 412.796875 1.476563 411.617188 4.304688 C 411.40625 4.808594 411.023438 5.375 411.109375 5.847656 C 411.261719 6.707031 411.703125 7.519531 412.027344 8.351563 C 412.476563 7.671875 413.148438 7.046875 413.34375 6.300781 C 414.308594 2.550781 417.265625 0.09375 421.011719 0.09375 C 425.714844 0.0976563 430.425781 -0.0078125 435.125 0.152344 C 436.757813 0.207031 438.355469 0.949219 439.988281 1.308594 C 440.558594 1.433594 441.199219 1.453125 441.769531 1.332031 C 443.496094 0.96875 445.195313 0.171875 446.914063 0.152344 C 456.414063 0.03125 465.921875 0.09375 475.421875 0.09375 C 479.074219 0.0976563 479.441406 0.460938 479.441406 3.988281 C 479.445313 31.113281 479.449219 58.234375 479.445313 85.359375 C 479.445313 88.484375 479.070313 88.707031 475.933594 87.238281 C 475.875 88.398438 475.566406 89.53125 475.847656 90.492188 C 476.085938 91.3125 477 91.9375 477.621094 92.640625 C 478.253906 93.359375 479.441406 94.066406 479.449219 94.785156 C 479.5625 106.675781 479.53125 118.566406 479.53125 130.894531 C 477.847656 130.894531 475.996094 131.425781 475.042969 130.730469 C 474.234375 130.140625 474.457031 128.136719 473.53125 126.636719 C 472.644531 129.402344 471.753906 132.167969 470.875 134.9375 C 470.660156 135.613281 470.667969 136.441406 470.265625 136.957031 C 469.242188 138.265625 469.648438 138.894531 471.035156 139.378906 C 472.703125 139.964844 473.25 141.15625 473.460938 142.945313 C 473.707031 145.058594 474.691406 147.070313 475.1875 149.164063 C 475.378906 149.980469 475.097656 150.90625 475.035156 151.78125 C 474.453125 151.265625 473.738281 150.839844 473.320313 150.214844 C 472.640625 149.199219 472.15625 148.050781 471.128906 147.054688 C 471.128906 148.515625 471.128906 149.976563 471.128906 151.558594 "/>
<path style=" stroke:none;fill-rule:nonzero;fill:rgb(13.699341%,12.199402%,12.5%);fill-opacity:1;" d="M 13.632813 94.050781 C 14.15625 92.152344 14.628906 90.746094 14.863281 89.304688 C 14.902344 89.0625 13.832031 88.296875 13.433594 88.398438 C 12.246094 88.703125 11.992188 92.492188 13.632813 94.050781 Z M 88.769531 47.003906 C 87.609375 43.152344 71.347656 37.230469 67.871094 38.667969 C 71.457031 39.808594 74.96875 40.71875 78.3125 42.046875 C 81.683594 43.386719 84.890625 45.140625 88.769531 47.003906 Z M 85.875 57.160156 C 86.082031 57.433594 86.289063 57.710938 86.496094 57.984375 C 88.1875 54.371094 90.933594 54.472656 93.867188 54.917969 C 94.210938 54.96875 95.207031 53.671875 95.078125 53.414063 C 94.097656 51.480469 93.082031 49.515625 91.746094 47.820313 C 90.460938 46.191406 89.351563 46.574219 88.667969 48.617188 C 88.007813 50.585938 87.015625 52.441406 86.300781 54.398438 C 85.988281 55.257813 86.007813 56.234375 85.875 57.160156 Z M 34.476563 27.488281 C 34.621094 27.683594 34.769531 27.871094 34.917969 28.066406 C 36.628906 26.582031 37.980469 26.203125 38.582031 28.78125 C 38.757813 29.542969 39.261719 30.226563 39.585938 30.957031 C 40.496094 32.988281 43.902344 34.5625 45.820313 33.992188 C 47.359375 33.535156 48.96875 33.199219 50.566406 33.085938 C 51.332031 33.03125 52.144531 33.605469 52.933594 33.898438 C 52.355469 34.59375 51.917969 35.535156 51.179688 35.9375 C 47.976563 37.683594 44.6875 39.273438 41.425781 40.917969 C 41.484375 41.207031 41.539063 41.496094 41.597656 41.785156 C 44.347656 41.527344 47.164063 41.550781 49.832031 40.933594 C 52.597656 40.296875 55.078125 39.929688 57.757813 41.363281 C 60.589844 42.882813 63.554688 44.601563 66.640625 45.085938 C 70.136719 45.632813 72.683594 46.859375 75.007813 49.503906 C 77.632813 52.496094 81.878906 52.375 84.808594 50.152344 C 85.199219 49.855469 85.144531 48.058594 84.886719 47.953125 C 78.613281 45.386719 72.292969 42.933594 65.964844 40.5 C 63.238281 39.449219 60.476563 38.492188 57.179688 37.289063 C 59.09375 35.910156 59.191406 34.441406 59.285156 32.378906 C 59.578125 26.164063 56.839844 21.753906 52.78125 17.734375 C 52.410156 17.371094 51.65625 17.394531 51.082031 17.238281 C 53.1875 19.921875 51.371094 21.066406 49.679688 22.09375 C 48.367188 22.894531 46.90625 23.441406 45.535156 24.152344 C 43.71875 25.089844 42.9375 24.367188 42.859375 22.53125 C 42.777344 20.691406 42.707031 18.847656 42.707031 17.007813 C 42.710938 15.046875 42.285156 14.382813 40.316406 15.675781 C 38.550781 16.828125 36.542969 17.636719 34.601563 18.503906 C 32.914063 19.257813 31.007813 19.628906 29.488281 20.617188 C 27.671875 21.800781 26.097656 23.390625 24.578125 24.953125 C 24.203125 25.335938 24.425781 26.308594 24.398438 27.011719 C 24.246094 30.738281 27.269531 34.308594 24.898438 38.160156 C 24.097656 39.46875 23.28125 40.824219 22.835938 42.265625 C 22.574219 43.117188 22.8125 44.929688 23.195313 45.039063 C 25.605469 45.738281 28.109375 46.171875 30.609375 46.515625 C 32.175781 46.734375 33.101563 45.957031 32.832031 44.242188 C 32.582031 42.640625 32.074219 41.058594 32.027344 39.457031 C 31.914063 35.777344 31.707031 32.054688 32.128906 28.414063 C 32.394531 26.136719 32.660156 23.394531 35.824219 22.324219 C 35.375 24.046875 34.925781 25.769531 34.476563 27.488281 Z M 19.328125 103.628906 C 21.128906 101.300781 22.722656 99.085938 24.484375 97.015625 C 25.4375 95.890625 26.601563 94.898438 27.839844 94.097656 C 28.175781 93.878906 29.515625 94.414063 29.699219 94.882813 C 31.621094 99.746094 31.59375 104.6875 29.65625 109.53125 C 28.992188 111.183594 24.746094 111.246094 23.398438 109.457031 C 21.652344 107.140625 20.527344 107.394531 18.699219 109.402344 C 17.707031 110.492188 15.859375 111.226563 14.347656 111.328125 C 10.402344 111.582031 6.421875 111.308594 2.460938 111.425781 C 0.363281 111.488281 -0.00390625 110.414063 0 108.699219 C 0.0859375 74.9375 0.152344 41.179688 0.226563 7.421875 C 0.226563 6.5 0.21875 5.574219 0.234375 4.65625 C 0.328125 0.09375 0.332031 0.09375 5.046875 0.09375 C 23.867188 0.0898438 42.683594 0.0859375 61.503906 0.0820313 C 62.597656 0.0820313 63.6875 0.0820313 65.082031 0.0820313 C 65.082031 4.234375 65.082031 8.132813 65.082031 12.785156 C 66.300781 11.992188 67.050781 11.65625 67.605469 11.125 C 71.050781 7.832031 74.40625 4.441406 77.90625 1.214844 C 78.617188 0.558594 79.835938 0.136719 80.816406 0.136719 C 107.386719 0.078125 133.953125 0.078125 160.523438 0.144531 C 161.585938 0.144531 162.855469 0.671875 163.660156 1.375 C 165.527344 3.007813 167.167969 4.894531 168.894531 6.683594 C 173.542969 11.492188 178.257813 16.242188 182.8125 21.144531 C 185.566406 24.109375 185.417969 24.15625 181.675781 26.414063 C 171.21875 32.730469 161.453125 40.003906 153.652344 49.457031 C 148.96875 55.132813 145.136719 61.507813 140.917969 67.566406 C 140.402344 68.304688 139.863281 69.03125 139.246094 69.890625 C 136.46875 67.300781 133.949219 64.660156 131.113281 62.425781 C 129.71875 61.320313 127.75 60.386719 126.019531 60.355469 C 115.785156 60.171875 105.539063 60.117188 95.308594 60.410156 C 93.390625 60.464844 91.460938 62.183594 89.652344 63.320313 C 88.664063 63.941406 88.046875 65.253906 87.019531 65.695313 C 86.027344 66.121094 84.558594 66.203125 83.589844 65.777344 C 81.6875 64.945313 80.019531 63.597656 78.199219 62.566406 C 76.039063 61.34375 73.925781 61.867188 72.511719 63.648438 C 70.664063 65.96875 68.699219 68.402344 68.886719 71.667969 C 68.941406 72.585938 69.386719 73.476563 69.652344 74.378906 C 70.585938 74.097656 71.703125 74.046875 72.410156 73.480469 C 73.96875 72.238281 75.386719 71.375 76.742188 73.527344 C 77.113281 74.113281 77.355469 75.382813 77.027344 75.710938 C 75.339844 77.40625 74.09375 79.929688 71.164063 79.757813 C 69.347656 79.648438 68.75 80.242188 68.820313 82.125 C 68.867188 83.335938 68.128906 84.574219 67.742188 85.800781 C 67.335938 85.773438 66.929688 85.753906 66.523438 85.730469 C 66.03125 83.980469 65.21875 82.25 65.144531 80.484375 C 65.070313 78.824219 65.777344 77.128906 66.140625 75.449219 C 65.882813 75.296875 65.628906 75.140625 65.375 74.984375 C 62.632813 77.886719 59.636719 80.597656 57.226563 83.753906 C 55.347656 86.214844 53.222656 87.300781 50.289063 87.097656 C 48.371094 86.964844 46.996094 87.0625 46.722656 89.648438 C 46.484375 91.890625 44.074219 92.371094 42.277344 90.964844 C 39.652344 88.90625 37.230469 86.371094 33.320313 87.03125 C 32.878906 87.109375 31.734375 85.792969 31.722656 85.113281 C 31.703125 83.675781 32.035156 82.15625 32.578125 80.816406 C 32.96875 79.855469 33.945313 78.453125 34.65625 78.457031 C 35.824219 78.464844 37.113281 79.285156 38.109375 80.070313 C 38.996094 80.769531 39.417969 82.042969 40.28125 82.785156 C 42.425781 84.628906 44.65625 83.390625 46.671875 82.484375 C 48.371094 81.71875 49.933594 80.570313 51.390625 79.386719 C 52.070313 78.839844 52.871094 77.695313 52.722656 77.011719 C 52.015625 73.710938 50.976563 70.519531 48.078125 68.308594 C 47 67.488281 45.859375 66.511719 45.269531 65.339844 C 43.992188 62.796875 41.882813 62.53125 39.492188 62.632813 C 38.664063 62.671875 37.835938 62.773438 37.007813 62.773438 C 34.675781 62.78125 33.847656 61.6875 34.503906 59.441406 C 34.730469 58.660156 35.269531 57.949219 35.394531 57.167969 C 36.277344 51.523438 35.292969 50.453125 29.582031 50.21875 C 27.164063 50.117188 24.753906 49.675781 22.351563 49.3125 C 20.355469 49.011719 18.808594 50.085938 18.640625 51.941406 C 18.367188 54.921875 17.988281 57.894531 17.796875 60.878906 C 17.75 61.671875 18.222656 62.496094 18.453125 63.304688 C 18.953125 62.785156 19.589844 62.339844 19.933594 61.730469 C 21.457031 59.015625 22.59375 58.40625 25.292969 60.011719 C 28.226563 61.761719 30.847656 64.035156 33.609375 66.085938 C 33.550781 66.46875 33.496094 66.855469 33.441406 67.242188 C 32.292969 67.679688 31.175781 68.355469 29.992188 68.496094 C 28.078125 68.722656 26.101563 68.796875 24.195313 68.570313 C 21.566406 68.261719 21.058594 69.445313 21.148438 71.742188 C 21.289063 75.515625 21.300781 79.308594 21.117188 83.078125 C 21.066406 84.144531 20.035156 85.132813 19.632813 86.21875 C 19.253906 87.25 18.578125 88.613281 18.945313 89.40625 C 20.660156 93.136719 20.503906 96.730469 18.320313 100.042969 C 17.109375 101.871094 17.773438 102.648438 19.328125 103.628906 "/>
<path style=" stroke:none;fill-rule:nonzero;fill:rgb(13.699341%,12.199402%,12.5%);fill-opacity:1;" d="M 125.832031 130.457031 C 126.03125 130.90625 126.320313 131.289063 126.363281 131.695313 C 126.746094 135.46875 127.070313 139.246094 127.449219 143.019531 C 127.847656 147.007813 128.191406 151.007813 128.746094 154.980469 C 129.09375 157.480469 128.222656 158.566406 125.773438 158.054688 C 120.308594 156.90625 111.632813 163.886719 110.140625 169.28125 C 108.566406 174.96875 107.777344 180.648438 107.890625 186.519531 C 107.992188 191.773438 107.679688 197.046875 108.039063 202.277344 C 108.289063 205.902344 109.339844 209.476563 110.105469 213.054688 C 110.9375 216.941406 111.542969 220.917969 112.816406 224.660156 C 114.800781 230.503906 117.265625 236.183594 119.53125 241.929688 C 119.761719 242.515625 119.980469 243.121094 120.308594 243.652344 C 121.0625 244.867188 122.765625 246.328125 122.492188 247.179688 C 121.882813 249.0625 120.304688 250.640625 119.113281 252.335938 C 117.398438 254.773438 115.738281 257.25 113.929688 259.617188 C 113.269531 260.480469 112.257813 261.078125 111.40625 261.796875 C 111.003906 260.972656 110.570313 260.160156 110.210938 259.320313 C 109.1875 256.921875 108.113281 254.542969 107.230469 252.097656 C 106.847656 251.035156 106.671875 249.804688 106.769531 248.683594 C 107.023438 245.785156 107.664063 242.917969 107.816406 240.019531 C 108.003906 236.527344 108.097656 232.992188 107.78125 229.519531 C 107.183594 222.894531 106.265625 216.300781 105.476563 209.695313 C 105.035156 206.003906 104.695313 202.300781 104.097656 198.636719 C 103.59375 195.550781 102.855469 192.496094 102.078125 189.46875 C 101.210938 186.09375 100.179688 182.761719 99.226563 179.40625 C 98.8125 177.941406 98.757813 176.25 97.960938 175.046875 C 94.339844 169.570313 98.714844 166.238281 101.238281 162.546875 C 104.53125 157.738281 108.136719 153.140625 111.644531 148.484375 C 116.070313 142.605469 120.53125 136.757813 124.992188 130.910156 C 125.140625 130.71875 125.453125 130.652344 125.832031 130.457031 "/>
<path style=" stroke:none;fill-rule:nonzero;fill:rgb(13.699341%,12.199402%,12.5%);fill-opacity:1;" d="M 359.738281 372.714844 C 359.738281 377.871094 359.65625 383.027344 359.773438 388.179688 C 359.828125 390.484375 358.925781 391.414063 356.691406 391.222656 C 356.144531 391.175781 355.585938 391.21875 355.035156 391.214844 C 351.796875 391.199219 350.972656 390.441406 350.96875 387.140625 C 350.953125 378.210938 351 369.285156 351.019531 360.355469 C 351.019531 359.710938 351.046875 359.066406 351.023438 358.425781 C 350.871094 353.730469 351.46875 353.183594 356.128906 353.246094 C 358.710938 353.28125 359.753906 354.449219 359.722656 356.976563 C 359.65625 362.222656 359.703125 367.46875 359.703125 372.714844 C 359.714844 372.714844 359.726563 372.714844 359.738281 372.714844 "/>
<path style=" stroke:none;fill-rule:nonzero;fill:rgb(13.699341%,12.199402%,12.5%);fill-opacity:1;" d="M 336.386719 353.308594 C 336.386719 347.976563 336.46875 342.636719 336.34375 337.304688 C 336.292969 335.167969 337.261719 334.503906 339.132813 334.550781 C 339.773438 334.566406 340.433594 334.765625 341.050781 334.667969 C 343.460938 334.285156 344.097656 335.453125 344.082031 337.644531 C 344.019531 346.199219 344.050781 354.757813 344.050781 363.3125 C 344.050781 365.429688 344.105469 367.546875 344.039063 369.660156 C 343.960938 372.164063 342.8125 372.984375 339.746094 373.007813 C 337.402344 373.023438 336.425781 371.800781 336.421875 369.597656 C 336.417969 364.167969 336.421875 358.738281 336.421875 353.308594 C 336.410156 353.308594 336.398438 353.308594 336.386719 353.308594 "/>
<path style=" stroke:none;fill-rule:nonzero;fill:rgb(13.699341%,12.199402%,12.5%);fill-opacity:1;" d="M 41.257813 99.066406 C 42.917969 100.257813 44.398438 100.917969 44.214844 97.710938 C 44.191406 97.320313 45.285156 96.558594 45.914063 96.496094 C 47.550781 96.339844 49.21875 96.496094 50.875 96.484375 C 56.582031 96.449219 58.746094 99.589844 56.835938 105.074219 C 56.253906 106.746094 56.589844 107.804688 58.726563 107.488281 C 60.085938 107.289063 61.46875 107.164063 62.835938 107.210938 C 63.578125 107.238281 64.304688 107.6875 65.039063 107.949219 C 65.011719 108.351563 64.984375 108.753906 64.957031 109.152344 C 61.089844 109.605469 57.230469 110.175781 53.347656 110.46875 C 50.425781 110.691406 47.472656 110.542969 44.535156 110.589844 C 41.820313 110.632813 39.925781 108.5625 39.242188 104.75 C 38.816406 102.390625 39.34375 100.851563 41.257813 99.066406 "/>
<path style=" stroke:none;fill-rule:nonzero;fill:rgb(13.699341%,12.199402%,12.5%);fill-opacity:1;" d="M 399.296875 208.074219 C 397.210938 208.074219 396.183594 208.335938 395.429688 207.992188 C 394.789063 207.699219 393.96875 206.601563 394.089844 206.050781 C 394.488281 204.230469 395.457031 202.539063 395.878906 200.71875 C 396.925781 196.234375 397.671875 191.671875 398.816406 187.214844 C 399.078125 186.199219 400.394531 184.871094 401.363281 184.746094 C 403.265625 184.507813 405.261719 185.007813 407.21875 185.203125 C 406.730469 187.171875 406.808594 189.605469 405.644531 191.03125 C 402.113281 195.363281 401.207031 200.167969 401.105469 205.574219 C 401.042969 208.882813 399.917969 212.28125 398.691406 215.410156 C 397.855469 217.535156 396.070313 219.304688 394.589844 221.136719 C 394.308594 221.484375 393.460938 221.378906 392.210938 220.96875 C 394.46875 216.859375 396.726563 212.746094 399.296875 208.074219 "/>
<path style=" stroke:none;fill-rule:nonzero;fill:rgb(13.699341%,12.199402%,12.5%);fill-opacity:1;" d="M 392.21875 232.304688 C 396.535156 237.425781 400.855469 242.550781 405.183594 247.683594 C 403.453125 249.546875 398.90625 250.09375 396.152344 249.105469 C 394.875 248.648438 393.296875 249.011719 391.855469 249.039063 C 388.9375 249.101563 386.019531 249.269531 383.113281 249.160156 C 382.75 249.144531 381.933594 247.398438 382.1875 247.003906 C 383.445313 245.035156 384.894531 243.171875 386.457031 241.429688 C 388.734375 238.886719 390.824219 239.246094 392.398438 242.304688 C 394.152344 245.710938 394.152344 245.710938 396.851563 242.773438 C 395.316406 239.261719 391.003906 237.097656 391.1875 232.738281 C 391.53125 232.59375 391.875 232.449219 392.21875 232.304688 "/>
<path style=" stroke:none;fill-rule:nonzero;fill:rgb(13.699341%,12.199402%,12.5%);fill-opacity:1;" d="M 374.328125 362.324219 C 374.328125 364.808594 374.320313 367.292969 374.332031 369.777344 C 374.34375 372.371094 372.785156 372.980469 370.539063 372.988281 C 368.210938 373 366.832031 371.972656 366.777344 369.660156 C 366.664063 364.976563 366.699219 360.285156 366.683594 355.597656 C 366.675781 353.976563 367.15625 353.203125 369.121094 353.257813 C 374.164063 353.398438 374.179688 353.261719 374.378906 358.191406 C 374.433594 359.566406 374.386719 360.945313 374.386719 362.324219 C 374.367188 362.324219 374.347656 362.324219 374.328125 362.324219 "/>
<path style=" stroke:none;fill-rule:nonzero;fill:rgb(13.699341%,12.199402%,12.5%);fill-opacity:1;" d="M 329.15625 362.609375 C 329.15625 365.007813 329.171875 367.402344 329.152344 369.800781 C 329.132813 372.351563 327.585938 372.996094 325.320313 373.011719 C 323.109375 373.023438 321.730469 372.277344 321.71875 369.90625 C 321.691406 365.023438 321.730469 360.140625 321.683594 355.257813 C 321.671875 353.742188 322.21875 353.183594 323.792969 353.136719 C 329.195313 352.980469 329.191406 352.921875 329.167969 358.1875 C 329.160156 359.660156 329.167969 361.136719 329.167969 362.609375 C 329.164063 362.609375 329.160156 362.609375 329.15625 362.609375 "/>
<path style=" stroke:none;fill-rule:nonzero;fill:rgb(13.699341%,12.199402%,12.5%);fill-opacity:1;" d="M 391.582031 342.964844 C 390.40625 344.226563 389.480469 345.214844 387.941406 346.867188 C 387.355469 344.980469 386.734375 343.59375 386.53125 342.144531 C 386.316406 340.617188 386.652344 339.019531 386.476563 337.480469 C 386.230469 335.359375 387.117188 334.410156 389.136719 334.398438 C 389.800781 334.394531 390.9375 334.449219 391.035156 334.75 C 391.289063 335.515625 391.429688 336.84375 390.992188 337.21875 C 388.527344 339.34375 389.4375 341.105469 391.582031 342.964844 "/>
<path style=" stroke:none;fill-rule:nonzero;fill:rgb(0%,0%,0%);fill-opacity:1;" d="M 438.222656 121.886719 L 444.253906 122.808594 L 445.75 124.664063 L 445.070313 129.105469 L 438.066406 133.296875 L 437.925781 134.203125 L 440.96875 134.667969 L 441.1875 133.242188 L 444.398438 133.734375 L 443.765625 137.878906 L 434.335938 136.433594 L 435.097656 131.441406 L 442.113281 127.195313 L 442.390625 125.382813 L 439.347656 124.914063 L 439.164063 126.101563 L 435.992188 125.613281 L 436.351563 123.265625 L 438.222656 121.886719 "/>
<path style=" stroke:none;fill-rule:nonzero;fill:rgb(0%,0%,0%);fill-opacity:1;" d="M 449.960938 131.785156 L 451.960938 132.089844 L 452.339844 129.628906 Z M 456.179688 124.632813 L 454.96875 132.550781 L 456.382813 132.765625 L 455.96875 135.484375 L 454.550781 135.269531 L 454.335938 136.675781 L 455.753906 136.890625 L 455.332031 139.648438 L 449.511719 138.757813 L 449.933594 136 L 451.332031 136.214844 L 451.546875 134.808594 L 445.839844 133.933594 L 446.296875 130.949219 L 452.96875 124.179688 L 456.179688 124.632813 "/>
<g clip-path="url(#clip2)" clip-rule="nonzero">
<path style=" stroke:none;fill-rule:nonzero;fill:rgb(0%,0%,0%);fill-opacity:1;" d="M 28.882813 475.980469 L 26.863281 470.550781 L 18.261719 459.152344 L 17.910156 459.152344 L 17.910156 470.550781 L 19.929688 475.980469 L 0 475.804688 L 2.019531 470.550781 L 2.019531 417.035156 L 0 411.871094 L 19.929688 412.046875 L 17.910156 417.035156 L 17.910156 428.699219 L 18.347656 428.789063 L 26.425781 417.035156 L 27.917969 411.871094 L 47.230469 411.871094 L 45.738281 417.035156 L 27.828125 443.210938 L 28.003906 445.351563 L 46.527344 470.550781 L 48.371094 475.804688 L 28.882813 475.980469 "/>
</g>
<g clip-path="url(#clip3)" clip-rule="nonzero">
<path style=" stroke:none;fill-rule:nonzero;fill:rgb(0%,0%,0%);fill-opacity:1;" d="M 68.296875 459.953125 L 76.816406 459.863281 L 79.359375 456.210938 L 79.273438 431.457031 L 76.816406 428.074219 L 68.121094 428.074219 L 65.664063 431.550781 L 65.664063 456.390625 Z M 49.777344 421.039063 L 55.304688 417.121094 L 60.132813 411.871094 L 84.800781 411.871094 L 89.808594 416.855469 L 95.339844 421.039063 L 95.339844 466.808594 L 89.808594 470.726563 L 85.855469 475.980469 L 59.167969 475.980469 L 55.21875 471.351563 L 49.777344 466.808594 L 49.777344 421.039063 "/>
</g>
<g clip-path="url(#clip4)" clip-rule="nonzero">
<path style=" stroke:none;fill-rule:nonzero;fill:rgb(0%,0%,0%);fill-opacity:1;" d="M 128.171875 454.875 L 127.375 453.453125 L 125.867188 452.652344 L 116.582031 452.652344 L 116.582031 460.664063 L 125.78125 460.664063 L 127.195313 459.863281 L 128.171875 458.527344 Z M 128.171875 430.234375 L 127.375 428.796875 L 125.867188 428.074219 L 116.582031 428.074219 L 116.582031 436.179688 L 125.78125 436.179688 L 127.195313 435.367188 L 128.171875 434.019531 Z M 143.53125 421.664063 L 143.53125 439.738281 L 139.144531 442.054688 L 138.351563 443.925781 L 139.230469 445.792969 L 143.53125 448.109375 L 143.53125 466.1875 L 142.828125 466.898438 L 138.792969 470.90625 L 133.613281 475.980469 L 98.671875 475.980469 L 100.691406 470.90625 L 100.691406 416.945313 L 98.671875 411.871094 L 133.613281 411.871094 L 134.226563 412.402344 L 142.828125 420.953125 L 143.53125 421.664063 "/>
</g>
<g clip-path="url(#clip5)" clip-rule="nonzero">
<path style=" stroke:none;fill-rule:nonzero;fill:rgb(0%,0%,0%);fill-opacity:1;" d="M 192.691406 411.871094 L 190.585938 416.945313 L 188.65625 427.097656 L 185.582031 429.144531 L 164.777344 429.144531 L 164.777344 435.289063 L 172.589844 435.289063 L 177.769531 433.238281 L 177.769531 454.609375 L 172.589844 452.5625 L 164.777344 452.5625 L 164.777344 458.707031 L 185.582031 458.707031 L 190.675781 456.746094 L 190.675781 470.90625 L 189.972656 472.953125 L 188.214844 474.820313 L 185.671875 475.980469 L 146.867188 475.980469 L 148.886719 470.90625 L 148.886719 416.945313 L 146.867188 411.871094 L 192.691406 411.871094 "/>
</g>
<g clip-path="url(#clip6)" clip-rule="nonzero">
<path style=" stroke:none;fill-rule:nonzero;fill:rgb(0%,0%,0%);fill-opacity:1;" d="M 250.457031 454.875 L 249.660156 453.453125 L 248.15625 452.652344 L 238.867188 452.652344 L 238.867188 460.664063 L 248.066406 460.664063 L 249.484375 459.863281 L 250.457031 458.527344 Z M 250.457031 430.234375 L 249.660156 428.796875 L 248.15625 428.074219 L 238.867188 428.074219 L 238.867188 436.179688 L 248.066406 436.179688 L 249.484375 435.367188 L 250.457031 434.019531 Z M 265.820313 421.664063 L 265.820313 439.738281 L 261.429688 442.054688 L 260.640625 443.925781 L 261.515625 445.792969 L 265.820313 448.109375 L 265.820313 466.1875 L 265.117188 466.898438 L 261.078125 470.90625 L 255.898438 475.980469 L 220.960938 475.980469 L 222.976563 470.90625 L 222.976563 416.945313 L 220.960938 411.871094 L 255.898438 411.871094 L 256.511719 412.402344 L 265.117188 420.953125 L 265.820313 421.664063 "/>
</g>
<g clip-path="url(#clip7)" clip-rule="nonzero">
<path style=" stroke:none;fill-rule:nonzero;fill:rgb(0%,0%,0%);fill-opacity:1;" d="M 298.914063 430.570313 L 298.125 428.519531 L 295.667969 427.539063 L 287.414063 427.539063 L 287.414063 438.671875 L 295.578125 438.671875 L 298.035156 437.515625 L 298.914063 435.644531 Z M 321.386719 474.910156 L 320.773438 475.535156 L 306.203125 475.535156 L 302.074219 474.46875 L 300.144531 472.953125 L 298.738281 470.28125 L 290.574219 455.054688 L 287.765625 455.054688 L 287.765625 470.28125 L 289.785156 475.535156 L 269.855469 475.625 L 271.875 470.371094 L 271.875 416.589844 L 269.855469 411.515625 L 306.378906 411.515625 L 314.71875 422.464844 L 314.71875 442.945313 L 306.378906 451.050781 L 317.175781 470.371094 L 318.667969 472.417969 L 320.335938 474.019531 L 321.386719 474.910156 "/>
</g>
<g clip-path="url(#clip8)" clip-rule="nonzero">
<path style=" stroke:none;fill-rule:nonzero;fill:rgb(0%,0%,0%);fill-opacity:1;" d="M 363.527344 411.957031 L 359.226563 417.035156 L 346.320313 446.238281 L 346.320313 470.726563 L 348.339844 475.980469 L 327.445313 475.980469 L 329.378906 470.726563 L 329.378906 446.238281 L 316.558594 417.035156 L 312.257813 411.957031 L 333.238281 411.871094 L 333.679688 417.035156 L 337.628906 431.371094 L 338.070313 431.371094 L 341.84375 417.035156 L 342.195313 411.871094 L 363.527344 411.957031 "/>
</g>
<g clip-path="url(#clip9)" clip-rule="nonzero">
<path style=" stroke:none;fill-rule:nonzero;fill:rgb(0%,0%,0%);fill-opacity:1;" d="M 379.066406 433.863281 L 375.90625 457.101563 L 377.835938 456.390625 L 379.589844 456.125 L 381.257813 456.390625 L 382.753906 457.101563 Z M 390.125 416.945313 L 401.800781 470.90625 L 405.136719 475.980469 L 382.398438 475.980469 L 383.367188 470.90625 L 382.839844 468.054688 L 382.664063 467.433594 L 381.171875 466.722656 L 379.328125 466.453125 L 377.660156 466.722656 L 375.464844 467.433594 L 375.378906 467.96875 L 374.851563 470.90625 L 375.90625 475.980469 L 353.167969 475.980469 L 356.414063 470.90625 L 368.089844 416.945313 L 367.300781 411.871094 L 390.914063 411.871094 L 390.125 416.945313 "/>
</g>
<g clip-path="url(#clip10)" clip-rule="nonzero">
<path style=" stroke:none;fill-rule:nonzero;fill:rgb(0%,0%,0%);fill-opacity:1;" d="M 406.628906 475.980469 L 408.648438 470.726563 L 408.648438 416.945313 L 406.628906 411.871094 L 423.746094 411.871094 L 437.089844 436.980469 L 437.53125 436.980469 L 437.53125 416.945313 L 435.511719 411.871094 L 456.230469 411.871094 L 454.296875 416.945313 L 454.296875 470.726563 L 453.683594 472.773438 L 451.753906 474.910156 L 449.296875 475.980469 L 437.53125 475.980469 L 424.097656 449.355469 L 423.746094 449.355469 L 423.746094 470.726563 L 425.765625 475.980469 L 406.628906 475.980469 "/>
</g>
<g clip-path="url(#clip11)" clip-rule="nonzero">
<path style=" stroke:none;fill-rule:nonzero;fill:rgb(0%,0%,0%);fill-opacity:1;" d="M 472.117188 475.980469 L 474.136719 470.726563 L 474.136719 427.898438 L 464.570313 427.898438 L 459.214844 429.945313 L 459.214844 414.539063 L 459.828125 412.761719 L 461.234375 411.871094 L 502.757813 411.871094 L 504.25 412.582031 L 504.953125 414.273438 L 504.953125 429.945313 L 499.597656 427.898438 L 490.027344 427.898438 L 490.027344 470.726563 L 492.046875 475.980469 L 472.117188 475.980469 "/>
</g>
<path style=" stroke:none;fill-rule:nonzero;fill:rgb(0%,0%,0%);fill-opacity:1;" d="M 6.863281 137.8125 L 5.773438 137.8125 L 5.773438 148.1875 L 6.316406 148.265625 L 6.746094 148.1875 L 7.292969 148.03125 L 7.527344 147.5625 L 7.527344 138.945313 L 7.449219 138.28125 Z M 7.410156 125.683594 L 6.941406 125.253906 L 6.355469 125.175781 L 5.773438 125.175781 L 5.773438 133.25 L 6.746094 133.25 L 7.214844 133.015625 L 7.449219 132.585938 L 7.527344 131.847656 L 7.527344 126.269531 Z M 12.050781 122.328125 C 12.441406 122.71875 12.738281 123.238281 12.949219 123.890625 L 13.183594 126.621094 L 13.183594 130.792969 C 13.183594 133.289063 12.363281 134.835938 10.726563 135.433594 C 11.269531 135.667969 11.636719 135.890625 11.816406 136.097656 C 12.441406 136.617188 12.84375 137.214844 13.027344 137.890625 C 13.128906 138.359375 13.183594 139.152344 13.183594 140.269531 L 13.183594 147.640625 C 13.183594 148.316406 13.050781 149.070313 12.792969 149.902344 C 12.660156 150.371094 12.324219 150.851563 11.777344 151.347656 C 11.257813 151.683594 10.671875 151.917969 10.023438 152.046875 L 6.589844 152.320313 L 0.0390625 152.320313 L 0.0390625 121.121094 L 7.371094 121.121094 L 10.335938 121.394531 L 12.050781 122.328125 "/>
<path style=" stroke:none;fill-rule:nonzero;fill:rgb(0%,0%,0%);fill-opacity:1;" d="M 25.542969 148.1875 L 25.542969 152.320313 L 16.417969 152.320313 L 16.417969 121.121094 L 22.074219 121.121094 L 22.074219 148.1875 L 25.542969 148.1875 "/>
<path style=" stroke:none;fill-rule:nonzero;fill:rgb(0%,0%,0%);fill-opacity:1;" d="M 35.449219 127.320313 L 35.292969 127.320313 L 34.398438 141.480469 L 36.308594 141.480469 Z M 36.972656 152.320313 L 36.542969 145.652344 L 34.164063 145.652344 L 33.773438 152.320313 L 28.234375 152.320313 L 31.550781 121.121094 L 39.117188 121.121094 L 42.546875 152.320313 L 36.972656 152.320313 "/>
<path style=" stroke:none;fill-rule:nonzero;fill:rgb(0%,0%,0%);fill-opacity:1;" d="M 51.949219 125.136719 L 51.519531 125.253906 L 51.246094 125.527344 L 51.363281 147.953125 L 51.753906 148.1875 L 52.027344 148.1875 L 52.375 148.148438 L 52.726563 147.835938 L 52.84375 139.023438 L 58.5 139.023438 L 58.5 146.121094 L 58.265625 149.277344 C 58.238281 149.617188 58.070313 150.109375 57.757813 150.761719 C 57.394531 151.253906 56.875 151.617188 56.199219 151.851563 L 54.015625 152.28125 L 52.066406 152.320313 L 48.75 152.164063 L 47.152344 151.617188 C 46.550781 151.28125 46.148438 150.851563 45.941406 150.332031 L 45.550781 148.460938 L 45.511719 127.203125 C 45.511719 126.476563 45.539063 125.761719 45.589844 125.058594 C 45.667969 124.046875 45.8125 123.316406 46.023438 122.875 C 46.335938 122.226563 46.886719 121.757813 47.671875 121.472656 L 49.671875 121.121094 L 55.320313 121.238281 C 55.871094 121.238281 56.414063 121.40625 56.949219 121.746094 C 57.484375 122.082031 57.84375 122.511719 58.027344 123.03125 L 58.5 124.902344 L 58.5 131.730469 L 52.84375 131.730469 L 52.84375 126.503906 L 52.765625 125.761719 L 52.570313 125.371094 L 52.101563 125.175781 L 51.949219 125.136719 "/>
<path style=" stroke:none;fill-rule:nonzero;fill:rgb(0%,0%,0%);fill-opacity:1;" d="M 71.640625 134.847656 L 75.308594 152.320313 L 69.574219 152.320313 L 67.15625 137.1875 L 66.960938 137.1875 L 66.960938 152.320313 L 61.425781 152.320313 L 61.425781 121.121094 L 66.960938 121.121094 L 66.960938 133.523438 L 67.15625 133.523438 L 69.222656 121.121094 L 74.917969 121.121094 L 71.640625 134.847656 "/>
<path style=" stroke:none;fill-rule:nonzero;fill:rgb(0%,0%,0%);fill-opacity:1;" d="M 14.941406 161.050781 L 14.941406 187.320313 L 10.707031 187.320313 L 10.835938 171.789063 L 10.707031 171.789063 L 8.800781 187.320313 L 6.238281 187.320313 L 4.335938 171.789063 L 4.171875 171.789063 L 4.335938 187.320313 L 0.03125 187.320313 L 0.03125 161.050781 L 5.632813 161.050781 L 7.410156 173.65625 L 7.597656 173.65625 L 9.40625 161.050781 L 14.941406 161.050781 "/>
<path style=" stroke:none;fill-rule:nonzero;fill:rgb(0%,0%,0%);fill-opacity:1;" d="M 23.707031 166.273438 L 23.578125 166.273438 L 22.820313 178.191406 L 24.429688 178.191406 Z M 24.988281 187.320313 L 24.628906 181.703125 L 22.625 181.703125 L 22.296875 187.320313 L 17.632813 187.320313 L 20.425781 161.050781 L 26.792969 161.050781 L 29.683594 187.320313 L 24.988281 187.320313 "/>
<path style=" stroke:none;fill-rule:nonzero;fill:rgb(0%,0%,0%);fill-opacity:1;" d="M 47.089844 161.050781 L 47.089844 187.320313 L 42.851563 187.320313 L 42.984375 171.789063 L 42.851563 171.789063 L 40.949219 187.320313 L 38.386719 187.320313 L 36.480469 171.789063 L 36.316406 171.789063 L 36.480469 187.320313 L 32.179688 187.320313 L 32.179688 161.050781 L 37.777344 161.050781 L 39.554688 173.65625 L 39.742188 173.65625 L 41.554688 161.050781 L 47.089844 161.050781 "/>
<path style=" stroke:none;fill-rule:nonzero;fill:rgb(0%,0%,0%);fill-opacity:1;" d="M 55.527344 175.105469 L 54.605469 175.105469 L 54.605469 183.839844 L 55.066406 183.90625 L 55.429688 183.839844 L 55.886719 183.707031 L 56.085938 183.3125 L 56.085938 176.058594 L 56.019531 175.5 Z M 55.988281 164.894531 L 55.59375 164.53125 L 55.101563 164.464844 L 54.605469 164.464844 L 54.605469 171.265625 L 55.429688 171.265625 L 55.824219 171.066406 L 56.019531 170.703125 L 56.085938 170.082031 L 56.085938 165.386719 Z M 59.894531 162.070313 C 60.222656 162.398438 60.472656 162.835938 60.648438 163.382813 L 60.847656 165.679688 L 60.847656 169.195313 C 60.847656 171.296875 60.15625 172.597656 58.777344 173.101563 C 59.238281 173.300781 59.542969 173.484375 59.699219 173.660156 C 60.222656 174.097656 60.5625 174.601563 60.714844 175.171875 C 60.800781 175.566406 60.847656 176.234375 60.847656 177.175781 L 60.847656 183.378906 C 60.847656 183.949219 60.738281 184.585938 60.519531 185.285156 C 60.40625 185.679688 60.125 186.085938 59.664063 186.5 C 59.226563 186.785156 58.734375 186.980469 58.1875 187.089844 L 55.296875 187.320313 L 49.78125 187.320313 L 49.78125 161.050781 L 55.953125 161.050781 L 58.449219 161.28125 L 59.894531 162.070313 "/>
<path style=" stroke:none;fill-rule:nonzero;fill:rgb(0%,0%,0%);fill-opacity:1;" d="M 69.648438 166.273438 L 69.515625 166.273438 L 68.761719 178.191406 L 70.367188 178.191406 Z M 70.925781 187.320313 L 70.566406 181.703125 L 68.5625 181.703125 L 68.234375 187.320313 L 63.570313 187.320313 L 66.363281 161.050781 L 72.734375 161.050781 L 75.621094 187.320313 L 70.925781 187.320313 "/>
</g>
</svg>
