<?xml version="1.0" encoding="UTF-8"?>
<!DOCTYPE svg PUBLIC "-//W3C//DTD SVG 1.1//EN" "http://www.w3.org/Graphics/SVG/1.1/DTD/svg11.dtd">
<!-- Creator: CorelDRAW X7 -->
<svg xmlns="http://www.w3.org/2000/svg" xml:space="preserve" width="20.7035mm" height="20.6817mm" version="1.1" style="shape-rendering:geometricPrecision; text-rendering:geometricPrecision; image-rendering:optimizeQuality; fill-rule:evenodd; clip-rule:evenodd"
viewBox="0 0 4348 5463"
 xmlns:xlink="http://www.w3.org/1999/xlink">
 <defs>
  <style type="text/css">
   <![CDATA[
    .fil0 {fill:black}
   ]]>
  </style>
 </defs>
 <g id="Layer_x0020_1">
  <metadata id="CorelCorpID_0Corel-Layer"/>
  <g id="_406098192">
   <path class="fil0" d="M4346 3633c-6,-8 -52,-34 -70,-34 -18,0 -77,39 -88,47 -12,8 -40,21 -49,22 -9,1 -91,5 -109,5 -18,0 -46,-5 -58,-4 -12,1 -36,1 -42,1 -5,0 -7,-8 0,-16 8,-8 20,-30 32,-47 12,-16 33,-29 45,-35 12,-6 31,-14 33,-23 2,-8 -30,-8 -50,-2 -19,6 -46,34 -53,42 -8,8 -14,9 -20,8 -6,-1 -18,10 -23,14 -5,4 -18,14 -31,14 -12,0 -27,-14 -33,-19 -6,-5 -19,-9 -27,-8 -8,1 -24,-4 -35,-13 -11,-9 -14,-18 -11,-23 3,-6 9,-19 11,-25 2,-6 -6,-9 -13,-13 -8,-4 -71,-43 -118,-88 -42,-37 -117,-91 -152,-119 -27,-22 -172,-135 -261,-192 -90,-57 -170,-114 -203,-119 -32,-5 -40,-8 -48,-18 -9,-10 -136,-128 -208,-168 -72,-39 -217,-108 -225,-115 14,-23 17,-49 11,-73 -6,-23 -55,-59 -75,-72 -19,-13 -32,-18 -32,-18 0,0 -32,-70 -35,-81 9,-37 34,-157 29,-317 -5,-160 -18,-183 -35,-216 -17,-34 -43,-68 -61,-142 -18,-74 -23,-141 -14,-171 9,-29 34,-81 50,-141 16,-60 6,-105 8,-125 2,-20 17,-41 20,-94 3,-52 23,-55 37,-132 14,-76 21,-122 21,-122 0,0 26,-4 31,-26 5,-23 6,-41 12,-76 6,-36 8,-77 9,-85 1,-8 -7,-21 -7,-21 0,0 10,-146 13,-181 3,-36 14,-62 14,-76 0,-15 1,-26 -15,-51 3,-8 7,-14 10,-17 3,0 5,0 8,0 129,0 234,-104 234,-234 0,-129 -105,-234 -234,-234 -129,0 -234,105 -234,234 0,39 10,76 26,108 4,14 9,30 12,36 6,10 14,19 17,30 3,12 19,38 24,47 5,9 13,31 13,39 0,8 7,23 11,33 4,11 3,32 -2,56 -5,25 -30,147 -38,172 -17,10 -22,23 -24,34 -2,11 -14,63 -22,82 -8,19 -11,54 -12,64 -1,10 -2,34 -10,39 -8,12 -15,32 -22,44 -7,11 -12,49 -10,66 2,16 -1,50 -9,61 -11,24 -13,52 -20,67 -6,14 -26,88 -29,103 -3,16 -33,39 -46,52 -13,14 -37,50 -43,60 -3,-21 -7,-21 -11,-28 -4,-7 -16,-11 -19,-14 -4,-3 4,-12 5,-22 1,-10 0,-21 -22,-28 -23,-7 -30,-9 -39,-17 -8,-8 -31,-15 -38,-25 -22,-25 -56,-56 -124,-58 0,0 -49,-1 -88,25 -36,23 -100,70 -113,165 -13,96 73,157 80,163 8,6 28,18 14,37 -7,6 -10,17 -11,23 -1,6 -13,22 -24,32 -11,11 -35,36 -35,36 0,0 -58,3 -94,53 -15,18 -22,44 -33,59 -10,15 -45,79 -56,99 -10,19 -17,45 -46,72 -10,17 -34,34 -54,113 0,0 -81,98 -109,145 -28,47 -73,128 -76,139 -3,12 -26,51 -32,66 -6,16 -8,30 -15,38 -7,8 -33,45 -55,64 -22,19 -29,31 -36,40 -6,9 -15,22 -52,40 -38,19 -58,37 -114,43 -56,6 -87,1 -91,21 -4,21 94,25 126,20 43,-5 68,-28 74,-23 5,6 -13,34 -49,45 -37,11 -31,23 -31,29 0,6 22,13 55,4 34,-9 94,-38 99,-32 5,6 -13,31 -20,41 -6,10 3,21 13,22 9,1 32,-2 50,-36 19,-35 44,-51 51,-51 7,0 39,34 60,42 22,9 68,9 74,-15 5,-23 -29,-24 -37,-24 -8,0 -28,-18 -29,-29 -1,-10 6,-42 2,-57 -3,-14 8,-65 21,-97 13,-33 58,-110 89,-129 32,-20 140,-98 173,-168 34,-70 47,-106 58,-111 11,-5 30,-6 45,-27 15,-22 20,-38 32,-38 13,0 12,-5 46,46 35,51 49,60 52,67 3,7 -7,21 4,42 14,27 35,33 35,47 0,15 4,41 11,59 7,19 21,48 13,60 -10,17 -35,46 -40,56 -30,4 -74,18 -81,82 -7,60 2,118 -1,131 -3,13 -43,53 -58,59 -15,6 -51,11 -63,29 -12,19 -15,34 -39,47 -22,13 -170,140 -270,288 -4,5 -13,8 -24,12 -44,8 -60,21 -69,25 -7,4 -25,22 -44,43 -7,11 -17,13 -21,17 -38,14 -178,86 -261,144 -83,58 -238,191 -293,259 -35,43 -40,42 -49,46 -9,4 -5,24 -2,34 0,0 -16,23 -26,25 -10,2 -19,-19 -33,-20 -13,-1 -27,27 -31,34 -4,7 -10,20 -20,22 -9,2 -25,-10 -27,-35 -2,-26 -18,-50 -23,-52 -13,0 -20,19 -20,26 0,7 7,27 14,35 6,8 2,19 2,27 0,9 10,17 11,20 1,3 5,25 -3,23 -8,-2 -26,-1 -38,7 -12,8 -18,19 -18,26 0,7 5,22 -20,27 -29,10 -52,14 -68,19 -15,5 -51,26 -65,28 -14,2 -23,1 -35,2 -13,1 -24,7 -36,7 -12,0 -48,19 -67,29 -19,11 -42,44 -27,75 14,30 54,70 68,84 13,14 32,27 75,32 43,5 67,-11 88,-24 22,-13 68,-20 87,-16 18,4 56,17 86,-5 39,-27 27,-44 38,-51 10,0 14,-5 23,-20 9,-16 21,-29 37,-32 16,-3 31,-22 42,-44 10,-21 30,-42 40,-46 10,-4 16,-14 19,-22 4,-8 23,-15 34,-24 11,-9 20,-14 25,-10 6,4 15,-4 26,-12 25,-13 38,-34 46,-29 8,5 36,12 47,2 12,-10 160,-130 213,-170 36,-24 62,-33 132,-74 57,-33 144,-90 163,-104 19,-13 108,-81 119,-89 24,-17 49,-20 138,-65 66,-34 205,-104 324,-180 61,-37 165,-90 178,-91 14,-1 50,27 89,41 47,17 78,21 145,44 67,22 248,98 292,116 44,17 104,39 180,43 43,9 63,15 77,18 15,3 26,2 40,8 14,6 56,33 81,46 26,12 116,72 140,89 23,17 132,101 156,117 25,16 49,36 67,38 19,2 41,14 65,33 25,19 82,59 98,71 16,13 39,34 70,36 32,2 47,9 67,27 21,19 51,59 65,68 15,8 31,21 37,33 6,12 44,59 58,69 14,10 20,19 25,36 5,16 27,59 38,76 11,17 16,35 49,12 41,-27 75,-67 128,-101 53,-35 83,-54 124,-82 41,-27 139,-125 168,-155 28,-31 40,-44 34,-52l0 0z"/>
   <path class="fil0" d="M1174 4490l0 809c0,126 -103,164 -186,164 -102,0 -181,-74 -177,-178l0 -204 142 0 0 200c0,63 22,68 40,68 19,0 39,-5 39,-68l0 -791 142 0z"/>
   <path class="fil0" d="M1254 4632c0,-125 97,-161 185,-161 88,0 186,36 186,161l0 670c0,125 -98,161 -186,161 -88,0 -185,-36 -185,-161l0 -670zm142 658c0,48 14,59 44,59 28,0 43,-11 43,-59l0 -646c0,-48 -15,-59 -43,-59 -30,0 -44,11 -44,59l0 646z"/>
   <path class="fil0" d="M1700 5444l0 -954 188 0c114,0 183,40 183,163l0 136c0,71 -20,130 -140,143l0 3c63,8 130,29 135,116 8,128 0,262 23,393l-142 0c-25,-110 -18,-253 -18,-364 0,-58 -21,-81 -87,-78l0 442 -142 0zm142 -559l27 0c49,0 60,-27 60,-61l0 -173c0,-37 -21,-47 -53,-47l-34 0 0 281z"/>
   <path class="fil0" d="M2146 4490l172 0c141,0 200,48 200,216l0 565c0,91 -59,173 -169,173l-203 0 0 -954zm142 840l34 0c36,0 54,-9 54,-71l0 -584c0,-62 -18,-71 -54,-71l-34 0 0 726z"/>
   <path class="fil0" d="M2672 4490l213 0 109 954 -144 0 -27 -259 -100 0 -31 259 -129 0 109 -954zm138 571l-30 -397 -9 0 -35 397 74 0z"/>
   <path class="fil0" d="M3256 4490l41 274c32,178 55,361 67,541l5 0 0 -51c1,-93 -4,-186 -4,-279l0 -485 116 0 0 954 -210 0 -67 -477c-23,-118 -31,-225 -43,-338l-5 0c0,42 2,83 4,123l0 692 -117 0 0 -954 213 0z"/>
   <polygon class="fil0" points="1046,4274 1160,4274 1203,4330 1246,4274 1360,4274 1360,4367 1289,4367 1289,4296 1235,4367 1171,4367 1117,4296 1117,4367 1046,4367 "/>
   <polygon class="fil0" points="1497,4274 1584,4274 1584,4367 1497,4367 "/>
   <path class="fil0" d="M1911 4329l75 8c-5,7 -13,13 -24,17 -11,5 -24,9 -41,11 -16,2 -36,4 -62,4 -30,0 -55,-2 -74,-5 -19,-3 -36,-8 -50,-15 -14,-8 -21,-17 -21,-29 0,-15 12,-27 37,-36 24,-8 59,-12 104,-12 36,0 63,2 83,7 21,5 36,12 45,22l-76 6c-3,-3 -5,-5 -8,-6 -5,-3 -11,-4 -18,-6 -7,-1 -15,-1 -23,-1 -20,0 -35,2 -46,8 -7,3 -11,10 -11,18 0,10 4,17 14,21 9,4 22,6 40,6 16,0 29,-1 37,-5 9,-3 15,-7 19,-13l0 0z"/>
   <polygon class="fil0" points="2107,4274 2193,4274 2193,4306 2288,4306 2288,4274 2374,4274 2374,4367 2288,4367 2288,4329 2193,4329 2193,4367 2107,4367 "/>
   <path class="fil0" d="M2682 4352l-98 0 -14 15 -88 0 104 -93 96 0 104 93 -90 0 -14 -15zm-19 -21l-30 -33 -30 33 60 0z"/>
   <polygon class="fil0" points="2892,4274 3124,4274 3124,4294 2979,4294 2979,4308 3114,4308 3114,4327 2979,4327 2979,4346 3128,4346 3128,4367 2892,4367 "/>
   <polygon class="fil0" points="3253,4274 3340,4274 3340,4344 3475,4344 3475,4367 3253,4367 "/>
  </g>
 </g>
</svg>
