<?xml version="1.0" encoding="UTF-8"?>
<!DOCTYPE svg PUBLIC "-//W3C//DTD SVG 1.1//EN" "http://www.w3.org/Graphics/SVG/1.1/DTD/svg11.dtd">
<!-- Creator: CorelDRAW -->
<svg xmlns="http://www.w3.org/2000/svg" xml:space="preserve" width="2.78339in" height="1.19365in" style="shape-rendering:geometricPrecision; text-rendering:geometricPrecision; image-rendering:optimizeQuality; fill-rule:evenodd; clip-rule:evenodd"
viewBox="0 0 1.14337 0.490331"
 xmlns:xlink="http://www.w3.org/1999/xlink">
 <defs>
  <style type="text/css">
   <![CDATA[
    .fil1 {fill:#006BB7}
    .fil2 {fill:#ED174B}
    .fil0 {fill:white}
   ]]>
  </style>
 </defs>
 <g id="Layer_x0020_1">
  <metadata id="CorelCorpID_0Corel-Layer"/>
  <g id="_525944120">
   <path id="_525945872" class="fil0" d="M0.0100156 0.0201493c0.00943018,-0.0127876 0.0253003,-0.0206717 0.0412156,-0.0201218 0.038738,2.74932e-005 0.0774663,8.08625e-006 0.116193,8.08625e-006 0.0208189,0.000430188 0.0401369,0.0155046 0.0460463,0.0353984 0.0030372,0.00892722 0.00208625,0.0184496 0.0022221,0.0277067 9.7035e-006,0.125623 -8.08625e-006,0.251248 9.7035e-006,0.376871 0,0.0118464 -0.00429865,0.0237008 -0.0121019,0.0326377 -0.00911805,0.0107935 -0.0229763,0.0174695 -0.0371175,0.0176345 -0.0381056,-1.77897e-005 -0.0762032,-1.77897e-005 -0.114309,-9.7035e-006 -0.0120744,0.000595148 -0.024249,-0.00357574 -0.0335887,-0.0112043 -0.0107385,-0.00854393 -0.0174065,-0.0217051 -0.0185854,-0.0353159l0 -0.397243c0.000913746,-0.00946576 0.00422587,-0.0187682 0.0100156,-0.0263612zm0.0130075 0.00282695c-0.00699784,0.00690566 -0.0111509,0.0166011 -0.011379,0.0264356 -1.9407e-005,0.128651 8.08625e-006,0.257303 -9.7035e-006,0.385963 -0.000310512,0.00698814 0.000457682,0.014159 0.00350296,0.0205439 0.00584474,0.0133181 0.0197757,0.0225105 0.03431,0.0227127 0.0386555,2.5876e-005 0.077311,-1.9407e-005 0.115965,2.74932e-005 -0.00443612,-0.00244366 -0.00766415,-0.00694285 -0.00767385,-0.0121294 -0.000292722,-0.0113887 0.00292722,-0.0226108 0.00247924,-0.0340091 -0.00106092,-0.00181132 -0.00266199,-0.00330081 -0.00332021,-0.00531428 4.5283e-005,-0.00187439 0.00101563,-0.00359353 0.000960646,-0.00545175 -0.00183881,-0.00907277 -0.0075283,-0.0165914 -0.0114712,-0.0247876 -0.00141671,-0.0026717 -0.000960646,-0.00588194 0.00101563,-0.00813153 -0.00167385,-0.00413369 -0.00292722,-0.00851644 -0.0052787,-0.0123202 -0.0120097,-0.00744582 -0.0230959,-0.0163197 -0.0332393,-0.0261525 -0.00547924,-0.00519461 -0.0105089,-0.0108566 -0.016373,-0.0156226 -0.00628302,-0.00724366 -0.0120469,-0.014945 -0.0175795,-0.0227838 -0.00765606,-0.0110588 -0.0152393,-0.0222275 -0.0213946,-0.0342194 -0.00328463,-0.000447978 -0.00654986,-0.000960646 -0.00984258,-0.00135364 -0.00408841,-0.0162906 -0.0156776,-0.029518 -0.0193552,-0.0459364 -0.00181941,-0.00755579 -0.000302426,-0.0153299 0.00116119,-0.0228032 0.000722911,-0.00322803 0.00127116,-0.00653045 0.00248895,-0.00961293 0.0014442,-0.00327493 0.00459137,-0.005269 0.00675849,-0.00800377 0.000449595,-0.00165606 0.000164959,-0.00343019 0.000247439,-0.00513153 -0.00566199,-0.000109973 -0.0116248,0.000640431 -0.0169585,-0.00171105 -0.00261186,-0.00484366 -0.00317466,-0.00911967 -0.00381348,-0.0138566 0.00240485,-0.011041 0.00685876,-0.0214949 0.0117995,-0.0316124 0.00252453,-0.00574447 0.00583504,-0.0111315 0.00774663,-0.0171234 0.00384259,-0.0109294 0.00896442,-0.0214496 0.0157245,-0.0308798 0.00343827,-0.00483881 0.00809434,-0.00913746 0.0139488,-0.0107288 0.00527709,-0.00138113 0.0107838,-0.00161078 0.0162081,-0.00192129 0.000302426,-0.000384905 0.000915363,-0.0011434 0.00122588,-0.00152668 0.00530458,-0.000512668 0.0123396,0.000640431 0.0159606,-0.00420808 0.00219623,-0.00517682 0.00193908,-0.0110313 0.00276226,-0.016538 -0.00289003,-0.00088787 -0.00301779,-0.00419838 -0.00352075,-0.00668571 -0.000237736,-0.00236927 -0.000868463,-0.00510404 0.000667924,-0.0071628 0.000886253,-0.00160108 0.00289003,-0.000968733 0.00439083,-0.00121617 0.000310512,-0.00651267 0.000182749,-0.0134361 0.00332021,-0.0193552 0.00241455,-0.00454609 0.00738113,-0.00668571 0.0118447,-0.00868948 -0.0219978,-2.74932e-005 -0.0439973,9.7035e-006 -0.0659951,-1.77897e-005 -0.0100981,0 -0.0201687,0.0041256 -0.0272846,0.0113143zm0.104906 -0.0113062c0.0044717,0.00172884 0.00882533,0.00422587 0.0114243,0.00841617 0.00227709,0.00115148 0.00432614,0.00289973 0.00510404,0.00542426 0.00282534,0.00729865 -0.000247439,0.0150744 -0.00334771,0.0217423 0.00354016,0.00380539 -0.000475471,0.00840646 -0.00247924,0.0118819 -0.000942857,0.00239515 -0.00391536,0.00285283 -0.00498436,0.00510404 -0.0019035,0.00348517 -0.00359515,0.00717897 -0.00630242,0.0101337 -0.00118059,0.00126307 -0.00286415,0.00200377 -0.00388787,0.0034221 -0.000283019,0.00133423 -0.00080539,0.00313746 0.000255525,0.00427116 0.00434555,0.00321994 0.0110507,0.00408841 0.0134183,0.00945768 0.00670512,0.00512183 0.0147364,0.00894663 0.019483,0.0162178 0.0083062,0.0123655 0.0086539,0.0279251 0.00855363,0.0422862 0.00233207,0.00868948 0.00282534,0.0177639 0.00535957,0.0263887 0.00280755,0.00660485 0.00657574,0.0128329 0.00854231,0.0197854 0.00241617,0.00728894 0.00170135,0.0152652 0.00462048,0.0224183 0.00380539,0.000656603 0.0143272,0.00699461 0.0152927,0.0102259 0.00135364,0.00343989 0.00344798,0.00649488 0.00503126,0.00982479 0.000200539,-0.0621719 9.7035e-006,-0.124354 0.000100269,-0.186524 0.000155256,-0.00870889 -0.00228679,-0.0175439 -0.00750889,-0.024579 -0.00706253,-0.00981347 -0.0189623,-0.0158976 -0.0310544,-0.0159057 -0.0125402,1.77897e-005 -0.0250803,8.08625e-006 -0.0376205,8.08625e-006zm-0.00182102 0.137259c-0.00214933,0.00138113 -0.00291752,0.00391536 -0.00386846,0.00612938 -0.00294663,0.00728894 -0.0056814,0.0146523 -0.00855363,0.0219703 -0.000886253,0.00205876 -0.000978436,0.00430835 -0.00108841,0.00652237 0.00425337,0.00148949 0.0067876,0.00555202 0.00799568,0.00968571 0.00405121,0.0132534 0.00777412,0.0266086 0.0114243,0.0399719 -0.00082318,0.000842587 -0.00164636,0.00168356 -0.00246954,0.00253423 0.00458167,0.0146345 0.00734393,0.0298189 0.00872506,0.045076 0.000659838,0.00665013 0.00105283,0.0135105 0.00396064,0.0196561 0.00362264,0.00974231 0.0110135,0.0176636 0.0136011,0.0278442 0.00297412,0.011945 0.00461078,0.0241666 0.00670512,0.0362862 0.000475471,0.00245013 0.000687331,0.00500215 0.00170135,0.00732614 0.00345768,0.00529649 0.00805876,0.0103261 0.00900161,0.0168113 -0.000109973,0.00566199 -0.0026345,0.0109407 -0.00326523,0.0165477 -0.00125337,0.00578005 0.000913746,0.0114792 0.00153639,0.0171962 0.000365498,0.00388787 0.00239515,0.00727116 0.00357574,0.010931 -0.000567655,0.00150889 -0.00140862,0.00310997 -0.000603234,0.00472884 0.00292722,0.00913746 0.00709811,0.0185773 0.00517682,0.0283827 -0.000996226,0.00513153 -0.00491159,0.00891752 -0.0090097,0.0118269 0.0100156,-0.00150889 0.0195655,-0.00676819 0.0255833,-0.0150097 0.00544366,-0.0071531 0.00801347,-0.0162 0.0078663,-0.025145 -9.0566e-005,-0.0580738 0.00012938,-0.116157 -0.000108356,-0.174231 -0.0045283,0.0106108 -0.0141234,0.0189978 -0.0255574,0.0211569 -0.0151827,0.003338 -0.0317304,-0.00533369 -0.0379779,-0.0194927 -0.00384097,-0.00824151 -0.00426307,-0.0179919 -0.00098814,-0.0264792 0.00384259,-0.0105752 0.0131903,-0.0189526 0.0241666,-0.0214965 -0.00397843,-0.010711 -0.00965983,-0.0206895 -0.0144614,-0.031035 -0.00201186,-0.00466577 -0.00280755,-0.00972291 -0.00389595,-0.0146539 -0.00220431,-0.0103181 -0.00374232,-0.0207639 -0.00587223,-0.03109 -0.00475633,0.00210404 -0.00911967,0.00498436 -0.0133003,0.00804905zm0.118544 0.331467c-7.27762e-005,-0.156532 -3.71967e-005,-0.313062 -9.7035e-006,-0.469594 0.0398086,9.7035e-006 0.0796059,9.7035e-006 0.119413,0 0.00665013,0.0229682 0.0133455,0.0459364 0.0198954,0.0689401 0.00740862,0.0253003 0.014662,0.0506474 0.0219897,0.0759849 0.000410781,0.00138922 0.000785983,0.00280755 0.00121617,0.00420647 0.00453639,0.0158426 0.00930242,0.0316221 0.0136189,0.047518 0.000329919,-0.0655374 2.74932e-005,-0.131102 0.000156873,-0.196649 0.0367698,9.7035e-006 0.0735412,9.7035e-006 0.110311,0 1.9407e-005,0.00192129 2.74932e-005,0.00385067 7.27762e-005,0.00578975 0.000632345,0.00846954 0.000137466,0.0170054 0.000274932,0.0255024 -0.000722911,0.00544205 0.000375202,0.0109488 -0.000347709,0.016373 7.43935e-005,0.00125337 0.000182749,0.00249703 0.000312129,0.0037504 -0.000137466,0.00125175 -0.000239353,0.00250512 -0.000312129,0.00375849 0.000412399,0.00178383 0.000447978,0.00361294 6.469e-005,0.00540647 0.000320215,0.00243234 0.000320215,0.00488409 0,0.00731806 0.000302426,0.00397843 0.000127763,0.00798436 0.000273315,0.0119822 -0.000383288,0.00173693 -0.000365498,0.00352075 0,0.00527709 -0.000182749,0.00734555 -0.000355795,0.0146911 -6.30727e-005,0.0220253 0.000137466,0.00210404 8.24797e-005,0.00422749 -0.000210242,0.00632183 -8.24797e-005,0.00244205 -0.000155256,0.00490188 0.000328302,0.00731644 -0.000100269,0.00125337 -0.000200539,0.00250674 -0.000300808,0.00376981 0.000375202,0.00390404 0.000430188,0.00787439 -3.71967e-005,0.01178 -8.24797e-005,0.00186631 -1.77897e-005,0.0037407 0.000237736,0.00559892 -0.000465768,0.00367601 -0.000255525,0.00738113 -0.000219946,0.0110765 0.000732614,0.0048663 -0.000456064,0.0097504 -8.08625e-006,0.0146442 0.000438275,0.00299029 0.000430188,0.0060469 0,0.0090469 0.000465768,0.00363073 0.000438275,0.00732614 2.74932e-005,0.0109666 0.000338005,0.00646738 0.000648517,0.0130609 -0.000192453,0.0194927l0.000575741 0.000346091c-0.00084097,0.00276388 0.000274932,0.00561671 -0.000402695,0.00840646 -8.08625e-006,0.0007407 -2.5876e-005,0.00222372 -3.55795e-005,0.00296442 0.000127763,0.00120647 0.000247439,0.00242426 0.000347709,0.00364043 -0.000950943,0.00417089 0.000621024,0.00842425 -0.000312129,0.0126048 -0.000118059,0.00247763 -0.000118059,0.00496657 0.000229649,0.00742641 -0.000302426,0.00147331 -0.000283019,0.00298221 0,0.00446361 8.24797e-005,0.00278005 0.000200539,0.00557951 -0.000237736,0.00833369 0.000137466,0.00125175 0.000247439,0.00250512 0.000320215,0.00376819 -0.00080539,0.00329272 0.000145552,0.00663072 -5.49865e-005,0.00995094 -0.000237736,0.00121779 -0.000257143,0.00243396 -5.49865e-005,0.00365984 -0.000274932,0.0014911 -0.000255525,0.00300808 0.000109973,0.0044911 -0.000100269,0.00124367 -0.000202156,0.00249703 -0.000302426,0.0037504 0.000412399,0.00390566 0.000502965,0.0078938 -9.0566e-005,0.01178 9.0566e-005,0.00125337 0.000190835,0.00250674 0.000292722,0.00376011 -4.69002e-005,0.0045283 -0.000467385,0.00910026 3.55795e-005,0.0136205 -9.0566e-005,0.0052221 1.77897e-005,0.0104636 -0.000265229,0.0156582 0.000357412,0.00179353 0.000384905,0.00364043 8.24797e-005,0.00546145 -0.000164959,0.00271698 -0.000219946,0.00545175 0.000182749,0.00815903 1.9407e-005,0.00158167 1.77897e-005,0.00317304 9.7035e-006,0.00478383 -0.000475471,0.00507655 -0.000530458,0.0102534 3.55795e-005,0.0153299 -2.5876e-005,0.0015283 -9.0566e-005,0.00305498 -0.000292722,0.00457358 -0.000173046,0.00740054 0.000329919,0.014772 0.000265229,0.0221725 -0.000713207,0.006338 0.000422102,0.0127051 -0.000118059,0.0190625 0.000247439,0.0033655 -0.000430188,0.0067407 6.469e-005,0.0101062 -0.000832884,0.0048663 0.000365498,0.00976981 -0.000174663,0.0146361 0.000695417,0.00427116 -0.000347709,0.00856172 0.000174663,0.0128507 -0.000394609,0.00484851 0.000575741,0.00973261 -0.00021186,0.0145811 0.000422102,0.00272507 0.000394609,0.00549703 1.9407e-005,0.0082318 0.000320215,0.00155418 0.000803773,0.00407062 -0.00161887,0.00379569 -0.0391035,2.74932e-005 -0.0781973,0 -0.117301,9.7035e-006 -0.00268949,-0.00957735 -0.00545175,-0.019145 -0.0079035,-0.0287951l-0.000310512 -0.000540161c-0.00248733,-0.00986846 -0.00552453,-0.0196011 -0.00812183,-0.0294437 -0.0135833,-0.0493116 -0.0274237,-0.0985487 -0.0409051,-0.147888 -0.00014717,0.0687671 -8.24797e-005,0.137544 -3.71967e-005,0.206319 -0.00342048,0.000566037 -0.00688787,0.000300808 -0.0103358,0.000347709 -0.0333768,1.77897e-005 -0.0667633,-2.74932e-005 -0.10015,1.77897e-005zm0.0103536 -0.458929c2.74932e-005,0.149414 1.9407e-005,0.298831 9.7035e-006,0.448245 0.0298916,0.000119676 0.059793,9.7035e-006 0.0896943,6.469e-005 2.74932e-005,-0.0782167 0,-0.156432 9.7035e-006,-0.234647 0.000137466,-0.0144065 -0.000283019,-0.0288226 0.000210242,-0.0432097 0.00217682,0.00654824 0.00192129,0.0136286 0.00395094,0.0202415 0.0238383,0.0858614 0.047628,0.171742 0.0714469,0.257623 0.0335143,-2.74932e-005 0.0670205,-5.49865e-005 0.100525,9.7035e-006 0,-0.149469 9.7035e-006,-0.298949 0,-0.448428 -0.0298641,9.0566e-005 -0.0597299,1.77897e-005 -0.089594,4.5283e-005 0,0.0846355 0,0.169282 0,0.253928 -2.74932e-005,0.00368571 0.000265229,0.00740054 -0.000365498,0.0110685 -0.00130836,-0.00447331 -0.00168356,-0.00912938 -0.00256172,-0.0136836 -0.00112399,-0.00722749 -0.00365013,-0.0141137 -0.00558922,-0.0211391 -0.0221353,-0.0767337 -0.0443984,-0.153422 -0.0664609,-0.230183 -0.033752,4.5283e-005 -0.0675137,-7.27762e-005 -0.101275,6.469e-005zm0.290617 0.458911c-4.5283e-005,-0.156522 -2.74932e-005,-0.313045 -8.08625e-006,-0.469577 0.0498323,9.7035e-006 0.0996727,0 0.149507,0 0.0210291,9.7035e-006 0.0423671,0.00108032 0.0626183,0.00727277 0.0143612,0.00436172 0.0281094,0.0116345 0.0386652,0.0224458 0.0120372,0.0119919 0.0194733,0.0279445 0.0232512,0.0443628 0.00495849,0.0210097 0.00503126,0.0427989 0.0037407,0.0642291 -0.00131644,0.0167935 -0.00405121,0.0338167 -0.0113143,0.049166 -0.00618275,0.0130237 -0.015697,0.0245676 -0.0278345,0.0324517 0.0124852,0.0060566 0.0236911,0.0149563 0.0315024,0.026518 0.011104,0.0160528 0.0160625,0.0354436 0.0182199,0.0546258 0.00276388,0.0270841 0.00138113,0.0547536 -0.00513153,0.0812425 -0.00594501,0.0238641 -0.0183299,0.0468048 -0.0379585,0.062125 -0.0197951,0.0157892 -0.045186,0.0226399 -0.0700754,0.024469 -0.018,0.00112399 -0.0360485,0.000512668 -0.0540679,0.000667924 -0.0403746,0 -0.0807396,0 -0.121114,0zm0.0102728 -0.458921c1.77897e-005,0.149424 1.77897e-005,0.29884 0,0.448264 0.0470248,0.000100269 0.0940576,8.08625e-006 0.141082,4.5283e-005 0.0113321,0.000127763 0.022711,-2.74932e-005 0.0339428,-0.00167385 0.0159073,-0.00230458 0.0317498,-0.00691536 0.0454334,-0.0155596 0.0141509,-0.00873477 0.025538,-0.0216873 0.0329288,-0.0365595 0.00645768,-0.0124674 0.0101531,-0.0261509 0.0124949,-0.0399364 0.00301941,-0.0175245 0.00343019,-0.0353887 0.00267978,-0.0531073 -0.00120647,-0.0186679 -0.00436334,-0.0378404 -0.013766,-0.0542862 -0.00701563,-0.0125224 -0.0181569,-0.0226027 -0.0312372,-0.0284652 -0.00732614,-0.00344798 -0.0152555,-0.00518652 -0.0230685,-0.00710781 0.00457358,-0.00220431 0.00944959,-0.003731 0.0139585,-0.00610027 0.0104555,-0.00535148 0.019876,-0.0130156 0.0264906,-0.0227935 0.00797628,-0.0113337 0.0119903,-0.0248992 0.014214,-0.0384356 0.00271698,-0.0163455 0.00270728,-0.032966 0.00234986,-0.0494765 -0.00114178,-0.020159 -0.0048663,-0.0410701 -0.0163455,-0.058111 -0.00876226,-0.0133633 -0.0224361,-0.022986 -0.0373649,-0.0283277 -0.0174162,-0.00626523 -0.0360663,-0.00818652 -0.0544787,-0.00842425 -0.0497676,4.5283e-005 -0.0995466,-7.27762e-005 -0.149314,5.49865e-005zm0.258619 0.458929c0.0289229,-0.15653 0.0578636,-0.313062 0.0868318,-0.469585 0.0505099,0 0.10101,1.77897e-005 0.15152,-9.7035e-006 0.00104151,-3.55795e-005 0.00276226,-0.000135849 0.00290782,0.00130836 0.019373,0.103635 0.038856,0.20726 0.0582485,0.310895 0.00980539,0.0520916 0.0194911,0.104211 0.0293434,0.156302l0 0.00108032c-0.0434296,8.08625e-006 -0.0868512,-1.9407e-005 -0.130271,1.77897e-005 -0.000182749,-0.0018469 -0.000347709,-0.00367763 -0.000650134,-0.00548733 -0.00269757,-0.0310447 -0.00601779,-0.0620264 -0.00890781,-0.0930517 -0.0176814,8.08625e-005 -0.0353628,-1.9407e-005 -0.0530442,4.5283e-005 -0.00375849,0.0328091 -0.00708841,0.0656571 -0.010711,0.098484 -0.0417558,-8.08625e-006 -0.0835115,-8.08625e-006 -0.125267,0zm0.095421 -0.458938c-0.0274027,0.149471 -0.0553116,0.29885 -0.0827708,0.44831 0.034449,-3.55795e-005 0.0688948,0.000100269 0.103342,-6.30727e-005 0.00321994,-0.0328463 0.00709002,-0.0656296 0.0105736,-0.0984485 0.0239563,8.08625e-006 0.0479029,2.74932e-005 0.0718593,-9.7035e-006 0.00317304,0.0328383 0.00668571,0.0656393 0.00949487,0.0985035 0.0361488,7.27762e-005 0.0722959,-1.77897e-005 0.108445,4.5283e-005 -0.0280803,-0.149469 -0.0559051,-0.298994 -0.0841504,-0.448438 -0.0455984,0.000164959 -0.0911951,-3.55795e-005 -0.136793,0.000101887zm0.0687946 0.0670463c0.00121617,0.0208819 0.00450889,0.0415908 0.00673261,0.0623822 0.00569757,0.0500798 0.0117623,0.100122 0.0174695,0.150202 -0.0170588,-3.71967e-005 -0.0341272,-0.000155256 -0.051186,8.08625e-006 0.00755579,-0.0603962 0.0153024,-0.120776 0.0230232,-0.181155 0.000960646,-0.00885444 0.00270728,-0.0176442 0.00280755,-0.0265811 -8.08625e-006,-0.00169164 0.000549865,-0.00329272 0.0011531,-0.0048566zm-0.000996226 0.0893013c-0.000412399,0.00289973 -0.000347709,0.00586415 -0.00097035,0.00873477 -0.00330242,0.0284296 -0.00741832,0.0567671 -0.0107288,0.0851951 -0.000595148,0.00267978 -0.000549865,0.00544205 -0.00110782,0.00813153 -0.000347709,0.00349488 -0.000850673,0.00697035 -0.00131644,0.0104555 0.00918436,-9.7035e-006 0.0183574,-9.7035e-006 0.0275418,0 -0.000622641,-0.00431806 -0.000897574,-0.00867169 -0.00159299,-0.0129703 -0.0026248,-0.0250544 -0.00583504,-0.0500523 -0.00869757,-0.0750873 -0.00119838,-0.00813153 -0.0014911,-0.0163908 -0.00312776,-0.0244593zm-0.315241 -0.0796787c0.0117995,-9.7035e-006 0.0235989,-6.469e-005 0.0353984,1.77897e-005 0.00834339,0.000119676 0.0169229,0.00401563 0.0213218,0.0113337 0.00694285,0.0109666 0.00666792,0.0244399 0.00736334,0.0369267 -0.000512668,0.0107644 -0.000274932,0.0218426 -0.00392345,0.0321412 -0.00214124,0.00624744 -0.00616496,0.0120291 -0.0119288,0.0154043 -0.00629272,0.00378598 -0.0138113,0.00474663 -0.0210275,0.00480161 -0.00906469,-2.74932e-005 -0.0181294,9.7035e-006 -0.027186,-2.74932e-005 -8.08625e-006,-0.0335321 1.9407e-005,-0.0670657 -1.77897e-005,-0.100598zm0.0103278 0.0103181c4.5283e-005,0.0265617 2.5876e-005,0.0531153 1.77897e-005,0.0796787 0.00654016,3.55795e-005 0.0130884,8.08625e-006 0.0196383,2.74932e-005 0.0052593,-0.000100269 0.0108485,-0.00119838 0.0149191,-0.00475633 0.00405121,-0.00365013 0.00591752,-0.00905498 0.00694124,-0.0142787 0.000394609,-0.00213154 0.000604851,-0.00429056 0.00087008,-0.00643019 0.000813477,-0.0060097 0.000548248,-0.0120922 0.000612938,-0.0181294 8.24797e-005,-0.00702533 -0.000420485,-0.0140765 -0.00198598,-0.0209369 -0.00117898,-0.00472884 -0.00321994,-0.00964043 -0.00734393,-0.0125499 -0.00328463,-0.00224151 -0.00740054,-0.00260701 -0.0112512,-0.0026442 -0.00747331,-8.08625e-006 -0.0149466,-1.77897e-005 -0.0224183,1.9407e-005zm-0.0103358 0.163528c0.0118253,-9.7035e-006 0.0236523,-3.71967e-005 0.0354792,0 0.00861671,0.000137466 0.0173256,0.00395256 0.0225477,0.0109407 0.00650458,0.00853261 0.00843396,0.0194733 0.00954986,0.0298916 0.00127116,0.0146167 0.00100593,0.0293337 8.08625e-006,0.0439601 -0.000959029,0.00944797 -0.0022318,0.0196933 -0.0085876,0.0272118 -0.0060469,0.00690566 -0.0156873,0.00889973 -0.024469,0.00909218 -0.0115067,4.5283e-005 -0.0230135,1.77897e-005 -0.0345299,9.7035e-006 3.71967e-005,-0.0403666 3.71967e-005,-0.0807412 0,-0.121106zm0.0103455 0.0103358c1.9407e-005,0.0334868 3.71967e-005,0.0669655 -8.08625e-006,0.100443 0.00802965,-8.08625e-006 0.0160706,8.24797e-005 0.02411,-4.5283e-005 0.00546145,-0.000265229 0.0116361,-0.000713207 0.0157326,-0.00479353 0.00404312,-0.00396064 0.0052318,-0.00976819 0.00614717,-0.0151294 0.0018841,-0.0125854 0.00150081,-0.0253455 0.0014911,-0.0380232 -0.000375202,-0.00892722 -0.000978436,-0.0179741 -0.00368571,-0.0265439 -0.00121617,-0.00398005 -0.00312938,-0.00783072 -0.00608248,-0.0108113 -0.0038248,-0.00365984 -0.00924743,-0.00508625 -0.0144259,-0.00510404 -0.00776603,0 -0.0155224,-1.9407e-005 -0.0232787,8.08625e-006zm-0.640486 0.111291c0.00434393,-2.74932e-005 0.00869919,-3.71967e-005 0.0130528,9.7035e-006 0.00332021,0.0116167 0.00690566,0.023159 0.00981509,0.0348954 0.000483558,-0.0116264 0.000108356,-0.0232609 0.000200539,-0.0348873 0.0037407,-4.5283e-005 0.0074911,-4.5283e-005 0.0112415,-1.77897e-005 -1.77897e-005,0.0192728 -6.469e-005,0.0385455 1.77897e-005,0.0578264 -0.00428086,2.74932e-005 -0.00856981,4.69002e-005 -0.0128604,-3.55795e-005 -0.00320054,-0.0120291 -0.00647547,-0.0240291 -0.00997843,-0.035966 -0.00012938,0.012 -8.24797e-005,0.0239919 -1.9407e-005,0.0359935 -0.00382318,3.55795e-005 -0.00764636,2.74932e-005 -0.0114695,1.77897e-005 2.74932e-005,-0.0192825 2.74932e-005,-0.0385536 0,-0.0578361zm0.0392684 -9.7035e-006c0.00692345,1.9407e-005 0.0138469,-7.27762e-005 0.0207623,2.74932e-005 0.00432776,0.000127763 0.00921994,0.0018566 0.0110232,0.00613746 0.00193908,0.00472075 0.0018097,0.0101628 0.000365498,0.0150016 -0.000933153,0.00305498 -0.00373261,0.0048663 -0.00644959,0.00619245 0.00440054,0.000868463 0.00826091,0.00444582 0.00850673,0.00908248 0.000265229,0.00504097 0.000732614,0.0105283 -0.00192938,0.0150647 -0.00214933,0.0041628 -0.00693315,0.00630242 -0.0114614,0.00631213 -0.00694285,0.000100269 -0.013876,0 -0.0208172,2.74932e-005 4.5283e-005,-0.0192825 3.55795e-005,-0.0385633 0,-0.0578458zm0.0136189 0.0228776c0.00193908,8.08625e-006 0.00388787,1.77897e-005 0.00583665,7.27762e-005 0.00385876,-0.00293693 0.00277035,-0.00849703 0.00159137,-0.0125321 -0.00236927,-0.0006938 -0.00483073,-0.000913746 -0.00729056,-0.000895956 -0.000182749,0.00444582 -7.27762e-005,0.00889973 -0.000137466,0.0133552zm-2.74932e-005 0.0093752c0.000109973,0.00528679 4.5283e-005,0.0105833 6.469e-005,0.0158798 0.00274286,-0.000384905 0.00707062,0.00112399 0.00841455,-0.00216873 0.00092345,-0.0037504 0.000996226,-0.0078663 -0.000283019,-0.0115439 -0.00153639,-0.00309056 -0.00543396,-0.00201186 -0.00819622,-0.00216711zm0.0323887 -0.0322609c0.00579946,0 0.0115989,-9.7035e-006 0.0174081,8.08625e-006 0.00377628,0.019255 0.00720647,0.038573 0.0108841,0.0578458 -0.00457358,1.77897e-005 -0.00915687,9.7035e-006 -0.0137288,0 -0.000467385,-0.00421617 -0.000960646,-0.00843396 -0.00113531,-0.0126679 -0.00324744,-8.24797e-005 -0.00649326,-7.43935e-005 -0.00973261,-4.69002e-005 -0.000383288,0.00422587 -0.00106092,0.00842425 -0.00124367,0.0126695 -0.0044442,8.24797e-005 -0.00889002,9.0566e-005 -0.0133358,-9.7035e-006 0.0037779,-0.0192356 0.0071159,-0.0385633 0.0108841,-0.0577989zm0.0086814 0.00843234c-0.00131806,0.00923935 -0.00250674,0.0184949 -0.00361294,0.0277617 0.00232237,9.7035e-006 0.00464636,1.77897e-005 0.00697035,4.5283e-005 -0.0011434,-0.00926522 -0.00205876,-0.0185579 -0.00335741,-0.027807z"/>
   <path id="_525946832" class="fil1" d="M0.0230232 0.0229763c0.0071159,-0.00719029 0.0171865,-0.0113143 0.0272846,-0.0113143 0.0219978,2.74932e-005 0.0439973,-9.7035e-006 0.0659951,1.77897e-005 -0.00446361,0.00200377 -0.00943018,0.00414339 -0.0118447,0.00868948 -0.00313746,0.00591752 -0.0030097,0.0128426 -0.00332021,0.0193552 -0.00150081,0.000247439 -0.00350458,-0.000384905 -0.00439083,0.00121617 -0.00153639,0.00205876 -0.00090566,0.00479353 -0.000667924,0.0071628 0.000502965,0.00248733 0.000630727,0.00579784 0.00352075,0.00668571 -0.00082318,0.00550674 -0.000566037,0.0113612 -0.00276226,0.016538 -0.00362102,0.0048469 -0.0106561,0.00369542 -0.0159606,0.00420808 -0.000310512,0.000383288 -0.00092345,0.0011434 -0.00122588,0.00152668 -0.00542426,0.000310512 -0.010931,0.000540161 -0.0162081,0.00192129 -0.00585444,0.00159137 -0.0105105,0.00589002 -0.0139488,0.0107288 -0.0067601,0.00943018 -0.0118819,0.0199504 -0.0157245,0.0308798 -0.00191159,0.00599191 -0.0052221,0.011379 -0.00774663,0.0171234 -0.0049407,0.0101159 -0.0093946,0.0205714 -0.0117995,0.0316124 -0.000433423,0.00473692 0.000278167,0.00813153 0.00381348,0.0138566 0.00533369,0.00235148 0.0112965,0.00160108 0.0169585,0.00171105 -8.24797e-005,0.00170135 0.000202156,0.00347547 -0.000247439,0.00513153 -0.00216711,0.00273477 -0.00531428,0.00472884 -0.00675849,0.00800377 -0.00121779,0.00308248 -0.00176604,0.0063849 -0.00248895,0.00961293 -0.00146361,0.00747331 -0.00298059,0.0152474 -0.00116119,0.0228032 0.00367763,0.0164183 0.0152668,0.0296458 0.0193552,0.0459364 0.00329272,0.000392992 0.00655795,0.00090566 0.00984258,0.00135364 0.00615525,0.0119919 0.0137385,0.0231606 0.0213946,0.0342194 0.00553261,0.00783881 0.0112965,0.0155402 0.0175795,0.0227838 0.00586415,0.00476604 0.0108938,0.010428 0.016373,0.0156226 0.0101434,0.00983288 0.0212296,0.0187067 0.0332393,0.0261525 0.00235148,0.00380377 0.00360485,0.00818652 0.0052787,0.0123202 -0.00197628,0.00224959 -0.00243234,0.00546145 -0.00101563,0.00813153 0.00394286,0.00819622 0.00963234,0.0157148 0.0114712,0.0247876 5.49865e-005,0.00185822 -0.000915363,0.00357736 -0.000960646,0.00545175 0.000658221,0.00201348 0.0022593,0.00350296 0.00332021,0.00531428 0.000447978,0.0113968 -0.00277197,0.0226205 -0.00247924,0.0340091 9.7035e-006,0.00518652 0.00323773,0.00968571 0.00767385,0.0121294 -0.0386539,-4.69002e-005 -0.0773094,0 -0.115965,-2.74932e-005 -0.0145342,-0.000202156 -0.0284652,-0.0093946 -0.03431,-0.0227127 -0.00304528,-0.0063849 -0.00381348,-0.0135558 -0.00350296,-0.0205439 1.77897e-005,-0.12866 -9.7035e-006,-0.257313 9.7035e-006,-0.385963 0.000228032,-0.0098345 0.00438113,-0.0195299 0.011379,-0.0264356zm0.00932021 0.370615c2.74932e-005,0.0192825 2.74932e-005,0.0385536 0,0.0578361 0.00382318,9.7035e-006 0.00764636,1.77897e-005 0.0114695,-1.77897e-005 -6.30727e-005,-0.0120016 -0.000109973,-0.0239935 1.9407e-005,-0.0359935 0.00350296,0.0119369 0.00677789,0.0239369 0.00997843,0.035966 0.00429056,8.24797e-005 0.00857951,6.30727e-005 0.0128604,3.55795e-005 -8.24797e-005,-0.0192809 -3.55795e-005,-0.0385536 -1.77897e-005,-0.0578264 -0.0037504,-2.74932e-005 -0.0075008,-2.74932e-005 -0.0112415,1.77897e-005 -9.21832e-005,0.0116264 0.000283019,0.0232609 -0.000200539,0.0348873 -0.00290943,-0.0117364 -0.00649488,-0.0232787 -0.00981509,-0.0348954 -0.00435364,-4.69002e-005 -0.00870889,-3.71967e-005 -0.0130528,-9.7035e-006zm0.0392684 -9.7035e-006c3.55795e-005,0.0192825 4.5283e-005,0.0385633 0,0.0578458 0.00694124,-2.74932e-005 0.0138744,7.27762e-005 0.0208172,-2.74932e-005 0.0045283,-9.7035e-006 0.00931212,-0.00214933 0.0114614,-0.00631213 0.00266199,-0.00453639 0.00219461,-0.0100237 0.00192938,-0.0150647 -0.000245822,-0.00463666 -0.0041062,-0.00821401 -0.00850673,-0.00908248 0.00271698,-0.00132614 0.00551644,-0.00313746 0.00644959,-0.00619245 0.0014442,-0.00483881 0.00157358,-0.0102809 -0.000365498,-0.0150016 -0.00180323,-0.00428086 -0.00669541,-0.00600808 -0.0110232,-0.00613746 -0.00691536,-0.000100269 -0.0138388,-8.08625e-006 -0.0207623,-2.74932e-005zm0.04598 -8.08625e-006c-0.00376819,0.0192356 -0.0071062,0.0385633 -0.0108841,0.0577989 0.00444582,0.000100269 0.00889164,9.21832e-005 0.0133358,9.7035e-006 0.000182749,-0.00424528 0.000860377,-0.00844366 0.00124367,-0.0126695 0.00323935,-2.74932e-005 0.00648517,-3.55795e-005 0.00973261,4.69002e-005 0.000174663,0.00423396 0.000667924,0.00845175 0.00113531,0.0126679 0.00457197,9.7035e-006 0.00915525,1.77897e-005 0.0137288,0 -0.00367763,-0.0192728 -0.00710781,-0.0385908 -0.0108841,-0.0578458 -0.00580916,-1.77897e-005 -0.0116086,-8.08625e-006 -0.0174081,-8.08625e-006zm0.137414 -0.372107c0.0337617,-0.000137466 0.0675234,-1.77897e-005 0.101275,-6.469e-005 0.0252873,0.08798 0.0490156,0.177482 0.0746118,0.265006 0.000630727,-0.00366792 0.000338005,-0.00738275 0.000365498,-0.0110685 0,-0.0846452 0,-0.16929 0,-0.253928 0.0298641,-2.74932e-005 0.0597299,4.5283e-005 0.089594,-4.5283e-005 9.7035e-006,0.149479 0,0.298958 0,0.448428 -0.0335046,-6.469e-005 -0.0670107,-3.71967e-005 -0.100525,-9.7035e-006 -0.0243315,-0.0877326 -0.0474711,-0.193848 -0.0753978,-0.277865 -0.000493261,0.0143871 -7.27762e-005,0.0288032 -0.000210242,0.0432097 -9.7035e-006,0.0782151 1.77897e-005,0.15643 -9.7035e-006,0.234647 -0.0299013,-5.49865e-005 -0.0598027,5.49865e-005 -0.0896943,-6.469e-005 9.7035e-006,-0.149414 1.77897e-005,-0.298831 -9.7035e-006,-0.448245zm0.300889 -9.7035e-006c0.0497676,-0.000127763 0.099545,-8.08625e-006 0.149314,-5.49865e-005 0.0184124,0.000237736 0.0370625,0.00215903 0.0544787,0.00842425 0.0149288,0.00534178 0.0286027,0.0149644 0.0373649,0.0283277 0.0114792,0.017041 0.0152021,0.037952 0.0163455,0.058111 0.000357412,0.0165105 0.000367116,0.033131 -0.00234986,0.0494765 -0.00222372,0.0135364 -0.00623935,0.0271019 -0.014214,0.0384356 -0.00661455,0.00977789 -0.016035,0.017442 -0.0264906,0.0227935 -0.00450889,0.00236927 -0.0093849,0.00389595 -0.0139585,0.00610027 0.00781293,0.00192129 0.0157423,0.00365984 0.0230685,0.00710781 0.0130803,0.00586253 0.0242216,0.0159428 0.0312372,0.0284652 0.00940431,0.0164458 0.0125596,0.0356183 0.013766,0.0542862 0.000750404,0.0177186 0.000339622,0.0355827 -0.00267978,0.0531073 -0.00234178,0.0137854 -0.00603719,0.027469 -0.0124949,0.0399364 -0.00738921,0.0148722 -0.0187779,0.0278248 -0.0329288,0.0365595 -0.0136836,0.0086442 -0.0295261,0.013255 -0.0454334,0.0155596 -0.0112318,0.00164636 -0.0226108,0.00180162 -0.0339428,0.00167385 -0.0470248,-3.71967e-005 -0.0940593,5.49865e-005 -0.141082,-4.5283e-005 1.77897e-005,-0.149424 1.77897e-005,-0.29884 0,-0.448264zm0.106598 0.0766609c3.71967e-005,0.0335321 9.7035e-006,0.0670657 1.77897e-005,0.100598 0.0090566,3.71967e-005 0.0181213,0 0.027186,2.74932e-005 0.00721617,-5.49865e-005 0.0147348,-0.00101563 0.0210275,-0.00480161 0.00576388,-0.0033752 0.0097876,-0.00915687 0.0119288,-0.0154043 0.00364852,-0.0102986 0.00341078,-0.0213768 0.00392345,-0.0321412 -0.000695417,-0.0124868 -0.000420485,-0.0259601 -0.00736334,-0.0369267 -0.00439892,-0.00731806 -0.01298,-0.011214 -0.0213218,-0.0113337 -0.0117995,-8.24797e-005 -0.0235989,-2.74932e-005 -0.0353984,-1.77897e-005zm-8.08625e-006 0.173846c3.55795e-005,0.0403649 3.55795e-005,0.0807396 -1.61725e-006,0.121106 0.0115164,8.08625e-006 0.0230232,3.55795e-005 0.0345299,-9.7035e-006 0.00878167,-0.000192453 0.0184221,-0.00218652 0.024469,-0.00909218 0.00635741,-0.00751859 0.00762857,-0.0177639 0.0085876,-0.0272118 0.000997843,-0.0146264 0.00126307,-0.0293434 -8.08625e-006,-0.0439601 -0.0011159,-0.0104183 -0.0030469,-0.021359 -0.00954986,-0.0298916 -0.0052221,-0.00698975 -0.013931,-0.0108032 -0.0225477,-0.0109407 -0.0118253,-3.71967e-005 -0.0236539,-9.7035e-006 -0.0354808,0zm0.247452 -0.250517c0.0455984,-0.000137466 0.0911951,6.469e-005 0.136793,-0.000100269 0.0282453,0.149444 0.0560701,0.298968 0.0841504,0.448438 -0.0361472,-6.30727e-005 -0.0722959,2.74932e-005 -0.108445,-4.5283e-005 -0.00280916,-0.0328658 -0.00632183,-0.0656652 -0.00949487,-0.0985035 -0.0239563,3.71967e-005 -0.0479029,1.77897e-005 -0.0718593,9.7035e-006 -0.00348356,0.0328189 -0.00735363,0.0656021 -0.0105736,0.0984485 -0.0344474,0.000163342 -0.0688948,2.74932e-005 -0.103342,6.30727e-005 0.0274593,-0.14946 0.0553665,-0.298839 0.0827708,-0.448308zm0.0687946 0.0670463l-0.0269838 0.212592c0.0170604,-0.000163342 0.0341272,-4.5283e-005 0.051186,-8.08625e-006l-0.0242021 -0.212584zm-0.852457 0.31351c0.00129865,0.00924743 0.00221402,0.0185418 0.00335741,0.027807 -0.00232399,-2.74932e-005 -0.00464798,-3.55795e-005 -0.00697035,-4.5283e-005 0.0011062,-0.00926684 0.00229488,-0.0185224 0.00361294,-0.0277617zm-0.0410426 0.0144534c6.469e-005,-0.00445552 -4.5283e-005,-0.00890943 0.000137466,-0.0133552 0.00245984,-1.77897e-005 0.00492129,0.000202156 0.00729056,0.000895956 0.00117898,0.00403504 0.00226738,0.00959514 -0.00159137,0.0125321 -0.00194879,-5.49865e-005 -0.00389757,-6.469e-005 -0.00583665,-7.27762e-005zm-2.74932e-005 0.0093752c0.00276226,0.000155256 0.00665983,-0.00092345 0.00819622,0.00216711 0.00127924,0.00367763 0.00120647,0.00779353 0.000283019,0.0115439 -0.00134393,0.00329272 -0.0056717,0.00178383 -0.00841455,0.00216873 -1.9407e-005,-0.00529649 4.5283e-005,-0.010593 -6.469e-005,-0.0158798z"/>
   <path id="_525946160" class="fil2" d="M0.127929 0.0116701c0.0125402,0 0.0250803,9.7035e-006 0.0376205,-8.08625e-006 0.0120922,8.08625e-006 0.0239919,0.00609218 0.0310544,0.0159057 0.0052221,0.00703342 0.00766415,0.0158701 0.00750889,0.024579 -9.0566e-005,0.0621703 0.000100269,0.124352 -0.000100269,0.186524 -0.00403827,-0.0103261 -0.0102372,-0.0180744 -0.020324,-0.0200507 -0.00291914,-0.0071531 -0.00220431,-0.0151294 -0.00462048,-0.0224183 -0.00196496,-0.00695256 -0.00573477,-0.0131806 -0.00854231,-0.0197854 -0.00253423,-0.00862479 -0.00302749,-0.0176992 -0.00535957,-0.0263887 0.000100269,-0.0143612 -0.000247439,-0.0299191 -0.00855363,-0.0422862 -0.00474663,-0.00727277 -0.0127779,-0.011096 -0.019483,-0.0162178 -0.00236765,-0.00536927 -0.00907277,-0.00623773 -0.0134183,-0.00945768 -0.00106092,-0.00113369 -0.000538544,-0.00293693 -0.000255525,-0.00427116 0.00102372,-0.00141833 0.00270728,-0.00215903 0.00388787,-0.0034221 0.00270728,-0.00295472 0.00439892,-0.00664851 0.00630242,-0.0101337 0.001069,-0.00225121 0.00404151,-0.00270728 0.00498436,-0.00510404 0.00200377,-0.00347709 0.0060194,-0.00807655 0.00247924,-0.0118819 0.00310027,-0.00666954 0.00617304,-0.0144437 0.00334771,-0.0217423 -0.000777897,-0.00252453 -0.00282695,-0.00427277 -0.00510404,-0.00542426 -0.00259892,-0.00419029 -0.00695256,-0.00668733 -0.0114243,-0.00841617zm-0.00182102 0.137259c0.00418059,-0.00306469 0.00854393,-0.00594501 0.0133003,-0.00804905 0.00213154,0.0103261 0.00366792,0.0207736 0.00587223,0.03109 0.00108841,0.00493099 0.0018841,0.00998813 0.00389595,0.0146539 0.00480161,0.0103455 0.010483,0.020324 0.0144614,0.031035 -0.0109763,0.00254393 -0.020324,0.0109213 -0.0241666,0.0214965 -0.00327493,0.00848733 -0.00285283,0.0182377 0.00098814,0.0264792 0.00624744,0.014159 0.0227951,0.0228307 0.0379779,0.0194927 0.011434,-0.00215903 0.0210291,-0.0105461 0.0255574,-0.0211569 0.000237736,0.0580738 1.77897e-005,0.116157 0.000108356,0.174231 0.00014717,0.00894501 -0.00242264,0.0179919 -0.0078663,0.025145 -0.00601779,0.00824151 -0.0155676,0.0135008 -0.0255833,0.0150097 0.00409811,-0.00290943 0.00801347,-0.00669541 0.0090097,-0.0118269 0.00192129,-0.00980539 -0.00224959,-0.0192453 -0.00517682,-0.0283827 -0.00080539,-0.00161887 3.55795e-005,-0.00321994 0.000603234,-0.00472884 -0.00117898,-0.00365984 -0.00321024,-0.00704312 -0.00357574,-0.010931 -0.000622641,-0.00571698 -0.00278976,-0.0114162 -0.00153639,-0.0171962 0.000630727,-0.00560701 0.00315525,-0.0108857 0.00326523,-0.0165477 -0.000942857,-0.00648517 -0.00554393,-0.0115148 -0.00900161,-0.0168113 -0.00101402,-0.00232399 -0.00122588,-0.00487601 -0.00170135,-0.00732614 -0.00209434,-0.0121213 -0.003731,-0.0243412 -0.00670512,-0.0362862 -0.0025876,-0.0101806 -0.00997843,-0.0181019 -0.0136011,-0.0278442 -0.00290782,-0.00614555 -0.00330081,-0.0130059 -0.00396064,-0.0196561 -0.00138113,-0.0152571 -0.00414339,-0.0304415 -0.00872506,-0.045076 0.00082318,-0.000850673 0.00164636,-0.00169164 0.00246954,-0.00253423 -0.00365013,-0.0133633 -0.00737304,-0.0267186 -0.0114243,-0.0399719 -0.00120809,-0.00413369 -0.00374232,-0.0081946 -0.00799568,-0.00968571 0.000109973,-0.00221402 0.000202156,-0.00446361 0.00108841,-0.00652237 0.00287224,-0.00731806 0.00560701,-0.0146814 0.00855363,-0.0219703 0.000950943,-0.00221402 0.00171914,-0.00474825 0.00386846,-0.00612938z"/>
  </g>
 </g>
</svg>
