<?xml version="1.0" standalone="no"?>
<!DOCTYPE svg PUBLIC "-//W3C//DTD SVG 20010904//EN"
 "http://www.w3.org/TR/2001/REC-SVG-20010904/DTD/svg10.dtd">
<svg version="1.0" xmlns="http://www.w3.org/2000/svg"
 width="360.000000pt" height="512.000000pt" viewBox="0 0 360.000000 512.000000"
 preserveAspectRatio="xMidYMid meet">

<g transform="translate(0.000000,512.000000) scale(0.100000,-0.100000)"
fill="#000000" stroke="none">
<path d="M0 3355 l0 -1765 337 340 c215 218 343 340 356 340 16 0 17 -2 7 -15
-7 -9 -11 -17 -9 -18 4 -3 162 -50 214 -64 19 -5 19 -5 2 14 -10 11 -50 30
-90 42 -40 12 -79 26 -87 31 -32 20 19 21 85 1 65 -19 66 -19 49 0 -9 10 -24
19 -33 19 -11 0 -12 3 -4 8 19 12 0 32 -58 61 -57 29 -59 32 -44 103 5 25 4
38 -3 38 -6 0 -14 -17 -18 -37 -11 -64 -26 -74 -19 -13 l6 55 -23 -21 c-13
-11 -36 -32 -52 -46 -17 -16 -32 -41 -36 -65 l-8 -38 -1 46 c-1 44 1 47 63
100 59 49 80 79 57 79 -5 0 -32 -16 -61 -35 -57 -38 -60 -40 -60 -25 0 6 8 11
18 12 9 0 -55 4 -144 8 -134 6 -163 10 -182 25 -11 10 -19 22 -16 27 3 5 0 7
-8 6 -7 -2 -14 7 -16 20 -2 12 -7 22 -11 22 -7 0 -31 44 -31 57 0 3 18 -11 40
-30 50 -46 113 -86 142 -90 26 -4 80 21 73 34 -4 5 3 9 14 9 30 0 26 -15 -10
-38 -21 -13 -27 -22 -19 -27 6 -4 17 -2 23 4 7 7 14 7 23 0 7 -6 21 -9 31 -6
16 4 15 6 -4 12 -29 9 -29 21 -2 28 12 3 18 10 14 16 -3 6 -10 9 -15 6 -5 -3
-13 2 -18 11 -7 13 -13 14 -30 5 -27 -15 -32 -14 -32 5 0 8 5 12 10 9 6 -3 10
-2 10 4 0 5 -3 11 -7 14 -5 2 -2 2 5 0 8 -1 22 -3 31 -3 10 0 29 -10 42 -23
46 -45 96 -77 119 -77 22 0 22 1 6 19 -17 18 -17 20 1 30 16 9 12 16 -39 67
-63 62 -76 92 -33 72 14 -6 25 -16 25 -21 0 -6 21 -7 53 -3 28 4 57 7 64 8 7
1 10 5 7 9 -2 4 1 20 7 36 6 15 12 39 14 52 3 30 -27 104 -60 147 -13 17 -27
43 -31 58 -3 14 -10 24 -14 21 -5 -3 -16 5 -24 17 -11 16 -16 18 -16 7 0 -8
17 -39 39 -67 65 -87 101 -222 60 -222 -6 0 -9 6 -6 14 7 18 -11 36 -32 30 -9
-3 -6 1 7 7 15 8 21 18 16 28 -3 9 -9 24 -12 34 -4 15 -11 18 -41 13 l-36 -6
25 15 25 16 -28 -4 c-31 -5 -31 -4 -41 37 -7 28 -6 29 26 22 30 -6 31 -5 13 8
-11 8 -27 12 -37 11 -11 -3 -18 2 -18 12 0 9 -8 21 -17 28 -15 11 -15 15 -4
29 9 11 10 16 2 16 -6 0 -11 -4 -11 -10 0 -13 -11 -13 -30 0 -13 9 -13 12 3
21 17 10 16 12 -6 30 -14 10 -28 31 -31 45 -7 26 -33 59 -47 59 -17 0 -21 15
-5 21 9 3 13 10 10 16 -3 5 -12 4 -20 -3 -19 -15 -30 -4 -15 15 10 11 9 16 -3
23 -9 5 -19 29 -22 53 l-6 45 69 19 c99 27 147 76 163 163 6 36 8 84 5 107 -5
32 -3 45 9 55 9 8 16 21 16 30 0 10 -8 3 -21 -16 -12 -18 -24 -33 -28 -33 -4
0 -15 16 -25 36 -9 20 -19 34 -23 31 -3 -3 9 -30 26 -60 35 -62 38 -99 16
-175 -13 -41 -25 -59 -57 -82 -47 -34 -58 -37 -58 -13 0 13 -3 14 -12 5 -17
-17 -33 -15 -19 2 10 12 8 13 -10 9 -31 -9 -16 12 20 27 16 6 32 19 36 27 8
22 -33 63 -61 63 -28 0 -40 -17 -17 -23 11 -3 8 -5 -9 -6 -29 -1 -58 -41 -58
-80 0 -42 -18 -28 -18 15 -2 56 26 112 65 136 25 16 26 17 7 18 -13 0 -35 -15
-52 -35 -48 -54 -49 -22 -2 47 45 66 50 103 6 45 -16 -20 -32 -34 -38 -31 -5
3 -2 12 8 18 16 12 16 13 0 19 -10 4 -15 3 -11 -3 3 -6 1 -10 -4 -10 -16 0
-13 21 7 43 16 19 16 20 -5 15 -36 -9 -28 6 39 79 l63 67 -49 -37 c-27 -21
-51 -35 -54 -32 -3 2 8 26 24 52 34 56 70 67 113 36 35 -26 59 -34 66 -23 4 6
0 10 -8 10 -8 0 -25 9 -38 19 l-24 19 48 7 c30 5 58 3 73 -4 32 -14 39 -14 27
2 -13 16 -24 47 -17 47 3 0 19 -28 35 -62 l31 -63 -7 53 c-4 36 -3 52 5 47 5
-3 1 10 -11 29 -11 20 -26 60 -33 90 l-13 55 29 7 c17 3 35 1 41 -5 18 -18 28
-13 16 8 -10 14 -21 17 -55 13 -34 -4 -52 1 -89 22 -25 15 -51 36 -58 47 -6
10 -19 19 -27 19 -17 -1 78 -90 96 -90 17 0 44 -34 44 -57 0 -11 -20 -38 -44
-61 -24 -22 -50 -49 -58 -60 -13 -19 -22 -13 -186 121 l-172 141 0 260 c0 267
3 308 23 301 7 -3 44 -6 82 -8 39 -2 88 -12 109 -21 22 -9 51 -19 65 -23 13
-3 40 -17 59 -30 19 -12 40 -23 47 -23 8 0 11 -8 8 -20 -4 -15 0 -20 15 -20
12 0 25 -6 29 -13 4 -7 36 -37 70 -66 35 -30 63 -60 63 -67 0 -8 4 -14 9 -14
5 0 17 -12 27 -27 11 -18 12 -24 3 -17 -8 6 -25 15 -39 18 l-25 7 22 -18 c11
-10 37 -51 57 -92 20 -41 56 -96 80 -121 57 -60 73 -108 51 -149 -14 -28 -14
-30 1 -24 14 5 16 2 11 -18 -3 -13 -2 -31 3 -39 7 -11 10 -5 10 21 0 80 37
124 70 84 7 -8 22 -15 34 -15 19 0 17 3 -11 26 -35 27 -44 48 -16 37 10 -4 14
-2 10 4 -4 6 -25 14 -46 18 -22 4 -45 13 -51 20 -9 11 -4 11 27 4 50 -11 73
-11 73 1 0 6 -15 10 -32 10 -29 0 -79 19 -52 20 6 0 27 11 47 24 20 14 34 19
31 12 -3 -7 2 -19 11 -26 13 -11 15 -8 16 16 1 29 1 29 13 -6 11 -30 11 -38
-1 -52 -13 -15 -13 -16 6 -11 17 4 21 1 21 -21 0 -21 -5 -26 -25 -26 -14 0
-25 -4 -25 -10 0 -5 10 -10 23 -10 29 -1 64 -26 45 -33 -7 -3 -3 -6 9 -6 20
-1 21 2 13 25 -16 40 -12 46 20 29 38 -20 53 -19 81 5 27 22 13 26 -25 9 -22
-10 -31 -8 -61 12 -35 24 -53 64 -71 163 l-7 39 22 -22 c24 -24 62 -41 89 -41
11 1 6 7 -13 17 -16 8 -42 27 -56 41 -23 23 -25 28 -12 41 10 10 31 14 64 12
30 -1 49 2 49 8 0 6 -6 11 -13 11 -8 0 -28 7 -44 15 l-31 15 51 49 c30 28 54
45 58 39 4 -7 9 -7 13 1 11 17 29 13 22 -4 -3 -9 1 -18 9 -22 9 -3 14 -13 13
-22 -2 -10 3 -15 15 -15 9 1 17 -2 17 -7 0 -5 -3 -9 -8 -9 -4 0 -6 -20 -4 -45
3 -38 6 -44 18 -34 10 8 14 8 15 0 2 -11 5 -25 9 -38 1 -5 2 -12 1 -17 -1 -4
3 -14 10 -22 7 -8 9 -30 5 -56 -3 -28 2 -71 15 -123 11 -44 23 -90 26 -102 3
-14 -3 -34 -18 -55 -19 -27 -34 -78 -22 -78 1 0 13 16 27 36 l24 36 13 -23 c7
-13 11 -48 10 -78 -2 -36 1 -51 8 -46 7 4 11 -4 11 -19 0 -14 14 -48 30 -76
17 -28 30 -57 30 -65 0 -8 4 -16 9 -19 5 -4 7 3 4 14 -5 21 -5 21 33 -1 56
-32 74 -49 74 -71 0 -10 7 -32 15 -48 20 -39 12 -38 -38 5 -58 50 -67 43 -15
-12 39 -43 77 -108 67 -117 -2 -2 -43 -6 -90 -7 l-87 -4 -12 33 c-6 19 -14 32
-16 29 -2 -2 3 -20 11 -40 l15 -37 73 -1 c39 0 66 -3 60 -6 -18 -7 -16 -23 3
-23 11 0 14 -5 10 -16 -6 -14 -4 -15 10 -4 13 12 17 11 24 -1 7 -9 5 -15 -5
-17 -24 -5 -17 -24 8 -20 19 3 22 -1 19 -24 -2 -21 1 -26 13 -22 10 4 15 0 15
-11 0 -9 -4 -14 -9 -10 -5 3 -12 1 -15 -4 -3 -5 1 -11 9 -15 8 -3 15 -1 15 4
0 6 9 10 20 10 11 0 20 -4 20 -10 0 -5 -7 -10 -15 -10 -18 0 -20 -30 -2 -30 6
0 23 -9 37 -20 23 -18 23 -20 5 -20 -15 0 -17 -2 -6 -9 24 -15 -24 -23 -68
-11 -61 16 -93 36 -125 77 -16 21 -26 30 -23 21 5 -15 0 -18 -28 -18 -34 0
-43 -8 -28 -24 4 -4 8 -13 8 -19 0 -7 7 -45 15 -85 13 -72 15 -74 70 -117 56
-43 58 -46 99 -162 60 -173 85 -302 85 -453 0 -137 -11 -180 -69 -272 -32 -50
-39 -54 -80 -38 -28 11 -30 35 -2 35 49 1 101 103 112 221 11 111 -19 337 -62
477 -35 112 -40 121 -92 173 -64 62 -80 56 -26 -10 37 -46 80 -147 65 -156 -5
-3 0 -30 10 -60 11 -30 19 -66 19 -80 -1 -20 -2 -21 -6 -5 -14 65 -37 125 -45
117 -12 -12 22 -133 39 -139 8 -3 13 -23 13 -53 0 -46 -2 -49 -27 -52 l-28 -3
23 -20 c27 -23 28 -35 5 -35 -16 -1 -16 -2 1 -15 19 -14 19 -20 8 -112 -12
-104 -37 -193 -54 -193 -6 0 -5 6 2 15 9 10 9 19 2 28 -6 6 -13 29 -17 50 -4
20 -11 37 -15 37 -5 0 -9 8 -9 18 0 27 -22 112 -29 112 -4 0 -8 10 -9 23 0 12
-4 36 -7 52 -4 17 -7 38 -7 47 0 18 -25 32 -40 22 -5 -3 -18 -23 -30 -45 -16
-31 -24 -39 -39 -34 -15 5 -21 0 -26 -22 -3 -15 -7 -33 -9 -40 -2 -6 5 -28 16
-49 11 -23 15 -40 9 -44 -7 -4 -6 -26 1 -63 11 -53 21 -68 32 -49 2 4 3 2 1
-4 -1 -7 17 -26 42 -43 24 -18 44 -37 44 -42 0 -8 -28 -6 -67 6 -7 2 -15 0
-17 -4 -7 -10 32 -25 259 -96 99 -31 198 -62 220 -70 22 -7 90 -29 150 -48
427 -137 621 -200 624 -203 15 -14 -15 -14 -59 1 -28 9 -54 15 -56 12 -3 -3
31 -17 75 -32 45 -15 83 -31 87 -36 11 -19 45 -173 40 -186 -8 -19 -63 -16
-70 3 -5 13 -1 15 19 10 30 -8 31 -3 9 92 l-16 71 -61 19 c-34 11 -75 25 -92
30 -16 6 -79 24 -140 41 -112 30 -154 31 -267 5 -21 -5 -28 -3 -28 9 0 10 16
19 50 26 85 18 153 13 266 -20 58 -17 107 -29 109 -27 3 3 -50 21 -118 42 -67
21 -133 42 -147 46 -14 5 -113 36 -220 70 -107 33 -213 67 -235 75 -67 24 -62
30 -105 -134 -6 -23 -13 -48 -16 -55 -3 -7 13 -20 36 -30 84 -37 141 -116 121
-168 -22 -57 -108 -95 -188 -84 -40 5 -43 4 -49 -20 -4 -17 -2 -29 7 -35 11
-7 10 -9 -3 -9 -10 0 -18 -7 -18 -16 0 -14 1 -14 16 0 17 18 54 20 100 7 28
-8 31 -7 27 9 -4 16 -1 17 35 7 36 -10 39 -13 31 -34 -6 -18 -5 -23 6 -23 8 0
15 -6 15 -13 0 -14 27 -40 53 -50 9 -3 17 -11 17 -18 0 -6 -6 -9 -14 -6 -21 8
-26 -16 -7 -30 14 -10 11 -12 -14 -10 -20 1 -29 -2 -27 -11 1 -7 -3 -23 -10
-35 -7 -12 -11 -29 -10 -38 2 -8 -9 -21 -23 -27 -14 -6 -25 -16 -25 -21 0 -11
-91 -2 -104 10 -6 5 -18 9 -28 9 -10 0 -18 7 -18 15 0 8 -7 15 -15 15 -8 0
-15 7 -15 15 0 7 -7 18 -17 23 -11 6 -14 16 -9 28 5 13 4 16 -3 9 -12 -12 -47
-143 -40 -149 4 -4 527 -164 687 -211 51 -15 96 -24 99 -21 4 3 11 2 17 -3 14
-12 477 -160 549 -175 21 -5 27 -3 27 11 -1 63 -30 81 -225 138 -66 20 -158
47 -205 61 -47 14 -101 30 -120 36 -36 10 -140 103 -140 124 0 6 -7 17 -15 24
-8 7 -15 17 -15 23 0 6 33 -22 73 -60 62 -60 83 -74 133 -88 32 -9 139 -41
238 -71 98 -30 195 -57 216 -60 l38 -6 -14 68 c-41 202 -45 214 -65 214 -23 0
-25 18 -4 26 20 8 19 23 -2 46 -9 11 -11 18 -5 18 7 0 12 7 12 15 0 8 6 15 14
15 23 0 102 -347 121 -534 5 -53 4 -58 -12 -54 -109 31 -325 95 -713 211 -256
77 -485 145 -510 152 -25 7 -144 43 -265 80 -121 36 -278 83 -350 105 -150 44
-964 288 -982 295 -10 3 -13 -146 -13 -725 l0 -730 1800 0 1800 0 0 2560 0
2560 -1800 0 -1800 0 0 -1765z m3525 1130 l0 -299 -95 -66 c-52 -36 -187 -128
-300 -204 -113 -77 -226 -154 -252 -173 -27 -19 -48 -31 -48 -26 0 5 52 46
115 93 l115 83 2 126 c2 175 5 250 12 266 3 10 0 12 -11 8 -12 -5 -14 -1 -8
17 5 14 3 25 -6 30 -10 7 -10 12 -1 23 10 12 10 18 -3 30 -10 11 -12 18 -4 22
6 4 8 16 6 27 -3 11 2 27 14 39 10 10 19 27 19 37 0 10 8 25 18 33 27 24 63
69 55 69 -4 0 6 12 23 28 34 32 100 82 109 82 3 0 24 12 46 26 26 16 49 24 63
20 11 -3 28 -1 36 5 8 5 33 8 55 7 l40 -3 0 -300z m-2515 -29 c0 -11 -19 -15
-25 -6 -3 5 1 10 9 10 9 0 16 -2 16 -4z m1359 -10 c9 -10 8 -15 -4 -20 -17 -6
-21 -26 -5 -26 10 0 22 8 55 38 16 14 45 16 45 2 0 -5 -9 -10 -20 -10 -21 0
-27 -15 -9 -25 5 -4 18 0 27 8 23 20 72 33 72 18 0 -6 -7 -11 -15 -11 -8 0
-15 -4 -15 -10 0 -5 -10 -10 -22 -10 -22 -1 -22 -1 -4 -12 15 -8 21 -8 24 0 5
17 33 15 46 -3 10 -13 17 -12 59 10 26 14 47 21 47 15 0 -5 -7 -10 -15 -10 -8
0 -15 -4 -15 -10 0 -5 -7 -10 -15 -10 -8 0 -15 -6 -15 -14 0 -8 -9 -18 -20
-21 -11 -4 -18 -11 -15 -16 3 -5 17 -1 31 8 23 15 27 15 41 0 12 -12 21 -13
39 -5 13 6 24 15 24 20 0 4 9 -1 20 -12 12 -12 25 -18 30 -15 16 10 11 26 -6
23 -10 -2 -19 2 -21 8 -7 20 26 11 49 -13 18 -19 19 -23 5 -23 -19 0 -23 -15
-6 -26 6 -3 16 0 21 7 8 11 9 10 4 -3 -3 -11 2 -21 12 -27 9 -5 14 -12 11 -15
-3 -4 -17 3 -32 14 -47 37 -52 17 -7 -33 37 -42 38 -51 5 -44 -24 4 -24 3 -10
-13 8 -9 12 -20 8 -25 -5 -4 -3 -5 4 -2 16 10 55 -57 60 -102 4 -33 3 -35 -10
-16 -8 10 -12 25 -9 33 4 12 1 12 -16 3 -29 -16 -95 -14 -118 4 -26 20 -27 19
-52 -15 -18 -23 -19 -28 -5 -23 11 4 14 3 9 -5 -4 -7 -1 -12 8 -12 29 0 25
-18 -8 -38 -36 -21 -45 -18 -59 21 -4 9 -11 17 -16 17 -6 0 -8 -7 -5 -15 5
-11 -1 -15 -19 -15 -30 0 -84 40 -67 50 8 5 7 11 -4 23 -9 8 -16 32 -16 51 0
20 -4 36 -10 36 -5 0 -10 -6 -10 -14 0 -15 -25 -13 -65 4 -11 5 -31 11 -45 12
l-25 3 30 17 c42 24 13 22 -34 -1 -37 -19 -151 -127 -151 -143 0 -15 16 -8 50
22 33 28 90 41 90 21 0 -5 -21 -19 -46 -31 -28 -14 -41 -25 -34 -30 16 -10
-12 -20 -38 -13 -17 4 -20 1 -15 -15 4 -17 16 -22 59 -28 30 -3 54 -10 54 -15
0 -5 9 -9 19 -9 11 0 26 -3 35 -6 30 -11 16 -24 -26 -24 -32 0 -39 -3 -28 -10
8 -5 38 -10 65 -10 l50 -1 -30 -14 -30 -15 33 3 c24 3 32 0 28 -10 -7 -16 -3
-16 39 1 36 16 48 29 18 20 -10 -2 -8 1 5 7 18 10 28 9 48 -2 23 -12 27 -11
40 6 16 22 18 35 4 35 -5 0 -10 -6 -10 -12 0 -10 -2 -10 -8 0 -5 7 -7 26 -4
42 3 25 9 30 31 30 44 0 57 -14 43 -45 -14 -31 -15 -38 -3 -31 13 8 21 -76 9
-91 -6 -7 -6 -13 -1 -13 11 0 43 -53 43 -71 0 -10 -3 -10 -12 -1 -15 15 -45
15 -54 0 -5 -8 -2 -9 11 -4 11 4 25 0 36 -10 10 -9 23 -13 31 -9 10 6 10 5 2
-4 -9 -10 -17 -10 -33 -2 -16 9 -27 8 -50 -4 -35 -17 -71 -20 -71 -4 0 5 4 8
9 4 6 -3 3 15 -6 41 l-16 46 -48 -4 c-33 -4 -46 -2 -42 6 3 6 0 5 -8 -3 -11
-10 -11 -15 -1 -18 6 -3 12 -14 12 -26 0 -20 -2 -20 -24 8 l-24 30 21 23 c27
29 18 28 -43 -5 -48 -27 -57 -43 -44 -77 5 -14 8 -14 21 0 9 8 18 12 21 9 10
-10 -51 -114 -105 -179 -30 -35 -33 -47 -34 -105 -1 -59 -2 -63 -12 -38 -16
39 -30 29 -47 -36 -8 -30 -19 -55 -25 -54 -16 3 -9 86 12 152 25 75 23 119 -5
146 -27 25 -27 33 0 72 l21 32 -30 -28 c-30 -28 -31 -31 -32 -128 -2 -141 -14
-159 -52 -75 l-19 41 1 -40 c0 -22 6 -58 14 -80 8 -22 15 -41 15 -43 0 -2 -13
6 -29 17 -38 28 -73 111 -79 192 -4 55 1 83 26 165 33 106 33 136 -2 216 -9
21 -16 45 -16 55 0 30 -14 43 -38 36 -27 -7 -49 -45 -58 -102 -9 -55 9 -52 24
4 9 34 17 45 31 45 35 0 34 -21 -3 -59 -23 -23 -37 -49 -39 -67 -2 -25 1 -29
23 -26 19 1 21 0 10 -7 -17 -11 -14 -16 18 -25 18 -6 22 -4 22 14 0 28 29 95
37 86 4 -3 1 -12 -5 -18 -7 -7 -12 -28 -12 -47 0 -50 -11 -62 -59 -68 -40 -6
-41 -6 -20 -21 16 -11 26 -12 45 -3 37 16 42 13 15 -9 -13 -11 -31 -20 -40
-21 -12 0 -12 -2 4 -9 18 -8 17 -9 -7 -9 -34 -1 -43 16 -53 99 -12 98 -7 155
20 216 20 45 28 54 49 54 18 0 30 -8 40 -28 8 -15 24 -36 37 -47 12 -11 19
-14 14 -6 -7 13 9 30 29 31 9 0 7 -10 -18 -78 -12 -30 -13 -48 -6 -60 8 -14 9
-11 10 13 0 17 9 49 20 70 12 22 23 58 26 80 6 51 23 85 42 85 10 0 12 -7 8
-27 -6 -27 -5 -26 29 12 64 72 75 80 153 107 42 15 64 26 47 23 -16 -2 -51 -7
-77 -11 l-48 -6 0 33 c0 25 10 43 38 73 32 34 33 37 10 23 -67 -41 -83 -52
-90 -62 -11 -15 -9 4 2 26 6 10 27 28 48 38 22 12 30 20 20 21 -26 0 -22 24
11 59 25 27 36 31 79 31 30 0 54 -5 61 -14z m211 -36 c0 -5 -7 -10 -15 -10 -8
0 -15 5 -15 10 0 6 7 10 15 10 8 0 15 -4 15 -10z m120 -20 c12 -8 11 -10 -7
-10 -13 0 -23 5 -23 10 0 13 11 13 30 0z m-36 -31 c-7 -12 -44 -12 -44 0 0 5
6 11 13 14 17 6 38 -3 31 -14z m-552 -144 c-23 -81 -31 -93 -49 -70 -19 28
-17 38 22 79 19 21 35 42 35 48 0 6 2 9 4 7 3 -2 -3 -31 -12 -64z m-2013 -28
c8 -10 7 -14 -4 -14 -8 0 -15 6 -15 14 0 7 2 13 4 13 2 0 9 -6 15 -13z m56
-47 c5 0 23 -11 41 -25 22 -17 31 -31 27 -43 -6 -23 10 -40 78 -83 44 -29 48
-34 30 -40 -19 -8 -71 -75 -71 -93 0 -25 -43 -97 -55 -92 -23 8 -40 -21 -27
-47 19 -38 25 -70 13 -63 -6 4 -11 13 -11 20 0 8 -8 24 -18 36 -16 20 -21 21
-41 10 -20 -10 -22 -18 -18 -47 8 -49 25 -66 59 -59 15 3 28 1 28 -4 0 -6 -7
-10 -16 -10 -9 0 -14 -6 -11 -12 2 -7 10 -12 16 -10 16 3 14 -20 -9 -80 -23
-62 -65 -129 -57 -90 5 21 3 23 -20 17 -18 -4 -24 -2 -21 7 3 7 15 15 29 18
18 4 29 19 43 59 18 48 18 54 3 69 -15 15 -19 14 -42 -8 -14 -13 -27 -21 -30
-18 -3 2 4 13 15 23 25 23 25 28 -2 83 -23 49 -22 51 31 82 13 7 12 12 -2 34
-9 14 -23 23 -30 20 -9 -3 -13 7 -14 33 -1 35 0 36 14 18 14 -19 15 -19 28 -2
17 23 8 57 -16 57 -24 0 -33 17 -14 28 15 8 15 10 1 21 -9 8 -16 20 -16 28 0
13 3 13 15 3 13 -11 14 -8 8 21 -3 19 -9 36 -12 39 -4 3 -6 28 -6 57 l0 52 21
-20 c11 -11 32 -21 45 -24 l24 -4 -21 17 c-11 10 -21 26 -21 36 0 17 1 17 12
2 7 -9 16 -16 20 -16z m2178 -63 c4 3 7 1 7 -5 0 -17 -16 -15 -31 6 -12 15
-12 16 2 5 9 -7 19 -10 22 -6z m-2048 -29 c47 -35 63 -62 20 -34 -14 9 -36 23
-50 32 -22 15 -34 34 -20 34 3 0 26 -15 50 -32z m270 -48 c7 -24 6 -24 -8 -5
-8 11 -18 31 -22 45 -7 24 -6 24 8 5 8 -11 18 -31 22 -45z m2968 38 c4 -12 1
-29 -6 -37 -9 -11 -9 -15 1 -18 17 -6 15 -16 -8 -43 -11 -13 -20 -27 -20 -32
0 -6 9 -12 20 -15 28 -7 25 -23 -5 -23 -16 0 -25 -6 -25 -15 0 -9 -10 -29 -22
-45 -23 -32 -23 -34 8 -44 16 -5 24 1 38 30 23 49 33 36 12 -16 -14 -36 -14
-41 -1 -46 8 -4 13 -10 10 -15 -3 -4 -11 -6 -18 -4 -10 4 -57 -84 -57 -107 0
-16 49 -7 59 9 14 25 25 9 11 -16 -7 -14 -7 -21 0 -21 5 0 10 -4 10 -10 0 -5
-9 -10 -19 -10 -22 0 -31 -19 -31 -66 0 -27 5 -37 25 -46 26 -12 25 -31 -2
-21 -13 5 -15 2 -10 -18 4 -13 7 -35 7 -48 0 -14 5 -21 13 -18 9 3 13 -56 15
-272 1 -152 -1 -302 -6 -333 -5 -34 -5 -64 1 -74 8 -14 7 -16 -7 -11 -10 4
-16 1 -16 -9 0 -8 -9 -33 -19 -54 l-19 -40 25 -20 c14 -11 29 -17 34 -14 14 8
10 -43 -6 -83 -14 -33 -14 -38 2 -57 10 -12 11 -15 3 -8 -23 20 -29 15 -55
-44 -19 -44 -23 -60 -14 -71 9 -11 8 -12 -5 -7 -12 5 -22 -6 -39 -43 l-23 -50
-12 25 c-9 20 -9 23 0 14 9 -9 17 -3 33 26 l22 37 -31 35 -31 35 32 -29 32
-29 26 58 c14 32 25 61 25 65 0 9 -58 60 -68 60 -9 -1 -56 -101 -55 -117 0 -7
-4 -13 -11 -13 -6 0 -18 -10 -26 -21 -8 -12 -27 -37 -42 -57 -16 -19 -28 -39
-28 -45 0 -6 -3 -8 -6 -5 -5 6 10 40 27 62 5 6 21 26 35 44 22 28 25 35 13 43
-8 5 -17 9 -21 9 -5 0 -8 5 -8 11 0 14 -29 43 -37 36 -3 -4 -25 -46 -50 -94
l-43 -88 27 -24 c16 -13 21 -20 13 -16 -8 5 -22 14 -32 22 -14 13 -18 12 -27
-4 -10 -15 -10 -14 -5 8 4 21 -2 35 -26 63 -18 20 -36 33 -41 30 -5 -3 -9 0
-9 7 0 14 -29 49 -41 49 -4 0 -13 -16 -19 -35 -10 -30 -9 -40 4 -60 19 -29 31
-31 45 -7 9 14 10 14 11 1 0 -8 -5 -20 -10 -25 -7 -7 2 -21 25 -44 30 -29 38
-32 46 -20 9 12 10 11 5 -4 -4 -12 2 -28 16 -45 19 -22 20 -23 2 -8 -11 9 -24
14 -27 10 -4 -3 -7 1 -7 9 0 9 -17 31 -37 50 -21 18 -50 48 -64 65 l-27 32
-31 -50 c-17 -28 -31 -54 -31 -59 0 -5 12 -18 26 -29 35 -28 21 -27 -16 1 -16
11 -27 25 -24 29 7 12 -26 59 -40 59 -7 0 -22 -21 -34 -46 -19 -38 -21 -49
-10 -63 7 -9 -5 0 -25 18 -20 19 -37 40 -37 45 1 6 9 1 20 -12 l19 -23 15 23
c8 13 20 37 28 53 7 17 15 32 19 35 3 3 15 26 27 52 l21 47 -46 41 c-25 22
-42 40 -37 40 5 0 24 -14 42 -30 18 -16 38 -30 43 -30 5 0 17 16 26 35 13 28
14 37 3 50 -18 22 -27 19 -39 -17 -6 -17 -13 -29 -16 -26 -3 3 0 19 6 37 6 17
9 37 6 45 -3 7 -1 33 5 56 9 34 8 44 -3 51 -22 13 -26 11 -33 -17 -5 -18 -2
-32 10 -45 18 -20 6 -27 -14 -7 -9 9 -12 8 -16 -3 -46 -143 -61 -186 -68 -196
-6 -7 4 -24 29 -48 24 -24 30 -34 16 -26 -21 11 -25 8 -57 -42 -19 -29 -41
-59 -50 -66 -21 -18 -20 -33 5 -65 13 -17 27 -25 37 -21 12 5 13 3 2 -10 -12
-14 -16 -13 -36 12 -13 15 -23 31 -24 35 0 4 -7 5 -15 2 -23 -9 -18 3 21 46
35 39 35 39 17 64 -23 33 -27 32 -54 -5 -18 -26 -20 -35 -11 -50 17 -27 -4
-24 -23 3 -11 17 -12 24 -3 27 14 5 57 53 58 64 0 12 -42 46 -57 47 -18 0 -16
18 5 41 39 41 46 64 27 93 -16 25 -18 25 -31 9 -11 -15 -13 -15 -14 -2 0 8 5
20 10 25 8 8 6 15 -5 24 -8 7 -15 17 -15 22 0 6 6 5 15 -2 18 -15 29 -8 46 31
12 30 11 33 -11 51 l-24 20 -23 -29 c-25 -31 -32 -11 -8 21 13 17 12 21 -7 38
-23 20 -38 23 -38 8 0 -5 -5 -10 -11 -10 -7 0 -9 9 -6 21 8 29 -48 91 -62 69
-7 -10 -5 -21 7 -35 17 -20 17 -20 -4 -2 -11 9 -23 15 -26 12 -8 -9 -53 19
-56 35 -2 8 0 12 3 8 4 -4 17 -2 29 4 17 9 19 8 9 -3 -15 -15 -17 -29 -4 -29
16 0 23 40 10 56 -11 13 -16 11 -43 -15 -18 -18 -40 -29 -54 -28 -27 2 -30 17
-2 17 20 0 27 14 13 23 -5 2 -3 3 4 1 15 -4 48 34 38 44 -4 4 -10 1 -12 -5 -3
-7 -9 -13 -14 -13 -5 0 -3 11 3 25 6 14 17 24 24 21 14 -5 51 31 41 40 -4 4
-13 1 -22 -6 -13 -11 -13 -8 -4 19 9 26 14 29 30 21 15 -9 21 -5 34 20 9 17
11 30 5 30 -5 0 -10 5 -10 10 0 6 6 10 13 10 17 0 52 74 42 90 -4 7 2 18 14
26 12 8 21 21 21 28 0 8 22 48 50 90 52 80 53 101 0 39 l-31 -38 6 35 c3 19 7
53 9 75 1 22 7 49 13 60 26 50 22 102 -12 170 l-33 66 21 13 c12 8 31 17 43
20 18 6 20 3 16 -26 -2 -18 -9 -38 -14 -45 -5 -6 -6 -23 -2 -38 7 -27 7 -27
26 16 26 55 21 129 -12 164 -12 13 -19 28 -16 34 4 6 2 20 -4 31 -13 24 -2 26
26 5 10 -8 28 -15 39 -15 15 0 10 6 -18 26 -45 30 -43 43 2 19 18 -9 31 -11
31 -5 0 6 10 8 25 4 14 -3 32 -3 41 0 13 5 10 13 -15 50 -17 25 -41 47 -54 49
-20 4 -19 4 4 6 20 1 32 -8 50 -34 38 -56 51 -46 21 15 -22 45 -60 64 -99 49
-22 -8 -25 -8 -16 2 6 6 35 14 63 17 28 2 53 9 56 13 11 18 25 8 40 -27 18
-44 13 -53 -15 -25 -16 16 -21 17 -21 6 0 -8 9 -20 20 -27 23 -15 25 -42 7
-110 -10 -37 -16 -45 -27 -38 -26 16 -36 11 -12 -6 28 -19 28 -72 0 -152 -10
-29 -15 -58 -12 -65 4 -7 3 -9 -1 -4 -12 10 -63 -94 -79 -161 -15 -66 -12 -89
10 -71 11 9 18 8 29 -1 13 -10 18 -11 28 -1 9 10 8 16 -9 29 -24 20 -22 31 23
96 20 29 31 56 28 66 -4 12 1 19 13 22 11 3 23 22 30 46 13 43 33 64 40 44 4
-12 62 53 62 69 0 5 5 9 11 9 5 0 7 -4 4 -10 -4 -6 5 -10 19 -10 15 0 26 6 26
14 0 7 7 19 15 26 12 10 15 10 15 -2 0 -8 -5 -19 -11 -25 -7 -7 -7 -13 -1 -17
5 -3 15 8 22 24 7 17 16 30 21 30 12 0 11 -7 -2 -32 -8 -16 -8 -22 2 -29 9 -5
25 2 46 23 41 40 42 58 3 58 -16 0 -30 4 -30 9 0 4 17 8 38 7 31 -1 36 2 34
18 -2 10 7 30 21 45 13 14 32 37 42 51 16 23 17 23 12 4 l-5 -22 37 21 c34 20
35 20 19 1 -26 -30 -27 -58 -1 -62 17 -2 23 3 28 27 3 17 4 39 1 48 -4 14 13
30 69 68 41 28 75 55 75 62 0 7 6 10 13 7 8 -3 20 2 27 11 17 21 27 19 33 -7z
m-1543 2 c8 -5 11 -12 8 -16 -10 -9 -38 3 -38 16 0 12 10 13 30 0z m476 -27
c-7 -7 -26 7 -26 19 0 6 6 6 15 -2 9 -7 13 -15 11 -17z m-173 -9 c-53 -19 -64
-17 -23 5 19 10 41 16 48 13 8 -3 -2 -10 -25 -18z m87 -19 c17 -9 30 -24 30
-34 0 -25 -40 -35 -60 -16 -13 13 -12 15 3 15 12 0 16 -5 11 -12 -5 -10 -4
-10 6 -1 11 10 11 15 0 28 -16 19 -37 19 -57 0 -22 -23 -28 -10 -6 13 22 25
36 26 73 7z m-1895 -15 c-3 -5 -13 -10 -21 -10 -8 0 -14 5 -14 10 0 6 9 10 21
10 11 0 17 -4 14 -10z m2256 -72 c10 -18 8 -24 -11 -40 -25 -20 -36 -22 -45
-8 -3 6 1 7 9 4 27 -10 20 41 -6 54 -22 10 -21 11 9 11 23 1 36 -5 44 -21z
m-1107 -165 c3 -7 16 -13 28 -14 13 0 17 -3 10 -6 -13 -5 -72 18 -72 28 0 12
29 5 34 -8z m166 8 c0 -6 -9 -9 -20 -8 -11 1 -20 5 -20 9 0 4 9 8 20 8 11 0
20 -4 20 -9z m-40 -31 c0 -5 -7 -10 -15 -10 -8 0 -15 5 -15 10 0 6 7 10 15 10
8 0 15 -4 15 -10z m33 -15 c4 -8 2 -17 -3 -20 -6 -4 -10 3 -10 14 0 25 6 27
13 6z m-162 -10 c-1 -15 -24 -12 -29 3 -3 9 2 13 12 10 10 -1 17 -7 17 -13z
m82 -2 c-7 -2 -19 -2 -25 0 -7 3 -2 5 12 5 14 0 19 -2 13 -5z m54 -14 c-1 -14
4 -23 16 -25 11 -1 22 -5 25 -9 8 -8 -19 -25 -29 -19 -4 2 -10 0 -14 -6 -10
-15 -52 -12 -59 5 -3 8 -13 15 -22 15 -10 0 -14 -5 -10 -15 5 -13 -5 -20 -26
-16 -18 3 -6 -27 12 -32 11 -3 20 -10 20 -16 0 -6 -9 -11 -20 -11 -11 0 -20 5
-20 10 0 6 -8 10 -17 10 -17 -1 -17 -1 0 -11 20 -12 23 -29 4 -29 -7 0 -18 13
-24 30 -9 25 -9 32 5 40 15 8 14 9 -5 10 -14 0 -23 6 -23 15 0 13 3 13 20 3
16 -10 25 -9 49 5 32 19 71 23 71 7 0 -5 9 -10 21 -10 27 0 19 24 -9 28 -27 4
-19 22 9 22 10 0 19 5 19 10 0 6 2 10 5 10 3 0 4 -10 2 -21z m76 -74 c-7 -80
-19 -119 -33 -110 -5 3 -8 0 -5 -7 8 -20 -34 -83 -47 -70 -12 12 -1 35 13 27
17 -11 9 16 -11 37 -16 17 -23 19 -32 10 -10 -10 -8 -14 10 -18 23 -7 29 -19
12 -29 -13 -8 -42 39 -34 59 4 12 0 16 -15 16 -24 0 -29 25 -6 34 8 3 19 -3
25 -13 8 -16 13 -17 34 -8 29 14 25 21 -12 23 -14 0 -28 6 -30 12 -2 6 -10 8
-18 5 -8 -3 -14 1 -14 11 0 21 26 20 39 -1 9 -15 12 -15 20 -4 6 9 11 10 15 2
4 -6 13 -11 19 -11 8 0 7 3 -2 9 -16 10 -5 34 12 28 12 -4 47 29 47 45 0 4 -7
8 -15 8 -8 0 -15 5 -15 10 0 6 5 10 11 10 5 0 7 5 4 11 -4 6 2 5 14 -3 19 -11
20 -19 14 -83z m-243 66 c0 -11 -26 -22 -34 -14 -12 12 -5 23 14 23 11 0 20
-4 20 -9z m70 -1 c0 -5 -6 -10 -14 -10 -8 0 -16 -7 -20 -15 -3 -8 -12 -12 -21
-9 -8 3 -12 10 -9 15 3 5 10 7 15 4 5 -4 12 1 15 9 7 18 34 22 34 6z m225 -39
c-8 -17 -18 -31 -21 -31 -10 0 8 65 20 72 18 12 19 -8 1 -41z m510 19 c-8 -13
-107 -62 -113 -56 -2 3 22 18 54 35 71 35 67 33 59 21z m-2178 -32 c-3 -8 -6
-5 -6 6 -1 11 2 17 5 13 3 -3 4 -12 1 -19z m1674 -68 c-6 -65 -6 -65 -14 -23
-4 24 -3 53 3 69 15 38 17 28 11 -46z m579 35 c17 -9 40 -13 54 -9 21 5 29 -1
51 -35 21 -35 24 -46 16 -74 -9 -31 -9 -31 -10 -5 -2 51 -21 76 -71 93 -50 16
-116 12 -145 -9 -12 -8 1 -11 57 -11 40 0 82 -4 93 -9 11 -5 24 -10 29 -10 5
-1 12 -11 17 -22 7 -20 4 -22 -32 -22 -32 -1 -42 4 -49 21 -5 12 -9 16 -9 8
-1 -9 -8 -11 -23 -6 -13 3 -31 8 -41 9 -10 1 -22 8 -27 15 -5 9 -10 10 -14 2
-4 -6 -12 -11 -17 -11 -6 0 -7 5 -4 10 17 28 -45 -8 -78 -45 l-18 -20 10 21
c5 11 17 26 25 33 8 7 12 19 10 26 -4 9 9 21 35 35 51 25 54 19 5 -9 -20 -12
-34 -24 -31 -28 3 -3 28 7 54 23 42 26 71 41 81 43 2 1 16 -6 32 -14z m47 9
c-3 -3 -12 -4 -19 -1 -8 3 -5 6 6 6 11 1 17 -2 13 -5z m-850 -97 c6 -4 21 -31
33 -62 12 -30 27 -55 32 -55 5 0 6 6 2 13 -4 6 16 -10 45 -38 36 -34 49 -55
45 -67 -4 -14 -1 -16 12 -11 12 4 15 2 12 -8 -3 -8 1 -20 9 -27 7 -7 16 -31
19 -53 4 -25 10 -36 18 -32 6 4 4 -4 -5 -17 -19 -29 -49 -45 -101 -54 l-37 -7
29 30 c39 39 38 61 -7 115 -21 24 -52 64 -70 88 -17 24 -49 62 -71 86 -26 28
-42 56 -46 81 l-6 38 38 -7 c21 -4 43 -10 49 -13z m209 -44 c10 -32 18 -86 19
-120 l1 -62 -24 22 c-40 37 -42 50 -30 136 6 45 12 81 14 81 1 0 11 -26 20
-57z m-1706 -59 c-17 -38 -36 -78 -42 -88 -20 -37 -28 -157 -18 -297 8 -129
19 -175 43 -190 5 -4 6 -17 2 -30 -7 -21 -9 -20 -27 17 -75 154 -56 458 41
638 37 70 38 33 1 -50z m1727 64 c-3 -8 -6 -5 -6 6 -1 11 2 17 5 13 3 -3 4
-12 1 -19z m-1648 -98 c26 -105 25 -113 -9 -48 -12 23 -23 60 -25 82 -2 36 -1
38 11 21 8 -11 18 -35 23 -55z m1559 30 l11 -30 -25 16 c-19 13 -22 20 -13 30
15 19 15 18 27 -16z m-231 14 c-3 -3 -12 -4 -19 -1 -8 3 -5 6 6 6 11 1 17 -2
13 -5z m663 -47 c0 -34 29 -75 76 -106 50 -33 64 -37 64 -21 0 6 -7 10 -17 10
-33 0 -116 80 -100 97 7 6 69 -28 83 -46 6 -8 18 -12 26 -8 9 3 25 -1 37 -9
16 -12 25 -12 41 -4 30 16 43 8 27 -14 -7 -10 -31 -22 -53 -26 l-39 -8 36 -1
c30 -1 43 7 82 45 26 25 47 53 47 62 0 10 5 24 11 32 8 12 9 11 5 -5 -7 -29
-16 -113 -10 -92 3 9 9 17 14 17 11 0 -18 -88 -31 -96 -5 -3 -9 -16 -9 -29 0
-22 -80 -115 -100 -115 -5 0 -16 -3 -26 -7 -13 -5 -15 -3 -9 7 6 10 4 12 -8 7
-15 -6 -22 3 -18 26 1 10 -6 9 -28 -4 -30 -19 -84 -3 -104 30 -27 45 -20 54
18 26 19 -15 39 -24 44 -20 6 3 19 1 30 -4 32 -17 142 50 181 111 17 26 30 53
28 60 -2 6 -16 -9 -30 -34 -35 -58 -54 -74 -71 -60 -7 6 -29 9 -48 6 -41 -7
-127 27 -135 53 -3 10 -10 27 -14 38 -12 27 -19 130 -9 113 5 -7 9 -21 9 -31z
m465 33 c3 -5 1 -10 -4 -10 -6 0 -11 5 -11 10 0 6 2 10 4 10 3 0 8 -4 11 -10z
m-2601 -9 c3 -4 3 -11 0 -14 -8 -8 -34 3 -34 14 0 11 27 12 34 0z m2261 -1 c3
-5 1 -10 -4 -10 -6 0 -11 5 -11 10 0 6 2 10 4 10 3 0 8 -4 11 -10z m-2275 -50
c0 -5 -4 -10 -10 -10 -5 0 -10 5 -10 10 0 6 5 10 10 10 6 0 10 -4 10 -10z
m2234 -162 l77 -25 -31 -13 c-23 -10 -36 -10 -59 -1 -36 16 -87 69 -96 101 -6
22 -4 22 13 -6 15 -24 36 -36 96 -56z m-627 56 c-3 -3 -12 -4 -19 -1 -8 3 -5
6 6 6 11 1 17 -2 13 -5z m-100 -118 c18 -9 38 -26 44 -39 7 -12 29 -42 49 -67
52 -62 101 -142 138 -225 l32 -70 -43 46 c-23 25 -77 101 -119 170 -51 83
-100 147 -147 194 -39 38 -71 74 -71 79 0 6 19 -8 43 -31 23 -22 56 -48 74
-57z m140 38 c-3 -3 -12 -4 -19 -1 -8 3 -5 6 6 6 11 1 17 -2 13 -5z m-1459
-98 c4 -7 35 -36 69 -65 34 -29 71 -70 82 -91 l19 -38 -49 16 c-55 18 -77 41
-133 144 -40 72 -48 108 -15 69 11 -13 23 -29 27 -35z m1768 -85 c21 -29 49
-60 60 -68 28 -18 169 -64 155 -50 -17 17 -13 34 9 40 18 5 19 7 6 39 l-15 34
75 1 c41 0 74 -2 74 -4 0 -5 -71 -129 -108 -188 -36 -56 -52 -127 -52 -222 0
-74 14 -76 24 -3 4 27 10 50 15 50 11 0 22 -101 15 -137 -9 -47 -55 -58 -124
-32 -94 35 -126 79 -206 276 -84 209 -96 212 -28 8 18 -55 26 -91 18 -80 -72
96 -91 128 -121 203 -19 48 -46 108 -60 135 -13 27 -23 50 -21 52 2 2 20 8 41
13 35 10 39 9 46 -11 31 -79 51 -117 92 -178 26 -38 53 -84 60 -104 7 -19 16
-35 20 -35 5 0 19 19 33 41 23 39 23 44 10 81 -12 36 -56 131 -91 202 l-15 28
25 -18 c13 -10 42 -43 63 -73z m-1879 16 c12 -17 33 -63 48 -102 37 -101 65
-157 92 -184 25 -26 29 -41 11 -41 -9 0 -9 -3 1 -12 6 -7 17 -13 23 -13 6 0
13 -6 16 -12 2 -7 -4 -13 -13 -13 -10 0 -14 -5 -9 -12 4 -7 -21 14 -55 47 -78
75 -90 97 -94 178 -3 35 -9 72 -15 83 -10 16 -12 12 -13 -26 l-1 -45 -8 35
c-13 54 -20 150 -12 150 4 0 17 -15 29 -33z m-1 -318 c9 -35 20 -72 25 -81 7
-14 5 -18 -7 -18 -14 0 -14 -3 -4 -15 7 -8 19 -15 26 -15 8 0 14 -3 14 -7 0
-5 23 -32 51 -62 l50 -54 26 36 c15 21 29 35 31 32 3 -3 -5 -19 -18 -37 -22
-30 -22 -32 -5 -45 28 -19 38 -16 58 19 12 22 15 34 7 42 -17 17 -12 23 20 22
23 -1 29 -5 24 -18 -2 -9 0 -19 6 -23 5 -3 10 -11 10 -17 0 -7 -5 -6 -15 2
-19 16 -31 7 -45 -35 -6 -19 -13 -35 -15 -35 -2 0 -20 10 -40 21 -20 12 -37
20 -39 18 -12 -13 -56 -112 -53 -116 6 -5 -49 -60 -72 -73 -12 -6 -8 -17 23
-54 20 -25 34 -46 29 -46 -4 1 -21 19 -38 40 -16 21 -33 39 -36 40 -3 0 -14
-16 -25 -35 l-18 -34 29 -31 c16 -16 25 -30 21 -30 -5 0 -17 11 -28 25 -24 30
-28 31 -56 5 -12 -12 -22 -16 -22 -9 0 6 10 19 22 28 l21 18 -21 35 c-28 44
-29 59 -2 25 11 -14 20 -30 20 -36 0 -22 17 -10 32 22 28 58 -16 114 -54 68
-24 -31 -23 -14 2 24 19 29 19 29 0 48 -30 27 -27 87 5 117 l25 24 -30 31
c-33 35 -38 56 -14 75 8 8 20 22 26 34 9 17 6 23 -18 42 -15 13 -25 26 -21 30
3 4 14 1 24 -7 15 -12 16 -12 10 4 -4 10 -7 26 -7 35 0 13 -3 13 -16 -4 -15
-18 -15 -17 -9 16 10 47 10 56 2 125 l-8 60 40 -81 c22 -45 48 -110 57 -145z
m394 146 c0 -8 5 -15 11 -15 14 0 69 -55 69 -69 0 -6 -9 -11 -20 -11 -13 0
-29 17 -49 53 -16 28 -34 57 -40 64 -20 22 -11 37 9 15 11 -12 20 -28 20 -37z
m90 44 c0 -5 -4 -8 -9 -5 -5 4 -11 0 -14 -6 -3 -10 -8 -10 -18 1 -8 8 -9 11
-2 7 6 -3 14 -2 18 4 8 13 25 13 25 -1z m1760 -166 c107 -43 152 -109 160
-236 5 -72 -2 -100 -14 -59 -3 11 -5 8 -4 -8 1 -71 -11 -63 -37 25 -23 75 -29
84 -91 133 -56 44 -88 89 -99 140 -7 32 -6 33 22 26 15 -4 44 -13 63 -21z
m-2023 -96 c-1 -5 -11 -11 -20 -13 -14 -2 -15 1 -6 17 10 20 33 16 26 -4z
m1690 -162 c44 -76 69 -103 112 -121 77 -32 117 -8 146 86 36 120 46 114 16
-10 -16 -65 -22 -78 -50 -93 -25 -15 -42 -17 -84 -12 -46 6 -58 13 -103 59
-45 46 -134 181 -134 202 0 18 65 -56 97 -111z m-1547 20 c-7 -9 -15 -13 -17
-11 -7 7 7 26 19 26 6 0 6 -6 -2 -15z m780 5 c0 -5 -2 -10 -4 -10 -3 0 -8 5
-11 10 -3 6 -1 10 4 10 6 0 11 -4 11 -10z m-655 -95 c-17 -13 -32 -21 -35 -18
-3 3 8 15 25 28 16 13 31 22 34 19 3 -3 -8 -16 -24 -29z m-115 9 c0 -10 -6
-14 -14 -11 -9 4 -18 -5 -26 -23 -13 -32 -68 -87 -57 -58 3 10 2 20 -3 23 -6
4 -10 11 -10 17 0 6 6 6 15 -2 9 -7 17 -11 18 -9 1 2 10 21 20 42 17 39 57 53
57 21z m184 -9 c3 -9 0 -15 -9 -15 -16 0 -27 14 -18 24 10 10 21 7 27 -9z
m-131 -47 c-13 -12 -26 -19 -29 -15 -4 4 1 14 12 22 29 22 41 18 17 -7z m122
-8 c3 -5 -1 -10 -10 -10 -9 0 -13 5 -10 10 3 6 8 10 10 10 2 0 7 -4 10 -10z
m1759 -63 c10 -78 13 -158 6 -150 -6 7 -30 158 -30 191 0 31 19 -2 24 -41z
m98 1 c-2 -24 -4 -48 -4 -53 -2 -15 -38 -16 -38 -2 0 7 -3 23 -6 37 -5 21 -4
22 6 8 18 -28 30 -21 30 17 0 19 4 35 8 35 4 0 6 -19 4 -42z m-2256 -35 c6 -2
16 8 24 22 20 37 23 23 5 -21 -9 -22 -31 -50 -48 -64 l-32 -25 23 32 c26 36
28 51 7 59 -8 4 -15 16 -15 28 0 20 1 20 13 -3 6 -14 17 -26 23 -28z m3029 17
c3 -6 -1 -7 -9 -4 -18 7 -21 14 -7 14 6 0 13 -4 16 -10z m-99 -50 c0 -20 -7
-25 -19 -13 -4 3 -2 12 4 20 15 17 15 17 15 -7z m-229 -12 c-3 -8 -6 -5 -6 6
-1 11 2 17 5 13 3 -3 4 -12 1 -19z m-1600 -10 c-3 -8 -6 -5 -6 6 -1 11 2 17 5
13 3 -3 4 -12 1 -19z m2029 -10 l29 -33 -32 29 c-18 17 -33 31 -33 33 0 8 8 1
36 -29z m-899 0 c-3 -8 -6 -5 -6 6 -1 11 2 17 5 13 3 -3 4 -12 1 -19z m-987
-8 c0 -11 -7 -20 -15 -20 -13 0 -14 4 -5 20 6 11 13 20 15 20 3 0 5 -9 5 -20z
m1811 -3 c-10 -9 -11 -8 -5 6 3 10 9 15 12 12 3 -3 0 -11 -7 -18z m-144 -9
c-3 -8 -6 -5 -6 6 -1 11 2 17 5 13 3 -3 4 -12 1 -19z m274 -2 c-10 -11 -8 -17
6 -25 10 -6 14 -10 8 -11 -5 0 -16 4 -23 9 -12 7 -12 12 -1 29 7 12 15 19 18
17 2 -3 -2 -11 -8 -19z m-501 -6 c0 -5 -5 -10 -11 -10 -5 0 -7 5 -4 10 3 6 8
10 11 10 2 0 4 -4 4 -10z m354 -15 c-4 -8 -11 -15 -16 -15 -6 0 -5 6 2 15 7 8
14 15 16 15 2 0 1 -7 -2 -15z m-713 -12 c13 -16 12 -17 -3 -4 -17 13 -22 21
-14 21 2 0 10 -8 17 -17z m572 2 c-3 -9 -8 -14 -10 -11 -3 3 -2 9 2 15 9 16
15 13 8 -4z m-123 -15 c-6 -11 -13 -20 -16 -20 -2 0 0 9 6 20 6 11 13 20 16
20 2 0 0 -9 -6 -20z m216 -28 c-18 -16 -18 -16 -6 6 6 13 14 21 18 18 3 -4 -2
-14 -12 -24z m-658 4 c-7 -8 -15 -12 -17 -11 -5 6 10 25 20 25 5 0 4 -6 -3
-14z m47 -32 c9 -15 12 -23 6 -20 -11 7 -35 46 -28 46 3 0 12 -12 22 -26z m95
-9 c13 -14 19 -25 13 -25 -6 0 -18 11 -27 25 -9 14 -15 25 -13 25 2 0 14 -11
27 -25z m-40 11 c0 -3 -4 -8 -10 -11 -5 -3 -10 -1 -10 4 0 6 5 11 10 11 6 0
10 -2 10 -4z m325 -6 c3 -6 -1 -7 -9 -4 -18 7 -21 14 -7 14 6 0 13 -4 16 -10z
m-410 -70 c10 -11 16 -20 13 -20 -3 0 -13 9 -23 20 -10 11 -16 20 -13 20 3 0
13 -9 23 -20z m-180 -40 c4 -27 4 -68 0 -90 -6 -33 -10 -40 -23 -35 -10 4 -56
19 -104 33 -49 15 -88 30 -88 34 0 3 13 11 29 16 15 5 40 22 55 36 27 28 80
55 108 56 12 0 18 -13 23 -50z m325 -21 c0 -4 -9 -9 -21 -12 -17 -5 -20 -2
-16 13 3 11 -1 24 -9 31 -8 6 -14 16 -14 22 0 6 14 -2 30 -18 17 -16 30 -32
30 -36z m-1046 13 c2 -4 -4 -8 -15 -8 -10 0 -19 4 -19 8 0 4 6 8 14 8 8 0 17
-4 20 -8z m974 -109 c30 -91 30 -93 14 -143 -9 -27 -19 -50 -23 -50 -6 0 -29
55 -29 69 0 3 7 -2 14 -12 13 -16 15 -15 25 14 10 28 7 42 -16 101 -16 37 -31
68 -34 68 -3 0 -12 -18 -19 -40 -7 -22 -17 -37 -22 -32 -4 4 4 36 19 70 14 35
30 59 34 55 4 -5 21 -50 37 -100z m-928 87 c8 -5 11 -10 5 -10 -5 0 -17 5 -25
10 -8 5 -10 10 -5 10 6 0 17 -5 25 -10z m834 -41 c-2 -3 -8 -18 -14 -33 -5
-15 -15 -24 -21 -21 -7 5 -5 13 5 24 13 15 13 20 1 44 l-14 27 24 -17 c12 -10
21 -21 19 -24z m-747 5 c-6 -6 -47 9 -47 17 0 5 11 3 25 -3 14 -6 24 -13 22
-14z m938 16 c3 -5 1 -10 -4 -10 -6 0 -11 5 -11 10 0 6 2 10 4 10 3 0 8 -4 11
-10z m-1030 -10 c19 -8 19 -9 -2 -9 -12 -1 -25 4 -28 9 -7 12 2 12 30 0z
m-135 -19 c0 -5 9 -7 20 -4 11 3 20 0 20 -6 0 -13 -36 -15 -45 -1 -3 5 -12 7
-20 3 -8 -3 -15 0 -15 6 0 6 9 11 20 11 11 0 20 -4 20 -9z m90 -25 c0 -3 -4
-8 -10 -11 -5 -3 -10 -1 -10 4 0 6 5 11 10 11 6 0 10 -2 10 -4z m1072 -51 c3
-13 1 -22 -3 -19 -9 5 -13 44 -5 44 2 0 6 -11 8 -25z m-872 -39 c0 -15 -21
-26 -47 -26 -14 0 -14 3 2 20 21 23 45 26 45 6z m734 -25 c-6 -6 -24 19 -24
34 1 6 7 1 15 -9 8 -11 12 -22 9 -25z m113 17 c-3 -8 -6 -5 -6 6 -1 11 2 17 5
13 3 -3 4 -12 1 -19z m-1053 -17 c-2 -3 -12 3 -22 13 -16 17 -16 18 5 5 12 -7
20 -15 17 -18z m866 -2 c0 -6 -4 -7 -10 -4 -5 3 -10 11 -10 16 0 6 5 7 10 4 6
-3 10 -11 10 -16z m-665 -19 c3 -5 -1 -10 -10 -10 -9 0 -13 5 -10 10 3 6 8 10
10 10 2 0 7 -4 10 -10z m876 -52 c16 -3 16 -5 -3 -28 -18 -22 -20 -22 -14 -4
4 14 0 26 -14 39 -11 10 -17 22 -13 28 4 6 10 2 16 -11 5 -11 18 -22 28 -24z
m-951 8 c0 -3 -5 -17 -10 -32 -13 -34 3 -128 36 -207 21 -50 76 -141 130 -214
15 -21 15 -23 1 -23 -42 0 -156 177 -186 288 -24 89 -26 130 -9 167 9 20 38
36 38 21z m373 -24 c-2 -6 8 -14 21 -18 14 -3 27 -13 30 -21 5 -12 1 -14 -21
-8 -16 4 -25 3 -21 -1 13 -12 110 -46 161 -54 65 -12 115 -31 121 -47 8 -19
-18 -16 -109 12 -44 14 -83 25 -87 25 -4 0 1 -13 10 -29 9 -16 13 -33 8 -38
-5 -4 -13 1 -20 12 -20 36 -75 83 -104 90 -20 4 -32 15 -40 39 -16 42 -15 49
3 42 8 -3 15 -1 15 5 0 6 8 9 18 7 9 -2 16 -9 15 -16z m-218 -32 c3 -5 -6 -20
-21 -33 -34 -30 -34 -67 -1 -114 31 -44 25 -64 -10 -31 -57 53 -67 110 -27
157 26 31 48 39 59 21z m90 0 c-3 -5 -13 -10 -21 -10 -8 0 -14 5 -14 10 0 6 9
10 21 10 11 0 17 -4 14 -10z m55 -76 c0 -33 -26 -30 -33 3 -3 16 -3 32 0 36 9
14 33 -15 33 -39z m385 36 c-3 -5 -10 -10 -16 -10 -5 0 -9 5 -9 10 0 6 7 10
16 10 8 0 12 -4 9 -10z m-45 -20 c8 -5 11 -12 8 -16 -10 -9 -58 4 -58 16 0 13
30 13 50 0z m179 -137 c22 -83 22 -91 11 -98 -16 -10 -27 9 -35 63 -4 24 -9
51 -12 58 -3 8 1 14 11 14 9 0 19 -14 25 -37z m-520 5 c17 -46 -7 -70 -53 -52
-23 9 -20 26 4 19 17 -5 20 -2 20 24 0 36 17 41 29 9z m819 -14 c81 -1 107 -5
122 -19 10 -9 51 -34 90 -54 l71 -38 28 -79 c31 -90 54 -127 129 -208 29 -32
50 -62 47 -67 -4 -5 1 -9 9 -9 9 0 16 -5 16 -11 0 -10 -16 -7 -67 12 -33 12
-28 22 7 14 38 -8 38 0 1 20 -19 9 -32 11 -36 5 -3 -6 -31 -10 -61 -10 -35 0
-53 4 -49 10 4 6 11 8 16 5 5 -4 9 -2 9 4 0 17 -17 21 -29 7 -6 -7 -9 -21 -5
-30 4 -11 1 -16 -11 -16 -11 0 -15 -5 -11 -16 3 -8 -4 -29 -16 -45 -17 -23
-20 -34 -12 -47 9 -13 6 -25 -12 -54 l-23 -37 29 -15 c29 -14 30 -14 24 9 -7
28 9 40 26 20 10 -12 10 -18 -1 -31 -10 -13 -10 -17 2 -25 11 -7 9 -9 -8 -9
-12 0 -25 -4 -28 -10 -3 -5 -15 -10 -26 -10 -14 0 -21 9 -25 30 -4 17 -11 30
-16 30 -6 0 -8 -14 -3 -36 6 -35 5 -36 -18 -30 -13 3 -47 0 -75 -8 l-51 -13 5
26 c2 14 -4 60 -14 102 -15 63 -16 81 -6 110 7 19 12 43 12 54 0 14 -1 16 -5
5 -26 -69 -24 -69 -40 -8 -14 55 -14 59 7 88 12 16 17 30 11 30 -5 0 -13 -9
-16 -20 -3 -11 -10 -20 -15 -20 -13 0 -22 74 -12 101 10 25 85 99 100 99 5 0
18 -17 30 -39 17 -31 31 -41 64 -49 57 -15 59 -8 4 13 -25 10 -48 26 -51 35
-3 10 -17 35 -31 55 -23 34 -23 36 -4 31 11 -3 29 -9 40 -12 11 -3 20 -3 20 0
0 11 -107 37 -169 42 -66 5 -141 37 -141 60 0 6 3 26 6 43 6 29 9 32 33 25 14
-4 72 -8 129 -10z m-648 -9 c0 -9 -9 -15 -21 -15 -18 0 -19 2 -9 15 7 8 16 15
21 15 5 0 9 -7 9 -15z m220 -19 c0 -3 -4 -8 -10 -11 -5 -3 -10 -1 -10 4 0 6 5
11 10 11 6 0 10 -2 10 -4z m-2420 -26 c6 -11 9 -20 8 -20 -2 0 -11 9 -21 20
-9 11 -13 20 -7 20 5 0 14 -9 20 -20z m2127 0 c-1 -11 -7 -20 -14 -20 -14 0
-18 22 -6 33 12 13 22 7 20 -13z m-2070 -6 c-3 -3 -12 -4 -19 -1 -8 3 -5 6 6
6 11 1 17 -2 13 -5z m47 -19 c11 -8 18 -17 15 -19 -2 -2 -15 4 -28 15 -27 22
-15 26 13 4z m56 -9 c0 -3 -4 -8 -10 -11 -5 -3 -10 -1 -10 4 0 6 5 11 10 11 6
0 10 -2 10 -4z m1996 -22 c46 -14 84 -29 84 -35 0 -5 16 -9 35 -9 40 0 105
-24 105 -39 0 -5 -14 -12 -31 -16 -24 -5 -35 -2 -50 14 -22 23 -152 66 -157
51 -6 -18 -27 -11 -55 19 -46 49 -43 50 69 15z m64 16 c12 -8 12 -10 -5 -10
-11 0 -27 5 -35 10 -12 8 -12 10 5 10 11 0 27 -5 35 -10z m148 -30 c28 -8 52
-18 52 -23 0 -12 -83 -2 -110 13 -22 12 -28 35 -7 27 6 -2 36 -10 65 -17z
m-2083 -10 c3 -5 1 -10 -4 -10 -6 0 -11 5 -11 10 0 6 2 10 4 10 3 0 8 -4 11
-10z m2538 -19 c15 -6 27 -15 27 -20 0 -9 -69 -56 -73 -50 -9 15 -37 81 -37
89 0 9 30 2 83 -19z m-2442 -8 c13 -16 12 -17 -3 -5 -9 8 -22 11 -28 7 -5 -3
-10 -1 -10 4 0 17 26 13 41 -6z m1876 -29 c-3 -3 -12 -4 -19 -1 -8 3 -5 6 6 6
11 1 17 -2 13 -5z m237 -29 c11 -8 17 -18 13 -21 -8 -8 -77 15 -77 27 0 14 43
10 64 -6z m-207 -8 c-46 -30 -61 -47 -49 -59 8 -8 13 -7 18 5 3 9 11 17 17 17
7 0 7 -4 -1 -12 -16 -16 -15 -38 3 -58 14 -16 13 -17 -15 -18 -29 -1 -40 11
-20 23 15 9 12 25 -4 25 -7 0 -16 9 -19 20 -6 23 43 70 71 69 15 0 15 -2 -1
-12z m85 -10 c-2 -11 3 -14 18 -10 12 3 20 0 20 -7 0 -7 -7 -10 -17 -5 -15 5
-14 3 2 -13 14 -13 22 -16 27 -8 5 7 8 5 8 -4 0 -16 -18 -40 -31 -40 -4 0 -6
8 -4 18 1 9 -7 26 -19 37 -21 20 -25 22 -59 24 -10 1 -15 6 -11 12 3 6 15 9
25 6 11 -3 19 -1 19 5 0 5 6 8 13 5 6 -2 11 -11 9 -20z m-1698 -5 c7 -12 -22
-45 -33 -37 -19 11 -13 45 8 45 11 0 22 -3 25 -8z m56 -71 c-11 -23 -25 -39
-30 -36 -7 4 -6 13 0 25 5 10 15 31 20 46 8 19 14 24 21 17 7 -7 4 -23 -11
-52z m1703 -21 c-3 -10 -14 -22 -25 -26 -22 -6 -41 6 -20 13 7 3 18 11 25 19
17 19 26 17 20 -6z m267 10 c12 -8 11 -10 -7 -10 -13 0 -23 5 -23 10 0 13 11
13 30 0z m-2073 -52 c-2 -13 -4 -5 -4 17 -1 22 1 32 4 23 2 -10 2 -28 0 -40z
m1755 5 c9 -10 6 -13 -17 -14 -54 -2 -105 7 -105 19 0 13 108 8 122 -5z
m-1072 -60 c85 -25 159 -48 163 -52 4 -5 -6 -14 -22 -21 -40 -16 -95 -78 -112
-124 -11 -31 -17 -36 -34 -31 -11 4 -33 9 -48 12 -36 7 -54 35 -69 109 -11 59
-46 128 -77 152 -14 12 -12 12 14 7 17 -4 100 -27 185 -52z m1944 -39 c25 -10
19 -34 -8 -34 -19 0 -23 4 -19 20 6 22 6 22 27 14z m-1397 -124 c25 -9 29 -15
25 -35 -5 -28 -7 -29 -51 -14 -23 8 -31 17 -31 35 0 27 12 29 57 14z m102 -31
c19 -7 31 -18 31 -28 0 -24 -38 -133 -50 -145 -18 -18 -10 -26 25 -26 37 0 45
-14 23 -42 -11 -14 -24 -16 -84 -9 -78 9 -94 15 -94 35 0 7 18 52 40 99 22 47
40 94 40 106 0 24 20 27 69 10z m125 -39 l29 -11 -6 -74 c-3 -45 -2 -73 4 -70
5 4 9 38 9 76 0 77 -4 75 68 48 27 -10 27 -11 1 -79 -26 -68 -52 -98 -96 -106
-49 -9 -63 8 -63 75 0 31 -6 81 -14 110 l-14 53 27 -5 c14 -3 39 -11 55 -17z
m1138 -155 c-17 -35 -30 -45 -57 -44 -17 0 -14 6 18 33 22 20 37 43 38 57 0
22 1 22 8 4 5 -13 3 -31 -7 -50z m-278 33 c-10 -13 -23 -26 -29 -30 -6 -4 -1
-8 9 -8 11 0 27 7 37 16 20 18 59 11 59 -11 0 -20 -21 -30 -31 -14 -5 8 -9 9
-9 3 0 -19 -30 -25 -71 -14 -28 8 -39 16 -39 30 0 23 36 50 69 50 24 0 24 0 5
-22z m-46 -75 c23 -9 42 -20 42 -25 0 -22 -142 -49 -154 -29 -5 8 -13 8 -27 0
-11 -5 -28 -9 -37 -7 -14 3 -13 7 8 25 13 13 21 25 18 28 -3 3 -17 -7 -31 -21
-19 -19 -27 -22 -27 -12 0 9 12 27 26 42 24 24 31 25 83 20 31 -3 75 -13 99
-21z m-2478 -177 c0 -7 -21 -40 -46 -72 -46 -58 -47 -59 -40 -24 4 20 22 50
43 72 42 43 43 43 43 24z"/>
<path d="M2315 4390 c-3 -5 1 -10 9 -10 9 0 16 5 16 10 0 6 -4 10 -9 10 -6 0
-13 -4 -16 -10z"/>
<path d="M2518 4363 c7 -3 16 -2 19 1 4 3 -2 6 -13 5 -11 0 -14 -3 -6 -6z"/>
<path d="M2475 4340 c-3 -5 -2 -10 4 -10 5 0 13 5 16 10 3 6 2 10 -4 10 -5 0
-13 -4 -16 -10z"/>
<path d="M2595 4310 c-3 -5 1 -10 10 -10 9 0 13 5 10 10 -3 6 -8 10 -10 10 -2
0 -7 -4 -10 -10z"/>
<path d="M2690 4310 c0 -5 5 -10 10 -10 6 0 10 5 10 10 0 6 -4 10 -10 10 -5 0
-10 -4 -10 -10z"/>
<path d="M2068 3958 c-22 -17 -56 -121 -64 -195 -10 -86 3 -60 26 53 11 55 29
111 40 127 23 30 22 33 -2 15z"/>
<path d="M2223 3829 c14 -8 22 -8 30 0 8 8 3 11 -18 11 -26 -1 -28 -2 -12 -11z"/>
<path d="M180 4075 c7 -9 15 -13 17 -11 7 7 -7 26 -19 26 -6 0 -6 -6 2 -15z"/>
<path d="M130 3820 c-12 -7 -12 -12 0 -35 13 -25 40 -31 46 -10 2 6 -4 20 -14
32 -12 16 -21 20 -32 13z"/>
<path d="M3320 3830 c0 -5 5 -10 10 -10 6 0 10 5 10 10 0 6 -4 10 -10 10 -5 0
-10 -4 -10 -10z"/>
<path d="M3234 3799 c-3 -6 -17 -9 -30 -6 -21 4 -24 0 -24 -23 0 -22 6 -30 30
-38 26 -10 32 -8 50 15 24 31 25 49 4 57 -21 8 -22 8 -30 -5z"/>
<path d="M3296 3772 c-8 -16 -22 -34 -30 -41 -21 -18 -20 -28 3 -34 24 -6 51
21 51 51 0 11 5 24 10 27 11 7 4 25 -10 25 -5 0 -16 -13 -24 -28z"/>
<path d="M3347 3773 c-4 -3 -7 -19 -7 -34 0 -15 -4 -31 -10 -34 -15 -10 -12
-35 5 -35 8 0 15 5 15 11 0 5 11 27 25 47 23 34 24 37 8 44 -24 9 -29 9 -36 1z"/>
<path d="M3386 3708 c-24 -40 -25 -44 -8 -55 9 -7 23 -18 30 -24 19 -16 36 4
55 61 18 53 15 60 -23 60 -23 0 -34 -8 -54 -42z"/>
<path d="M3136 3691 l-28 -29 22 -22 c12 -12 26 -20 33 -17 16 5 45 48 49 72
5 34 -42 32 -76 -4z"/>
<path d="M3222 3665 c-6 -14 -8 -25 -3 -25 4 0 13 -10 18 -22 10 -22 11 -21
27 16 18 44 19 41 -10 50 -16 5 -23 0 -32 -19z"/>
<path d="M2935 3646 c-28 -28 -32 -51 -11 -59 10 -4 21 8 34 34 23 47 12 60
-23 25z"/>
<path d="M3297 3663 c-4 -7 -14 -30 -21 -51 -14 -38 -13 -40 8 -50 21 -9 24
-6 38 39 11 38 12 49 2 49 -7 0 -14 5 -16 12 -3 9 -6 9 -11 1z"/>
<path d="M2981 3629 c-22 -36 -27 -59 -13 -59 12 0 47 78 39 86 -3 4 -15 -9
-26 -27z"/>
<path d="M3033 3639 c-6 -8 -19 -34 -29 -57 -14 -37 -15 -45 -3 -53 22 -14 25
-11 38 29 16 47 12 103 -6 81z"/>
<path d="M3346 3624 c-3 -9 -6 -28 -6 -42 1 -23 2 -25 11 -9 5 9 22 17 37 17
15 0 22 4 16 8 -6 4 -13 15 -17 25 -8 21 -33 22 -41 1z"/>
<path d="M2854 3573 c-4 -16 -13 -38 -20 -50 -14 -22 -4 -40 15 -29 15 10 43
77 37 92 -9 23 -25 16 -32 -13z"/>
<path d="M3430 3579 c0 -8 7 -22 14 -31 12 -16 14 -16 24 7 6 14 8 25 3 25 -5
0 -16 3 -25 6 -10 4 -16 1 -16 -7z"/>
<path d="M2900 3552 c0 -10 -7 -28 -16 -40 -8 -12 -12 -27 -9 -32 13 -21 32
-8 43 29 16 50 15 61 -3 61 -8 0 -15 -8 -15 -18z"/>
<path d="M2937 3519 c-3 -19 -8 -42 -12 -51 -4 -11 -3 -18 3 -18 15 0 33 70
23 88 -6 10 -10 5 -14 -19z"/>
<path d="M3268 3524 c3 -17 8 -22 15 -15 11 11 3 41 -11 41 -5 0 -7 -12 -4
-26z"/>
<path d="M2976 3512 c-2 -4 -7 -26 -11 -49 -8 -49 7 -59 23 -15 5 15 13 34 17
43 6 16 -20 36 -29 21z"/>
<path d="M3023 3477 c-17 -23 -33 -67 -24 -67 5 0 16 -3 24 -6 11 -4 16 5 19
36 4 44 -3 58 -19 37z"/>
<path d="M2796 3456 c-20 -31 -20 -36 -1 -36 19 0 40 39 27 52 -6 6 -15 0 -26
-16z"/>
<path d="M2840 3435 c-11 -20 -11 -27 0 -40 11 -14 15 -12 32 15 10 17 16 35
13 41 -11 17 -31 9 -45 -16z"/>
<path d="M2892 3410 c-31 -50 -9 -73 22 -25 12 18 14 31 7 42 -8 14 -12 12
-29 -17z"/>
<path d="M2755 3394 c-12 -13 -13 -20 -5 -28 8 -8 15 -6 26 8 26 36 10 51 -21
20z"/>
<path d="M2933 3380 c-21 -32 -22 -50 -4 -50 11 0 34 56 29 71 -2 7 -14 -3
-25 -21z"/>
<path d="M2796 3369 c-12 -18 -13 -26 -4 -37 10 -12 15 -11 30 8 10 13 17 28
15 33 -6 20 -25 18 -41 -4z"/>
<path d="M2967 3355 c-23 -48 -22 -52 13 -70 27 -14 30 -14 39 3 5 9 12 34 16
53 6 32 4 37 -17 42 -34 10 -33 10 -51 -28z"/>
<path d="M2841 3336 c-9 -11 -8 -15 5 -20 19 -7 47 11 38 25 -8 13 -30 11 -43
-5z"/>
<path d="M2894 3312 c-11 -17 -8 -42 4 -42 4 0 13 9 19 19 9 15 9 22 0 30 -9
7 -16 5 -23 -7z"/>
<path d="M2765 3303 c-8 -23 13 -42 25 -23 13 21 12 27 -4 33 -8 3 -17 -1 -21
-10z"/>
<path d="M2697 3290 c-6 -25 9 -36 29 -20 11 10 12 16 3 26 -16 19 -26 17 -32
-6z"/>
<path d="M2812 3283 c-7 -11 -6 -21 3 -30 19 -18 22 -17 34 17 9 26 8 30 -9
30 -10 0 -23 -8 -28 -17z"/>
<path d="M2931 3277 c-17 -17 -13 -41 11 -56 19 -12 23 -11 39 10 10 13 17 24
16 24 -1 1 -14 8 -28 17 -20 13 -29 14 -38 5z"/>
<path d="M3037 3275 c-4 -8 -2 -17 3 -20 6 -4 10 3 10 14 0 25 -6 27 -13 6z"/>
<path d="M2736 3254 c-4 -10 1 -25 11 -37 18 -19 18 -19 23 9 8 39 -21 61 -34
28z"/>
<path d="M2856 3254 c-10 -27 -7 -62 8 -67 9 -4 16 4 20 24 9 46 -13 81 -28
43z"/>
<path d="M2651 3236 c-24 -26 -27 -41 -6 -32 8 3 18 -2 23 -10 7 -12 11 -10
20 11 10 21 9 29 -2 40 -11 12 -17 11 -35 -9z m29 -6 c0 -5 -2 -10 -4 -10 -3
0 -8 5 -11 10 -3 6 -1 10 4 10 6 0 11 -4 11 -10z"/>
<path d="M2789 3242 c-5 -56 13 -118 31 -107 18 11 11 81 -10 100 -12 11 -20
13 -21 7z"/>
<path d="M2996 3218 c-12 -17 -13 -24 -3 -30 15 -9 52 26 43 41 -11 17 -23 13
-40 -11z"/>
<path d="M2900 3197 c0 -20 8 -41 19 -51 18 -16 19 -16 24 16 3 22 -1 39 -11
51 -23 26 -32 21 -32 -16z"/>
<path d="M2701 3194 c-10 -22 -8 -30 11 -54 13 -16 26 -29 29 -29 15 -2 16 75
1 92 -20 23 -27 22 -41 -9z"/>
<path d="M2606 3168 c-28 -45 -29 -82 -2 -107 24 -22 24 -22 30 -3 4 11 4 32
0 46 -5 20 -2 26 10 26 23 0 20 37 -4 50 -16 8 -22 6 -34 -12z"/>
<path d="M3037 3183 c-12 -11 -8 -22 12 -32 16 -9 17 -7 13 14 -4 25 -13 31
-25 18z"/>
<path d="M2960 3147 c0 -19 7 -40 16 -48 14 -11 15 -8 12 31 -4 53 -28 68 -28
17z"/>
<path d="M2847 3143 c-7 -33 9 -55 23 -33 13 19 9 52 -6 57 -6 2 -14 -9 -17
-24z"/>
<path d="M2662 3089 l-21 -59 25 -17 c28 -18 36 -13 52 35 9 27 9 40 -3 62
-23 45 -30 43 -53 -21z"/>
<path d="M3010 3109 c0 -39 18 -68 43 -69 16 0 7 83 -10 96 -28 21 -33 17 -33
-27z"/>
<path d="M2763 3109 c-10 -25 -9 -34 5 -50 9 -10 19 -19 23 -19 13 0 20 71 8
86 -17 20 -23 18 -36 -17z"/>
<path d="M3112 3123 c-11 -11 -11 -17 -2 -28 17 -20 30 -19 30 3 0 30 -13 42
-28 25z"/>
<path d="M2895 3120 c-3 -5 -1 -10 4 -10 6 0 11 -5 11 -11 0 -6 -7 -9 -15 -5
-23 8 -18 -22 5 -34 17 -9 22 -7 32 14 8 20 8 29 -2 41 -14 17 -26 19 -35 5z"/>
<path d="M2827 3084 c-12 -12 -8 -42 6 -47 9 -3 9 -7 -2 -20 -11 -14 -11 -20
0 -33 17 -21 26 -2 25 55 -1 41 -13 60 -29 45z"/>
<path d="M2945 3063 c-16 -24 -16 -26 4 -47 24 -26 28 -45 6 -26 -18 15 -17
16 -33 -29 -11 -32 -10 -37 10 -59 l23 -23 8 28 c5 15 10 39 11 53 2 14 7 46
11 71 8 56 -13 74 -40 32z"/>
<path d="M3080 3057 c0 -26 6 -39 26 -52 30 -19 34 -17 37 19 2 20 -6 31 -30
47 l-33 21 0 -35z"/>
<path d="M2551 3042 c-13 -31 -10 -84 5 -89 5 -1 19 15 31 36 l22 38 -23 22
-23 22 -12 -29z m19 -32 c0 -5 -4 -10 -10 -10 -5 0 -10 5 -10 10 0 6 5 10 10
10 6 0 10 -4 10 -10z"/>
<path d="M2728 3021 c-9 -23 -12 -39 -7 -35 5 3 8 2 7 -3 -3 -9 30 -59 35 -52
2 2 8 21 14 42 10 34 9 41 -11 64 l-22 25 -16 -41z"/>
<path d="M2877 3054 c-3 -5 -7 -29 -8 -54 -3 -39 -1 -45 16 -45 16 0 21 8 23
35 3 34 -20 82 -31 64z"/>
<path d="M3006 3034 c-11 -30 -6 -101 8 -113 12 -10 17 -6 25 26 16 55 13 81
-8 92 -15 8 -20 7 -25 -5z"/>
<path d="M2606 2988 c-23 -33 -20 -56 11 -72 27 -14 28 -13 50 26 22 38 22 41
6 54 -26 20 -50 17 -67 -8z"/>
<path d="M3061 2953 c-11 -46 -11 -57 0 -64 22 -13 24 -12 46 35 20 41 21 45
5 58 -35 30 -39 28 -51 -29z"/>
<path d="M2684 2933 c-25 -45 -22 -61 16 -90 l28 -23 15 43 c14 42 14 44 -12
76 l-27 32 -20 -38z"/>
<path d="M2785 2939 c-6 -25 -3 -36 15 -53 19 -18 22 -18 17 -3 -4 10 -3 16 2
13 10 -7 24 52 15 65 -13 22 -43 8 -49 -22z m45 11 c0 -5 -4 -10 -10 -10 -5 0
-10 5 -10 10 0 6 5 10 10 10 6 0 10 -4 10 -10z"/>
<path d="M3122 2915 c-12 -25 -22 -47 -22 -49 0 -3 21 -12 46 -22 51 -19 64
-12 64 37 0 21 -44 79 -61 79 -3 0 -15 -20 -27 -45z"/>
<path d="M3252 2935 c-7 -15 -11 -29 -10 -30 2 -1 13 -8 26 -14 20 -11 22 -9
22 12 0 13 -6 31 -13 41 -12 16 -14 16 -25 -9z"/>
<path d="M2502 2923 c-10 -24 -10 -30 7 -46 18 -18 19 -18 30 14 8 24 8 35 0
45 -16 20 -22 17 -37 -13z"/>
<path d="M2842 2898 c-9 -36 -8 -45 6 -61 15 -17 17 -16 30 29 14 50 11 74
-11 74 -9 0 -19 -18 -25 -42z"/>
<path d="M2556 2885 c-22 -45 -20 -56 14 -83 l30 -23 20 33 c29 49 26 71 -14
91 l-34 16 -16 -34z"/>
<path d="M2977 2893 c-3 -17 0 -34 8 -42 12 -12 16 -10 26 12 9 21 9 30 -1 42
-18 22 -27 19 -33 -12z"/>
<path d="M2891 2854 c-14 -55 -1 -81 24 -48 32 40 34 50 19 72 -22 32 -30 27
-43 -24z"/>
<path d="M2756 2855 c-20 -47 -20 -48 3 -69 19 -18 20 -17 35 19 20 47 20 48
-3 69 -19 18 -20 17 -35 -19z"/>
<path d="M3222 2853 c-10 -31 -8 -40 9 -65 11 -15 23 -28 25 -28 3 0 14 19 24
43 l19 42 -27 22 c-15 12 -30 22 -33 23 -3 0 -11 -16 -17 -37z"/>
<path d="M3024 2853 c-8 -23 -6 -34 12 -61 l22 -32 11 31 c15 45 14 76 -5 83
-25 10 -29 8 -40 -21z"/>
<path d="M2454 2845 c-17 -25 -16 -27 4 -48 l22 -21 18 24 c22 32 22 40 -5 57
-20 13 -23 12 -39 -12z"/>
<path d="M2640 2815 l-23 -47 32 -31 33 -32 16 24 c26 39 23 76 -8 106 l-28
26 -22 -46z"/>
<path d="M3096 2837 c-26 -93 -26 -85 6 -108 16 -12 30 -20 32 -18 15 21 46
83 46 92 0 17 -80 50 -84 34z"/>
<path d="M2936 2809 c-31 -36 -32 -41 -7 -63 18 -16 20 -15 44 26 18 31 22 47
15 56 -15 18 -24 15 -52 -19z"/>
<path d="M2817 2823 c-2 -5 -10 -25 -16 -45 -10 -31 -10 -41 3 -59 l15 -22 11
26 c5 15 15 39 20 53 7 19 7 30 -1 40 -13 15 -26 18 -32 7z"/>
<path d="M2512 2785 c-10 -22 -8 -29 15 -55 l26 -30 20 32 19 32 -26 23 c-34
29 -40 29 -54 -2z"/>
<path d="M2981 2760 c-24 -43 -21 -59 18 -94 26 -24 37 -14 45 39 6 40 -8 85
-30 92 -5 2 -20 -15 -33 -37z"/>
<path d="M3178 2756 c-16 -24 -28 -48 -28 -53 0 -11 43 -53 53 -53 4 0 17 21
27 46 l20 46 -21 29 c-11 16 -21 29 -22 29 -1 -1 -14 -20 -29 -44z"/>
<path d="M3287 2771 c-17 -29 -17 -30 5 -46 28 -19 34 -6 21 44 l-8 32 -18
-30z"/>
<path d="M2851 2736 c-19 -45 -21 -59 -11 -71 19 -23 26 -19 44 28 19 52 20
58 3 81 -12 17 -16 13 -36 -38z"/>
<path d="M2730 2765 c0 -9 -7 -26 -16 -40 -12 -18 -13 -28 -4 -44 15 -29 18
-27 40 21 14 32 16 45 7 60 -14 22 -27 23 -27 3z"/>
<path d="M2587 2718 l-19 -33 27 -22 c33 -29 36 -28 59 3 18 25 18 26 -10 55
-15 16 -30 29 -33 29 -3 0 -14 -15 -24 -32z"/>
<path d="M2892 2680 l-21 -50 22 -15 c21 -15 22 -14 35 27 25 87 -3 117 -36
38z"/>
<path d="M3066 2718 c-12 -40 -45 -137 -57 -166 -13 -31 -12 -34 17 -63 l31
-31 16 45 c8 25 13 55 10 65 -2 11 5 42 17 70 23 53 21 65 -11 82 -14 8 -20 8
-23 -2z"/>
<path d="M3241 2678 l-21 -52 27 -29 c42 -43 62 -51 82 -33 35 32 10 112 -48
153 -17 11 -21 8 -40 -39z"/>
<path d="M2761 2684 c-11 -31 -11 -38 5 -55 9 -10 20 -19 24 -19 12 0 18 73 8
93 -13 26 -23 21 -37 -19z"/>
<path d="M2943 2640 c-10 -49 -9 -51 17 -70 16 -11 31 -20 34 -20 3 0 11 18
17 40 12 40 12 42 -20 70 -18 17 -34 30 -35 30 -2 0 -8 -23 -13 -50z"/>
<path d="M2661 2651 l-20 -28 20 -19 c17 -16 22 -16 30 -4 28 42 30 51 18 66
-17 20 -25 18 -48 -15z"/>
<path d="M3117 2645 c-9 -20 -17 -50 -17 -66 0 -17 -8 -53 -17 -79 -14 -40
-15 -51 -4 -64 7 -9 19 -16 25 -16 7 0 33 46 59 103 l48 102 -33 28 c-18 15
-35 27 -38 27 -4 0 -14 -16 -23 -35z"/>
<path d="M2820 2659 c0 -9 -3 -30 -6 -46 -5 -23 -2 -32 11 -37 22 -8 25 -5 30
27 3 15 -2 34 -15 48 -15 19 -19 20 -20 8z"/>
<path d="M2716 2608 c-21 -30 -21 -33 14 -58 l29 -21 17 26 c16 25 16 27 -6
50 -29 31 -35 31 -54 3z"/>
<path d="M3206 2578 c-8 -13 -20 -35 -27 -51 -12 -25 -10 -30 22 -63 l34 -35
23 28 c32 39 55 83 43 83 -6 0 -26 14 -45 31 l-35 30 -15 -23z"/>
<path d="M3345 2560 c-18 -20 -18 -21 15 -55 l34 -35 18 32 c21 40 22 48 4 48
-7 0 -19 7 -26 15 -16 20 -23 19 -45 -5z"/>
<path d="M2782 2540 c-23 -29 -23 -30 -5 -55 15 -20 33 -32 33 -22 0 1 7 20
14 42 10 28 11 44 4 53 -15 17 -20 15 -46 -18z"/>
<path d="M2917 2533 c-6 -32 -2 -42 18 -62 l24 -25 11 28 c15 42 12 63 -12 80
-32 22 -35 21 -41 -21z"/>
<path d="M2677 2521 c-22 -48 -21 -64 1 -84 16 -15 20 -14 45 19 32 39 30 63
-7 87 -22 15 -23 14 -39 -22z"/>
<path d="M3443 2527 c-5 -6 -14 -24 -20 -39 -11 -24 -9 -28 29 -53 22 -15 41
-25 43 -23 2 2 8 21 14 43 9 34 9 42 -7 53 -35 27 -50 32 -59 19z"/>
<path d="M3292 2478 c-18 -23 -32 -46 -32 -51 0 -11 48 -69 66 -80 9 -5 21 7
39 42 14 28 25 56 25 64 0 12 -50 67 -61 67 -3 0 -19 -19 -37 -42z"/>
<path d="M2984 2484 c-4 -10 -18 -45 -31 -76 -25 -56 -25 -57 -7 -82 11 -14
22 -26 26 -26 15 0 36 64 25 78 -7 9 -6 11 4 7 9 -3 22 7 33 26 l18 31 -30 31
c-29 29 -32 29 -38 11z"/>
<path d="M2737 2452 c-33 -35 -33 -39 2 -81 27 -30 30 -32 39 -15 21 42 23 90
4 107 -17 16 -20 15 -45 -11z"/>
<path d="M3140 2444 l-22 -35 21 -23 c11 -12 21 -27 21 -33 0 -6 6 -14 13 -16
9 -4 9 -6 0 -6 -7 -1 -18 11 -25 26 -19 40 -33 38 -53 -6 l-18 -40 34 -40 c19
-22 37 -40 41 -40 10 -2 78 147 78 173 0 20 -26 52 -57 70 -6 3 -20 -9 -33
-30z"/>
<path d="M3040 2400 l-23 -32 26 -26 26 -26 17 39 c11 26 13 44 7 54 -16 26
-30 23 -53 -9z"/>
<path d="M2667 2361 c-15 -22 -27 -42 -27 -44 0 -2 13 -13 30 -25 28 -21 32
-22 60 -7 39 20 38 43 -3 83 l-34 33 -26 -40z"/>
<path d="M2892 2284 l-23 -45 25 -30 25 -29 25 43 c15 24 26 48 26 54 0 9 -42
53 -51 53 -2 0 -14 -21 -27 -46z"/>
<path d="M2738 2282 c-33 -20 -35 -33 -9 -56 18 -16 20 -15 40 19 19 33 21 56
3 54 -4 0 -19 -8 -34 -17z"/>
<path d="M1792 3578 c-19 -19 -14 -30 8 -18 11 6 20 15 20 20 0 14 -14 12 -28
-2z"/>
<path d="M1786 3524 c-3 -8 -10 -13 -15 -10 -5 3 -11 -1 -15 -9 -7 -20 1 -19
30 4 14 11 20 22 15 25 -5 3 -12 -1 -15 -10z"/>
<path d="M2445 3180 c-3 -5 -2 -10 4 -10 5 0 13 5 16 10 3 6 2 10 -4 10 -5 0
-13 -4 -16 -10z"/>
<path d="M2076 2858 c4 -7 20 -29 35 -48 40 -52 53 -98 41 -143 -12 -42 -7
-46 19 -15 l19 21 0 -22 c0 -12 -4 -29 -10 -39 -12 -21 -29 -143 -20 -137 4 3
13 26 20 52 6 27 17 60 22 76 8 19 7 40 -1 70 -7 23 -14 58 -16 77 -3 27 -15
45 -52 78 -47 41 -72 54 -57 30z"/>
<path d="M258 2674 c12 -8 20 -20 17 -25 -4 -5 1 -9 9 -9 8 0 18 5 21 10 3 6
-1 10 -10 10 -8 0 -18 7 -21 15 -4 8 -13 15 -22 15 -13 0 -11 -4 6 -16z"/>
<path d="M99 2534 l-23 -25 32 -32 32 -32 31 31 30 31 -39 26 -40 26 -23 -25z"/>
<path d="M177 2462 l-26 -27 21 -33 21 -33 28 27 c34 32 36 54 11 77 -24 22
-24 22 -55 -11z"/>
<path d="M112 2397 c-29 -30 -28 -68 2 -96 23 -22 25 -22 50 -6 33 22 34 61 1
98 -13 15 -26 27 -28 27 -2 0 -13 -10 -25 -23z"/>
<path d="M233 2390 c-13 -15 -23 -35 -23 -42 0 -13 40 -58 51 -58 3 0 16 23
29 51 24 50 24 51 5 65 -26 20 -37 17 -62 -16z"/>
<path d="M188 2301 c-9 -9 -24 -22 -33 -29 -15 -13 -15 -16 -1 -31 9 -10 16
-23 16 -29 0 -27 49 -6 73 31 15 23 14 26 -11 49 -25 23 -28 24 -44 9z"/>
<path d="M307 4546 c-84 -23 -150 -111 -128 -169 22 -57 119 -128 173 -126 15
0 8 5 -20 14 -56 17 -105 56 -126 98 -24 51 -20 72 19 115 38 43 87 62 160 62
55 0 56 5 5 13 -19 3 -57 0 -83 -7z"/>
<path d="M229 4439 c-16 -17 -29 -36 -29 -42 0 -6 15 7 34 29 32 37 36 38 58
25 21 -13 22 -13 9 2 -20 25 -39 21 -72 -14z"/>
<path d="M302 4410 c0 -14 2 -19 5 -12 2 6 2 18 0 25 -3 6 -5 1 -5 -13z"/>
<path d="M310 4371 c0 -6 4 -13 10 -16 6 -3 7 1 4 9 -7 18 -14 21 -14 7z"/>
<path d="M1251 4314 c0 -11 3 -14 6 -6 3 7 2 16 -1 19 -3 4 -6 -2 -5 -13z"/>
<path d="M1040 4307 c0 -5 9 -20 20 -34 11 -14 20 -22 20 -17 -1 12 -39 61
-40 51z"/>
<path d="M630 4180 c-9 -6 -10 -10 -3 -10 6 0 15 5 18 10 8 12 4 12 -15 0z"/>
<path d="M990 4035 c-14 -8 -20 -14 -14 -15 5 0 19 7 30 15 24 18 16 19 -16 0z"/>
<path d="M684 4008 l-29 -33 33 29 c17 17 32 31 32 33 0 8 -8 1 -36 -29z"/>
<path d="M955 3995 c-16 -7 -23 -14 -15 -14 8 0 29 6 45 14 17 7 23 14 15 14
-8 0 -28 -6 -45 -14z"/>
<path d="M940 3963 c-8 -2 -21 -7 -29 -9 -8 -2 -12 -7 -9 -9 3 -3 22 1 44 9
35 13 30 21 -6 9z"/>
<path d="M762 3919 c5 -24 7 -78 4 -119 -4 -64 -4 -69 5 -35 12 45 5 173 -10
188 -6 6 -6 -7 1 -34z"/>
<path d="M1148 3925 c-20 -13 -61 -33 -92 -42 -55 -18 -77 -35 -33 -27 21 5
21 4 -3 -13 -72 -51 -220 -216 -207 -229 2 -3 33 28 68 67 49 56 78 79 126
101 35 15 66 28 70 28 5 0 -20 -30 -55 -67 -66 -71 -127 -147 -158 -198 -24
-40 -8 -24 53 55 28 36 91 104 141 152 49 48 88 89 85 92 -3 2 -29 -4 -59 -14
-30 -11 -54 -18 -54 -16 0 2 107 90 149 123 29 22 6 14 -31 -12z"/>
<path d="M920 3915 c-13 -13 -31 -27 -42 -31 -10 -3 -18 -10 -18 -15 0 -15 59
23 76 48 19 30 13 29 -16 -2z"/>
<path d="M590 3841 c0 -11 4 -22 9 -25 4 -3 6 6 3 19 -5 30 -12 33 -12 6z"/>
<path d="M827 3781 c-32 -33 -57 -67 -57 -76 0 -9 26 13 60 52 53 59 69 83 57
83 -2 0 -29 -27 -60 -59z"/>
<path d="M453 3632 c14 -15 15 -21 5 -25 -8 -3 -1 -9 16 -16 16 -6 30 -10 32
-8 7 6 -27 47 -49 58 -22 12 -22 11 -4 -9z"/>
<path d="M1207 3608 c-22 -61 -59 -199 -55 -204 3 -2 15 32 27 76 13 44 26 80
30 80 3 0 7 -26 8 -58 1 -31 6 -68 11 -82 l10 -25 10 25 c6 17 6 27 -2 32 -7
5 -11 43 -11 103 0 52 -3 95 -6 95 -4 0 -13 -19 -22 -42z"/>
<path d="M944 3571 c-34 -21 -65 -44 -69 -50 -4 -7 26 9 67 35 83 53 85 54 72
54 -5 0 -37 -18 -70 -39z"/>
<path d="M667 3503 c-25 -48 -62 -104 -81 -122 -44 -43 -47 -32 -5 20 32 41
79 130 79 151 0 7 -12 -12 -27 -41 -15 -29 -42 -69 -60 -90 -32 -35 -33 -35
-48 -17 -15 20 -15 20 -15 0 0 -11 9 -48 21 -83 l21 -62 47 6 c42 6 44 5 22
-7 -46 -25 -38 -40 17 -32 l51 6 16 -38 c18 -41 20 -66 10 -124 -4 -28 0 -41
18 -63 l24 -29 21 36 c17 29 21 51 20 128 0 51 -5 101 -10 111 -6 12 -5 23 3
33 14 17 8 17 -42 3 -50 -15 -74 -7 -59 21 l11 21 -37 -20 c-21 -11 -40 -19
-42 -16 -2 2 6 18 18 34 25 37 90 174 90 193 0 7 -18 -24 -41 -68 -39 -79
-101 -164 -120 -164 -20 0 -7 33 21 57 29 24 138 229 127 239 -2 3 -25 -35
-50 -83z"/>
<path d="M940 3493 c-41 -20 -70 -38 -63 -40 11 -4 65 21 126 57 51 31 19 22
-63 -17z"/>
<path d="M731 3386 l-24 -13 31 -5 c24 -3 29 -2 21 8 -7 8 -6 14 3 17 7 3 9 6
3 6 -5 0 -21 -6 -34 -13z"/>
<path d="M1141 3374 c0 -11 3 -14 6 -6 3 7 2 16 -1 19 -3 4 -6 -2 -5 -13z"/>
<path d="M764 3335 c-10 -8 -14 -15 -8 -15 6 0 17 7 24 15 16 19 9 19 -16 0z"/>
<path d="M945 3304 c4 -10 10 -31 13 -46 4 -24 20 -35 118 -83 89 -43 117 -61
129 -85 9 -17 26 -41 38 -53 12 -12 22 -28 22 -36 0 -7 10 -20 23 -28 12 -9
22 -13 22 -10 0 4 -10 16 -22 28 -15 14 -17 20 -7 16 13 -4 15 3 13 39 -2 32
1 44 11 44 12 0 12 6 0 40 -8 22 -12 47 -9 55 4 10 0 15 -14 15 -31 0 -38 21
-14 39 14 10 19 21 13 29 -7 11 -15 11 -45 -2 -35 -15 -40 -14 -116 14 -44 16
-103 32 -131 36 -49 7 -52 6 -44 -12z m289 -82 c6 -10 -30 -9 -40 1 -4 4 2 7
14 7 11 0 23 -4 26 -8z"/>
<path d="M1640 3170 c0 -5 7 -10 15 -10 8 0 15 5 15 10 0 6 -7 10 -15 10 -8 0
-15 -4 -15 -10z"/>
<path d="M850 2979 c0 -45 -6 -71 -21 -95 -12 -20 -16 -34 -9 -34 6 0 9 -4 6
-9 -4 -5 -3 -11 1 -13 5 -1 17 -20 27 -41 l20 -38 20 21 c27 26 33 161 10 200
-9 14 -13 17 -10 8 3 -10 1 -20 -3 -22 -5 -3 -11 12 -15 34 -10 64 -26 58 -26
-11z"/>
<path d="M736 2730 c-17 -35 -15 -35 25 -15 26 14 28 18 15 30 -20 20 -22 19
-40 -15z"/>
<path d="M957 2720 c-11 -42 -8 -59 22 -124 19 -41 36 -65 50 -69 20 -5 20 -4
4 32 -13 29 -50 128 -66 176 -2 5 -6 -2 -10 -15z"/>
<path d="M770 2700 c0 -5 4 -10 9 -10 6 0 13 5 16 10 3 6 -1 10 -9 10 -9 0
-16 -4 -16 -10z"/>
<path d="M800 2655 c-12 -32 -12 -35 -2 -35 14 0 33 48 22 55 -6 4 -15 -6 -20
-20z"/>
<path d="M731 2586 c-9 -11 -9 -16 0 -21 10 -7 28 10 29 28 0 12 -17 8 -29 -7z"/>
<path d="M510 2548 c0 -15 18 -17 30 -3 9 11 8 14 -9 12 -12 -1 -21 -5 -21 -9z"/>
<path d="M845 2540 c3 -5 8 -10 11 -10 2 0 4 5 4 10 0 6 -5 10 -11 10 -5 0 -7
-4 -4 -10z"/>
<path d="M874 2515 c-4 -8 -12 -15 -20 -15 -8 0 -14 -5 -14 -11 0 -6 -9 -8
-20 -4 -24 8 -27 -10 -4 -19 9 -4 14 -9 11 -13 -11 -10 14 -33 36 -33 16 0 18
-3 9 -12 -16 -16 -15 -28 2 -28 8 0 13 -7 12 -16 0 -11 12 -22 34 -30 35 -13
110 -19 110 -9 0 14 -45 65 -57 65 -7 0 -10 6 -6 16 4 12 0 14 -23 9 -24 -5
-26 -4 -11 5 17 11 16 13 -5 35 -17 18 -29 22 -52 18 l-30 -6 22 23 c12 13 22
27 22 32 0 13 -10 9 -16 -7z"/>
<path d="M1280 2510 c0 -5 5 -10 10 -10 6 0 10 5 10 10 0 6 -4 10 -10 10 -5 0
-10 -4 -10 -10z"/>
<path d="M946 2255 c25 -43 29 -46 112 -71 48 -15 92 -28 97 -31 6 -3 -1 5
-15 16 -14 11 -30 21 -36 21 -5 0 -18 6 -28 13 -16 12 -17 16 -5 35 20 32 -3
48 -83 56 l-67 6 25 -45z"/>
<path d="M607 2158 l-58 -63 85 -26 c47 -15 97 -24 111 -21 14 2 25 1 24 -4
-3 -21 2 -26 15 -15 11 10 18 8 34 -9 14 -15 26 -19 44 -15 18 5 27 2 31 -9 7
-17 47 -22 47 -6 0 18 22 10 27 -10 3 -13 17 -22 39 -26 28 -5 33 -10 29 -25
-5 -13 5 -30 33 -56 67 -64 66 -134 -3 -179 -15 -10 -55 -19 -98 -21 -49 -4
-76 -10 -84 -21 -11 -14 -17 -14 -54 1 -30 12 -46 14 -55 6 -9 -8 -19 -4 -36
13 -15 15 -34 23 -60 23 -21 0 -38 4 -38 11 0 6 -17 16 -37 22 -32 10 -40 9
-57 -6 -18 -16 -19 -16 -14 4 5 19 -3 24 -66 44 -39 12 -96 31 -126 42 l-54
19 -103 -106 c-57 -59 -103 -109 -103 -110 0 -3 187 -63 405 -131 108 -33 127
-36 193 -30 148 12 330 71 437 141 49 32 115 91 115 101 0 5 -31 52 -52 79
-34 43 -138 198 -138 206 0 5 -4 9 -10 9 -5 0 -10 7 -10 16 0 8 -15 35 -34 60
-19 25 -36 49 -38 55 -2 5 -59 26 -128 48 -69 22 -132 42 -140 45 -10 4 -34
-14 -73 -56z m28 -678 c3 -5 2 -10 -4 -10 -5 0 -13 5 -16 10 -3 6 -2 10 4 10
5 0 13 -4 16 -10z"/>
<path d="M1020 2154 c0 -5 24 -22 53 -38 70 -40 158 -130 192 -197 24 -45 28
-67 29 -139 1 -61 6 -92 18 -109 l16 -23 7 24 c4 12 17 33 28 46 13 14 16 22
8 22 -7 0 -11 6 -8 14 3 8 -1 17 -9 20 -9 3 -13 10 -9 15 3 5 -4 12 -15 16
-11 4 -18 10 -16 14 7 10 -15 71 -37 104 -9 14 -17 29 -17 33 0 4 -11 22 -25
40 -14 18 -25 36 -25 40 0 25 -56 83 -93 97 -60 23 -97 30 -97 21z"/>
<path d="M530 2070 c8 -5 20 -10 25 -10 6 0 3 5 -5 10 -8 5 -19 10 -25 10 -5
0 -3 -5 5 -10z"/>
<path d="M1080 2069 c0 -19 49 -99 61 -99 6 0 8 -3 5 -8 -2 -4 14 -34 36 -67
22 -33 47 -75 56 -92 22 -47 36 -41 29 12 -7 51 -43 127 -82 173 -36 43 -105
96 -105 81z"/>
<path d="M571 2056 c10 -10 250 -88 255 -83 3 3 -51 24 -120 46 -119 39 -144
46 -135 37z"/>
<path d="M421 1966 l-82 -82 173 -53 c95 -29 181 -55 192 -58 18 -5 18 -4 2
18 -36 52 -10 123 55 150 l32 13 -119 39 c-65 21 -131 42 -145 47 -24 7 -34 0
-108 -74z"/>
<path d="M1371 2037 c28 -22 41 -55 29 -77 -8 -15 -8 -20 2 -20 8 0 14 -15 15
-40 0 -22 5 -46 11 -53 18 -23 24 -70 10 -78 -8 -5 9 -9 42 -9 30 0 64 -3 76
-6 19 -5 23 1 37 58 9 35 23 84 31 110 l15 47 -124 41 c-129 42 -174 50 -144
27z m229 -68 l25 -8 -26 2 c-14 1 -32 -3 -40 -9 -8 -7 -22 -8 -34 -4 -19 8
-19 8 5 18 30 13 37 13 70 1z"/>
<path d="M800 1920 c-37 -9 -80 -51 -80 -78 0 -27 38 -82 64 -92 13 -5 39 -12
58 -15 34 -7 36 -5 63 47 15 29 36 67 46 84 l18 31 -53 16 c-58 19 -64 19
-116 7z"/>
<path d="M965 1807 c-62 -112 -62 -107 -5 -107 27 0 60 4 74 10 34 13 60 54
52 84 -7 29 -53 86 -69 86 -7 0 -30 -33 -52 -73z"/>
<path d="M320 1857 c0 -7 454 -157 473 -157 40 0 -63 41 -231 93 -214 65 -242
72 -242 64z"/>
<path d="M1456 1721 c-17 -6 -17 -8 -4 -14 10 -3 16 -18 16 -40 0 -29 -4 -36
-25 -42 -29 -7 -32 -5 -38 24 -6 34 -16 45 -26 30 -15 -24 -10 -65 12 -93 19
-25 87 -66 107 -66 10 0 62 155 62 183 0 25 -59 36 -104 18z m18 -120 c3 -5
-3 -11 -14 -14 -22 -6 -37 8 -18 16 20 8 26 8 32 -2z m6 -51 c0 -5 -7 -7 -15
-4 -8 4 -15 8 -15 10 0 2 7 4 15 4 8 0 15 -4 15 -10z"/>
<path d="M1575 1643 c-9 -37 -21 -81 -26 -97 -12 -39 -5 -46 50 -46 69 0 107
16 124 52 29 59 -18 124 -109 152 -20 6 -23 0 -39 -61z m110 -31 c-3 -3 -11 0
-18 7 -9 10 -8 11 6 5 10 -3 15 -9 12 -12z"/>
<path d="M1198 1615 c-70 -65 -150 -105 -283 -141 -55 -14 -107 -29 -115 -32
-19 -6 -29 -8 -113 -21 -66 -11 -73 -10 -175 24 -59 19 -187 59 -284 89 l-177
53 -25 -26 c-39 -40 -34 -57 21 -71 27 -6 152 -43 278 -81 127 -38 268 -81
315 -95 47 -14 141 -43 210 -64 69 -21 177 -55 240 -74 63 -19 152 -46 198
-60 46 -14 87 -26 91 -26 5 0 14 21 20 48 7 26 21 76 32 112 32 112 34 135 10
159 -12 12 -21 26 -21 31 0 6 -4 10 -10 10 -5 0 -10 7 -10 15 0 8 -4 15 -10
15 -5 0 -21 20 -35 45 -15 24 -42 58 -61 74 -20 18 -31 36 -28 45 12 32 -14
21 -68 -29z m-402 -236 c8 -14 -20 -10 -41 5 -18 13 -18 14 8 9 15 -3 30 -9
33 -14z m54 -34 c0 -11 -7 -14 -25 -9 -15 4 -25 2 -25 -5 0 -6 -7 -11 -15 -11
-12 0 -12 3 3 19 21 24 62 27 62 6z m66 -62 c-10 -10 -19 5 -10 18 6 11 8 11
12 0 2 -7 1 -15 -2 -18z m81 11 c-3 -3 -12 -4 -19 -1 -8 3 -5 6 6 6 11 1 17
-2 13 -5z m46 -23 c3 -14 0 -17 -14 -14 -10 3 -15 11 -12 19 7 20 20 17 26 -5z
m117 -27 c0 -8 -9 -14 -20 -14 -19 0 -27 19 -14 33 10 9 34 -4 34 -19z"/>
<path d="M1411 1507 c5 -12 12 -30 15 -39 4 -10 10 -18 14 -18 5 0 12 -9 15
-20 10 -31 22 -24 32 18 10 37 9 39 -21 52 -17 7 -39 17 -48 21 -14 7 -16 5
-7 -14z"/>
<path d="M1548 1352 c-26 -17 -27 -19 -12 -40 12 -17 19 -20 34 -12 30 16 57
12 85 -13 47 -39 0 -81 -62 -55 -15 6 -31 11 -35 10 -5 -1 -7 1 -7 6 1 4 1 14
0 22 -1 11 -4 11 -13 2 -18 -18 -27 -14 -20 10 3 14 2 19 -6 14 -23 -14 -13
-63 18 -94 63 -64 175 -46 194 31 13 50 -1 86 -43 114 -41 28 -96 30 -133 5z
m52 -142 c0 -5 -4 -10 -9 -10 -6 0 -13 5 -16 10 -3 6 1 10 9 10 9 0 16 -4 16
-10z"/>
</g>
</svg>
