<?xml version="1.0" encoding="UTF-8" standalone="no"?>
<svg xmlns:dc="http://purl.org/dc/elements/1.1/" xmlns:cc="http://creativecommons.org/ns#" xmlns:rdf="http://www.w3.org/1999/02/22-rdf-syntax-ns#" xmlns:svg="http://www.w3.org/2000/svg" xmlns="http://www.w3.org/2000/svg" xmlns:sodipodi="http://sodipodi.sourceforge.net/DTD/sodipodi-0.dtd" xmlns:inkscape="http://www.inkscape.org/namespaces/inkscape" width="1053.0592" height="614.2641" id="svg2985" version="1.1" inkscape:version="0.48.5 r10040" sodipodi:docname="NBA_Secondary_Logo.jpg.svg">
  <metadata id="metadata3011">
    <rdf:RDF>
      <cc:Work rdf:about="">
        <dc:format>image/svg+xml</dc:format>
        <dc:type rdf:resource="http://purl.org/dc/dcmitype/StillImage" />
        <dc:title></dc:title>
      </cc:Work>
    </rdf:RDF>
  </metadata>
  <defs id="defs3009" />
  <sodipodi:namedview pagecolor="#ffffff" bordercolor="#666666" borderopacity="1" objecttolerance="10" gridtolerance="10" guidetolerance="10" inkscape:pageopacity="0" inkscape:pageshadow="2" inkscape:window-width="1366" inkscape:window-height="706" id="namedview3007" showgrid="false" inkscape:zoom="0.28579418" inkscape:cx="-408.08834" inkscape:cy="-292.41457" inkscape:window-x="-8" inkscape:window-y="-8" inkscape:window-maximized="1" inkscape:current-layer="svg2985" inkscape:object-paths="false" fit-margin-top="0" fit-margin-left="0" fit-margin-right="0" fit-margin-bottom="0" />
  <g id="g3063" style="fill:white" transform="matrix(1.9496062,0,0,1.9496062,-581.90308,554.96308)">
    <g id="g3122" transform="translate(0,-378.68855)">
      <g transform="matrix(0.7048565,0,0,0.7048565,298.47211,94.034611)" id="g3029">
        <path inkscape:connector-curvature="0" style="fill:white" d="m 46,0 105,0 c 25.484,0 46,20.516 46,46 l 0,355 c 0,25.484 -20.516,46 -46,46 L 46,447 C 20.516,447 0,426.484 0,401 L 0,46 C 0,20.516 20.516,0 46,0 z" id="rect2987" />
        <path inkscape:connector-curvature="0" d="m 124.92,81.936 0.146,1.512 c 3.168,1.872 4.824,3.384 8.063,5.472 8.496,5.4 18.938,14.976 17.641,47.88 2.447,7.2 3.528,21.24 5.688,25.704 4.393,8.856 7.416,14.616 8.712,22.896 0,0 1.297,12.96 2.952,13.896 8.783,2.016 6.265,2.88 7.488,4.464 1.367,1.728 6.479,1.656 6.479,6.408 1.801,2.376 3.169,4.752 4.104,7.344 V 46.368 c 0,-19.584 -15.84,-35.424 -35.353,-35.424 h -33.769 c 5.4,1.944 8.496,4.248 10.297,7.848 4.318,0.36 9.433,10.08 1.439,24.552 3.527,2.448 0.791,6.048 -1.729,10.152 -0.792,1.296 -1.584,3.672 -3.96,3.528 -3.168,6.552 -6.841,12.744 -9.647,13.104 -0.791,1.008 -1.369,3.816 -0.145,5.112 4.107,1.872 9.073,4.32 11.594,6.696 z" id="path2989" style="fill:#c80f2e;fill-opacity:1" />
        <path inkscape:connector-curvature="0" d="m 156.456,435.599 -0.359,0.072 c 15.479,-9.432 5.903,-27.287 2.952,-37.799 l 0.575,-1.802 c 0.792,-1.44 -0.863,-4.823 -0.863,-4.823 -1.943,-1.584 -2.376,-10.367 -3.385,-14.399 -1.654,-6.552 2.952,-18 2.952,-21.888 0,-3.89 -2.952,-9.217 -8.279,-15.984 -1.297,-1.512 -5.185,-34.704 -8.641,-43.128 -4.824,-11.593 -6.265,-9.722 -12.023,-23.616 -4.393,-9.721 -0.937,-24.048 -10.872,-57.312 l 2.231,-2.088 c 0,0 -7.92,-28.944 -10.513,-36.864 -2.521,-7.92 -7.199,-8.424 -7.199,-8.424 l 0.287,-4.104 c 0.361,-1.224 9.648,-25.344 10.44,-26.136 0.071,-0.504 13.392,-9.648 13.607,-8.28 1.079,5.904 6.264,35.928 8.495,40.68 2.232,4.824 9.938,19.512 13.465,28.656 -13.752,3.384 -24.049,15.84 -24.049,30.601 0,17.424 14.113,31.607 31.537,31.607 13.318,0 24.84,-8.279 29.447,-19.943 l -0.072,160.057 c 0.003,17.71 -12.741,32.325 -29.733,34.917 z" id="path2991" style="fill:#c80f2e;fill-opacity:1" />
        <path inkscape:connector-curvature="0" d="m 105.983,10.944 c -11.52,4.464 -13.104,9.432 -13.535,25.416 -1.944,0.216 -5.977,-1.656 -4.608,8.064 0,0 0.72,6.48 3.312,5.4 -2.016,14.112 -0.414,17.644 -9.791,18.648 -2.016,0.216 -4.465,0.36 -7.488,0.504 l -0.936,1.296 c -12.816,1.224 -19.164,0.405 -27.433,11.304 -3.168,4.176 -6.552,10.08 -10.728,18.504 0,0 -3.816,9.432 -4.969,13.32 -3.672,7.704 -12.672,24.768 -15.336,35.712 -0.863,3.744 -2.52,4.896 -0.144,10.296 3.528,7.776 -2.304,9.792 17.712,9.216 v 4.608 c 0,0 -5.328,4.608 -6.48,7.344 -1.08,2.808 -4.176,16.56 -4.031,23.112 0.359,17.064 14.256,31.319 18.359,48.312 l 9.288,1.297 c 5.04,11.592 27.072,42.838 32.185,47.879 0.072,0.072 0.144,0.145 0.216,0.217 1.151,2.951 6.84,6.624 10.151,10.296 2.017,1.944 11.306,12.024 23.689,21.601 4.546,3.515 9.434,6.983 14.544,9.936 -0.144,-0.073 3.024,6.264 4.608,11.447 -6.336,5.111 5.976,14.473 9.72,29.953 0.216,2.086 -3.601,4.176 2.088,9.287 -0.36,23.398 -7.487,35.641 4.464,42.119 H 45.504 C 26.353,435.6 10.872,419.905 10.872,400.68 V 46.368 C 10.872,27 26.352,11.376 45.504,10.944 h 60.479 z" id="path2993" style="fill:#1d4289;fill-opacity:1" />
      </g>
      <g transform="matrix(5.917629,0,0,6.6180124,-1431.5389,-2152.8646)" id="g3102" style="fill:#1d4289;fill-opacity:1">
        <path sodipodi:nodetypes="ccccccccccc" inkscape:connector-curvature="0" id="rect3035" d="m 322.125,340.65625 0,45.24323 5.46863,0 c 0.0143,-11.65132 0.30975,-23.34961 -0.49205,-34.86462 l 6.30467,34.86462 7.84665,0 0,-45.24323 -5.41495,0 c -0.11031,11.99587 0.36604,23.82412 1.27575,35.52855 l -6.5512,-35.52855 z" style="fill:#1d4289;fill-opacity:1;fill-rule:evenodd;stroke:none" />
        <path inkscape:connector-curvature="0" id="rect3043" d="m 369.53125,340.625 -5.375,45.28125 6.6875,0 0.875,-9.15625 4.375,0 0.875,9.15625 6.65625,0 -5.21875,-45.28125 -8.875,0 z m 4.375,12.78125 1.6875,18.03125 -3.375,0 1.6875,-18.03125 z" style="fill:#1d4289;fill-opacity:1;fill-rule:evenodd;stroke:none" />
        <path inkscape:connector-curvature="0" id="path3059" d="m 345.46875,340.65625 0,45.21875 9.78125,0 c 1.6033,0 7.0625,-1.25282 7.0625,-7.53125 l 0,-9.03125 c 0,-0.95158 0.009,-3.93474 -2.90625,-5.6875 1.8216,0 2.90625,-3.15993 2.90625,-6.03125 l 0,-9.6875 c 0,-3.77454 -2.62746,-7.26027 -7.90625,-7.25 l -8.9375,0 z m 6.03125,5.78125 2.96875,0 c 1.35994,0 1.8125,1.34249 1.8125,2.375 l 0,10.53125 c 0,1.80138 -0.66228,1.9375 -2.03125,1.9375 l -2.75,0 0,-14.84375 z m 0,19.78125 2.96875,0 c 1.35994,0 1.8125,1.34249 1.8125,2.375 l 0,9.40625 c 0,1.22559 -0.68333,2.15625 -2.03125,2.15625 l -2.75,0.0312 0,-13.96875 z" style="fill:#1d4289;fill-opacity:1;stroke:none" />
      </g>
    </g>
  </g>
</svg>
