<svg id="svg" version="1.1" xmlns="http://www.w3.org/2000/svg" xmlns:xlink="http://www.w3.org/1999/xlink" width="400" height="308.1081081081081" viewBox="0, 0, 400,308.1081081081081"><g id="svgg"><path id="path0" d="M345.946 29.333 L 345.946 57.894 338.417 52.811 C 258.588 -1.082,149.025 41.432,125.946 135.257 C 108.798 204.969,148.530 277.308,216.430 299.999 C 300.823 328.202,389.053 271.897,399.195 183.366 C 400.100 175.464,400.265 92.807,399.487 37.259 L 398.976 0.772 372.461 0.772 L 345.946 0.772 345.946 29.333 M84.942 32.331 C 84.942 65.715,84.489 70.976,80.578 83.012 C 70.609 113.693,41.278 137.904,10.400 140.941 C 7.865 141.190,4.662 141.565,3.282 141.774 L 0.772 142.155 0.772 168.678 C 0.772 198.216,0.356 196.139,6.273 196.139 C 26.309 196.139,52.822 211.014,67.194 230.319 C 79.918 247.411,84.170 262.847,84.170 291.948 L 84.170 308.108 110.811 308.108 L 137.452 308.108 137.438 288.610 C 137.400 237.391,120.723 200.492,84.556 171.608 L 81.467 169.141 84.921 166.231 C 108.334 146.501,122.780 126.047,131.232 100.659 C 137.592 81.555,138.954 68.734,138.980 27.723 L 138.996 2.550 131.467 2.051 C 127.326 1.777,115.164 1.551,104.440 1.548 L 84.942 1.544 84.942 32.331 M273.359 83.747 C 333.384 92.848,365.388 160.330,334.232 212.101 C 299.650 269.567,214.747 266.423,184.703 206.564 C 153.787 144.969,205.417 73.445,273.359 83.747 " stroke="none" fill="#000000" fill-rule="evenodd"></path></g></svg>