<?xml version="1.0" standalone="no"?>
<!DOCTYPE svg PUBLIC "-//W3C//DTD SVG 20010904//EN"
 "http://www.w3.org/TR/2001/REC-SVG-20010904/DTD/svg10.dtd">
<svg version="1.0" xmlns="http://www.w3.org/2000/svg"
 width="280.000000pt" height="220.000000pt" viewBox="0 0 840.000000 288.000000"
 preserveAspectRatio="xMidYMid meet">
<metadata>
Created by potrace 1.16, written by Peter Selinger 2001-2019
</metadata>
<g transform="translate(0.000000,288.000000) scale(0.100000,-0.100000)"
fill="#000000" stroke="none">
<path d="M3951 2448 c-54 -139 -100 -210 -184 -278 -108 -88 -118 -93 -202
-114 -38 -10 -86 -22 -107 -28 -20 -6 -51 -8 -70 -4 -18 4 -60 11 -93 16 -105
17 -219 86 -301 182 l-49 58 -175 -3 -175 -2 -3 -409 c-1 -293 1 -413 9 -422
10 -12 265 -14 1575 -14 1041 0 1565 3 1569 10 7 12 15 809 8 828 -4 9 -46 12
-162 12 l-157 0 -55 -61 c-75 -84 -170 -146 -256 -165 -37 -8 -82 -19 -99 -25
-38 -11 -91 -12 -98 0 -3 4 -31 11 -63 14 -84 9 -193 67 -274 147 -83 83 -111
121 -140 195 -13 33 -27 66 -32 73 -7 9 -66 12 -233 12 -223 0 -224 0 -233
-22z"/>
<path d="M210 1080 l0 -930 1945 0 1945 0 -2 548 -3 547 -736 3 -736 2 -6 -87
c-9 -130 -51 -227 -141 -323 -60 -64 -107 -94 -171 -109 -27 -7 -66 -17 -87
-23 -39 -11 -61 -9 -152 16 -118 33 -195 96 -269 223 -53 90 -57 131 -57 616
l0 447 -765 0 -765 0 0 -930z"/>
<path d="M6640 1554 c0 -522 1 -513 -83 -640 -99 -149 -195 -201 -359 -192
-74 5 -99 11 -155 39 -78 40 -192 151 -225 219 -33 71 -56 153 -50 188 2 17 1
43 -2 57 l-6 25 -738 -2 -737 -3 -3 -547 -2 -548 1945 0 1945 0 0 930 0 930
-765 0 -765 0 0 -456z"/>
</g>
</svg>
