<?xml version="1.0" standalone="no"?>
<!DOCTYPE svg PUBLIC "-//W3C//DTD SVG 20010904//EN"
 "http://www.w3.org/TR/2001/REC-SVG-20010904/DTD/svg10.dtd">
<svg version="1.0" xmlns="http://www.w3.org/2000/svg"
 width="416.000000pt" height="412.000000pt" viewBox="0 0 416.000000 412.000000"
 preserveAspectRatio="xMidYMid meet">
<metadata>
Created by potrace 1.16, written by Peter Selinger 2001-2019
</metadata>
<g transform="translate(0.000000,412.000000) scale(0.100000,-0.100000)"
fill="#000000" stroke="none">
<path d="M1698 4110 c-583 -43 -1063 -231 -1138 -446 -17 -48 6 -103 53 -127
21 -11 41 -26 44 -33 3 -8 13 -14 23 -14 9 0 25 -9 34 -19 10 -10 90 -51 179
-91 160 -71 163 -73 240 -154 78 -82 140 -183 152 -250 5 -25 1 -41 -19 -71
-26 -37 -27 -66 -5 -90 15 -16 10 -23 -19 -30 -71 -15 -135 -114 -137 -210 -1
-73 -42 -145 -81 -145 -24 0 -64 -31 -64 -50 0 -5 -9 -10 -21 -10 -31 0 -59
-18 -69 -45 -7 -18 -18 -24 -47 -27 -33 -3 -41 -8 -58 -43 l-20 -40 -35 17
c-43 22 -111 23 -150 3 -34 -18 -67 -75 -76 -133 -5 -31 -12 -42 -29 -46 -34
-9 -74 -55 -81 -95 -5 -26 -27 -57 -80 -114 -300 -320 -377 -807 -189 -1204
202 -428 636 -677 1100 -632 534 53 953 480 991 1012 l7 92 55 35 c59 38 114
104 156 187 21 42 36 58 74 77 56 29 72 45 106 114 24 47 29 52 61 52 18 0 37
4 40 10 9 14 -12 48 -35 55 -23 7 -50 64 -50 106 0 15 -4 30 -10 34 -6 4 -6
15 0 30 14 37 2 54 -47 67 -50 12 -83 52 -83 100 0 24 6 29 47 41 34 10 58 11
82 5 78 -22 141 20 141 93 0 55 8 69 41 69 17 0 32 7 38 19 7 13 26 20 65 24
74 7 179 64 249 133 68 68 122 168 151 283 12 49 27 95 33 103 15 19 53 96 68
137 l12 36 22 -35 c28 -47 58 -126 83 -225 l20 -80 111 -28 c107 -26 285 -94
450 -170 l77 -36 0 653 0 653 -47 6 c-27 3 -127 11 -223 18 l-175 12 -49 -25
-49 -25 -91 49 c-290 157 -498 241 -747 303 -403 100 -762 138 -1081 115z
m106 -296 c3 -9 6 -32 6 -52 0 -59 28 -161 60 -221 17 -31 59 -90 95 -131 79
-92 90 -110 80 -147 -7 -28 -7 -27 -99 69 -103 107 -156 195 -181 299 -18 80
-20 185 -2 192 23 10 35 7 41 -9z m-239 -17 l60 -23 0 -217 c0 -248 10 -230
-95 -179 -51 25 -56 30 -68 77 -43 165 -64 217 -105 262 -24 26 -37 47 -30 51
5 4 15 17 22 30 10 20 19 22 84 22 52 0 90 -7 132 -23z m421 15 c6 -4 14 -20
18 -37 4 -17 32 -54 66 -88 l59 -57 -28 -48 c-15 -26 -36 -69 -46 -97 -10 -27
-22 -54 -26 -58 -8 -10 -82 80 -108 132 -10 20 -25 64 -35 98 l-17 61 26 39
c13 21 29 44 35 51 12 13 39 16 56 4z m-704 -99 c34 -36 68 -113 102 -232 38
-130 46 -144 128 -198 39 -27 77 -57 85 -68 12 -20 11 -21 -33 -19 -43 2 -52
7 -124 75 -84 80 -110 123 -174 292 -21 54 -49 111 -64 128 l-26 31 24 18 c28
21 41 16 82 -27z m434 17 c11 0 14 -25 14 -132 0 -260 66 -509 183 -691 25
-39 36 -65 32 -78 -4 -10 -10 -19 -15 -19 -12 0 -102 161 -148 266 -85 193
-112 325 -112 548 0 104 2 117 16 112 9 -3 22 -6 30 -6z m-691 -36 c9 -4 27
-28 40 -55 35 -67 74 -110 149 -159 36 -23 72 -52 80 -66 9 -13 24 -36 33 -50
l17 -26 -45 22 c-78 40 -164 107 -206 162 -43 55 -113 163 -113 173 0 7 25 6
45 -1z m1235 -53 c0 -4 -17 -43 -39 -86 -70 -144 -90 -228 -106 -438 -16 -212
-22 -250 -41 -289 -15 -28 -38 -29 -48 -2 -3 7 4 53 15 101 11 50 23 159 29
253 10 188 26 253 96 391 39 79 45 86 68 82 15 -3 26 -8 26 -12z m94 -138 c-7
-140 7 -223 61 -346 32 -76 34 -83 18 -94 -39 -29 -48 -16 -104 146 -43 123
-54 212 -39 313 6 46 14 86 16 90 3 5 16 8 30 8 l24 0 -6 -117z m-1491 7 c23
-16 88 -47 145 -69 177 -67 334 -174 387 -265 39 -66 49 -104 35 -121 -11 -13
-16 -7 -36 36 -57 123 -122 171 -367 274 -97 41 -203 91 -234 112 -57 38 -58
38 -28 41 17 2 34 8 40 13 12 12 12 13 58 -21z m1690 14 l47 -6 -44 -42 c-44
-41 -64 -86 -82 -189 -9 -52 -25 -42 -47 29 -14 44 -17 78 -14 131 3 40 8 77
12 83 4 7 22 9 44 6 20 -3 57 -8 84 -12z m260 -2 c14 -6 2 -19 -59 -67 -124
-97 -146 -131 -195 -302 -17 -59 -45 -130 -62 -157 l-31 -50 -8 37 c-6 30 -3
43 16 71 13 19 35 83 50 142 43 170 67 213 166 291 54 42 83 50 123 35z m137
-60 c21 -17 22 -20 11 -108 -16 -130 -45 -237 -90 -329 -55 -112 -55 -111 -79
-87 -20 20 -20 20 10 81 42 88 78 240 85 359 5 88 8 102 23 102 10 0 28 -8 40
-18z m-130 -104 c0 -35 -4 -69 -9 -76 -15 -25 -151 -44 -151 -22 0 29 46 94
88 125 66 49 72 46 72 -27z m438 -110 c26 -26 8 -54 -125 -188 -119 -118 -148
-142 -214 -174 -86 -41 -109 -44 -109 -17 0 29 39 71 66 71 69 0 161 77 282
238 63 82 78 92 100 70z m-931 -192 c26 -17 55 -45 65 -62 17 -30 17 -33 2
-48 -22 -22 -33 -17 -72 33 -18 24 -66 70 -107 104 -67 54 -75 64 -75 94 l0
35 70 -63 c39 -35 92 -76 117 -93z m1051 -10 c-9 -148 -69 -268 -172 -340 -94
-67 -428 -226 -475 -226 -15 0 -14 55 2 67 6 5 62 27 122 47 131 45 253 104
310 151 71 57 128 191 156 359 l12 79 25 -28 c22 -27 24 -35 20 -109z m-1212
-31 c3 -8 15 -17 26 -21 19 -6 20 -12 15 -72 -6 -56 -11 -69 -34 -88 -22 -18
-93 -48 -93 -40 0 1 9 26 19 56 10 30 22 83 26 118 5 44 11 62 21 62 8 0 17
-7 20 -15z m182 -122 c2 -16 -11 -32 -60 -66 -81 -58 -191 -112 -212 -104 -28
11 -6 36 58 67 33 16 88 52 121 79 63 53 88 60 93 24z m788 5 c-4 -13 -13 -52
-19 -88 -7 -36 -16 -71 -20 -78 -11 -17 -86 -54 -96 -48 -18 11 -21 112 -5
159 18 54 20 55 76 66 69 14 71 13 64 -11z m-1011 -250 c50 -58 75 -110 82
-167 5 -46 4 -48 -20 -53 -24 -5 -27 -1 -37 46 -17 79 -47 133 -95 167 l-44
32 22 17 c27 22 42 15 92 -42z m1135 44 c0 -23 -36 -124 -63 -177 -58 -116
-206 -231 -312 -243 -39 -4 -45 -2 -45 14 0 15 14 23 65 38 36 10 86 32 112
48 112 70 155 132 218 316 5 13 25 17 25 4z m-726 -554 c27 -42 18 -69 -29
-83 -22 -6 -52 -19 -67 -29 -20 -13 -27 -14 -31 -4 -3 7 -3 -17 0 -53 6 -69
-6 -109 -33 -109 -11 0 -14 8 -9 33 3 17 2 62 -3 100 -8 64 -7 68 15 82 22 15
23 14 23 -9 l0 -25 45 26 c25 13 45 27 45 30 0 3 -9 21 -21 40 l-21 34 29 37
28 37 5 -40 c3 -22 14 -52 24 -67z m-1326 62 c-7 -11 -28 -27 -47 -36 -19 -9
-64 -45 -101 -79 -67 -63 -116 -84 -160 -70 -33 10 -23 34 29 65 57 36 64 48
46 84 -13 25 -13 26 10 26 49 0 42 -63 -13 -122 -22 -24 -23 -28 -8 -28 10 0
55 35 100 79 85 82 110 100 139 101 15 0 15 -3 5 -20z m-523 -16 c18 -12 45
-53 45 -69 0 -9 -35 -5 -50 5 -13 9 -13 11 0 20 11 7 1 10 -37 10 -49 0 -52
-1 -62 -32 -5 -18 -12 -49 -16 -68 -13 -72 -27 -100 -55 -115 -40 -21 -74 -19
-96 6 -22 25 -13 45 35 73 35 20 51 16 31 -9 -7 -9 -10 -18 -8 -21 14 -13 47
52 58 113 17 87 45 118 97 108 20 -3 46 -13 58 -21z m683 -23 c7 -4 22 -34 32
-67 l18 -59 91 3 c81 2 96 0 143 -24 51 -26 51 -26 28 -39 -19 -10 -30 -10
-58 2 -25 11 -54 12 -114 7 -73 -6 -81 -5 -102 16 -13 12 -27 37 -31 56 -3 19
-19 50 -36 68 -20 24 -26 36 -17 39 20 8 32 8 46 -2z m-681 -328 c29 -13 66
-50 145 -143 24 -28 31 -30 65 -24 21 3 48 12 60 20 28 18 33 18 33 0 0 -13
-146 -75 -154 -65 -1 2 -20 30 -40 61 -66 101 -133 141 -256 154 -66 7 -71 9
-40 15 49 10 149 1 187 -18z m1057 -31 c-8 -20 -22 -47 -30 -59 -7 -12 -14
-25 -14 -28 0 -11 52 -4 80 10 19 10 43 13 73 9 54 -8 57 -10 80 -53 13 -26
14 -32 3 -28 -76 30 -96 31 -137 8 -60 -34 -98 -42 -140 -31 -53 15 -55 34
-10 83 21 23 46 60 55 82 9 21 22 43 28 46 23 14 28 -2 12 -39z m-1141 -106
c67 -32 116 -89 100 -114 -5 -9 -52 -41 -104 -70 -221 -127 -350 -232 -428
-348 l-33 -49 5 130 c5 150 30 242 96 360 62 111 90 126 222 122 70 -2 96 -8
142 -31z m1994 -30 c10 -32 9 -35 -13 -40 -19 -5 -24 -13 -24 -39 0 -32 -51
-117 -70 -117 -5 0 -15 -2 -23 -6 -11 -4 -16 8 -20 49 -7 60 5 110 34 143 11
11 19 27 19 35 0 8 12 20 28 25 34 13 54 -2 69 -50z m-513 5 c13 -14 15 -29
10 -75 -7 -55 -6 -56 19 -56 14 0 33 -7 42 -16 15 -15 15 -18 0 -33 -14 -14
-18 -14 -43 0 -15 9 -26 21 -24 27 3 15 -11 15 -26 0 -9 -9 -3 -17 23 -35 39
-26 48 -54 15 -46 -11 3 -41 -2 -66 -12 -50 -19 -74 -10 -74 28 0 22 88 109
102 101 13 -8 9 30 -7 69 -8 20 -15 43 -15 52 0 21 23 19 44 -4z m189 1 c-2
-6 -4 -18 -5 -24 -2 -9 14 -13 57 -13 54 0 61 -2 72 -26 7 -14 15 -51 19 -82
6 -54 5 -57 -15 -57 -17 0 -21 6 -21 30 0 16 -8 45 -17 65 -14 29 -21 35 -38
30 -11 -4 -41 -9 -66 -12 -42 -5 -49 -3 -64 20 -18 28 -10 57 23 76 22 14 58
9 55 -7z m-818 -54 c20 -78 84 -149 240 -263 123 -90 171 -134 236 -213 51
-64 107 -152 96 -152 -2 0 -43 45 -92 101 -48 55 -140 144 -204 196 -210 173
-321 293 -321 346 0 56 29 46 45 -15z m-125 -70 c77 -109 163 -195 283 -285
48 -36 87 -72 87 -79 0 -15 -47 -30 -118 -38 -64 -6 -116 -36 -140 -79 -15
-28 -17 -62 -17 -244 1 -117 0 -211 -1 -210 -1 1 -21 76 -44 167 -23 91 -78
275 -122 410 -123 376 -130 402 -121 411 12 12 84 38 108 38 14 0 39 -27 85
-91z m-247 -153 c32 -93 81 -244 109 -335 50 -165 158 -573 158 -598 0 -7 -23
17 -52 55 -101 133 -222 263 -285 304 -36 24 -94 24 -141 0 -21 -11 -68 -51
-105 -90 -37 -39 -67 -70 -67 -69 0 10 86 275 123 383 69 196 74 238 54 453
-2 20 7 28 53 47 90 39 86 42 153 -150z m1263 139 c14 -34 14 -38 -6 -59 -12
-13 -41 -33 -65 -46 l-43 -23 -24 28 c-23 28 -24 33 -19 119 1 5 13 6 29 3 15
-3 41 -2 57 3 49 15 55 13 71 -25z m-1576 -94 c44 -44 18 -214 -61 -413 -23
-56 -58 -169 -79 -252 -22 -82 -39 -136 -39 -120 -1 17 10 76 24 133 14 57 25
121 25 143 0 36 -3 40 -40 55 -44 18 -50 29 -21 39 10 3 39 28 64 54 58 62 90
156 85 251 -3 72 -16 86 -70 76 -60 -11 -243 -139 -344 -240 -52 -52 -88 -84
-82 -72 22 42 185 192 273 252 164 112 226 133 265 94z"/>
</g>
</svg>
